<?xml version="1.0" encoding="UTF-8" standalone="no"?>
<!-- Uploaded to: SVG Repo, www.svgrepo.com, Generator: SVG Repo Mixer Tools -->

<svg
   fill="#000000"
   height="300"
   width="300"
   version="1.1"
   id="Capa_1"
   viewBox="0 0 135 135"
   xml:space="preserve"
   sodipodi:docname="dollar-exchange.svg"
   xmlns:inkscape="http://www.inkscape.org/namespaces/inkscape"
   xmlns:sodipodi="http://sodipodi.sourceforge.net/DTD/sodipodi-0.dtd"
   xmlns="http://www.w3.org/2000/svg"
   xmlns:svg="http://www.w3.org/2000/svg"><defs
   id="defs2"><inkscape:path-effect
     effect="fillet_chamfer"
     id="path-effect19"
     is_visible="true"
     lpeversion="1"
     nodesatellites_param="F,0,0,1,0,0,0,1 @ F,0,0,1,0,0,0,1 @ F,0,0,1,0,0,0,1 @ F,0,0,1,0,0,0,1 @ F,0,0,1,0,2.2536073,0,1 @ F,0,0,1,0,2.2536073,0,1 @ F,0,0,1,0,0,0,1 @ F,0,0,1,0,2.649199,0,1 @ F,0,0,1,0,0,0,1 @ F,0,0,1,0,0,0,1 @ F,0,0,1,0,0,0,1 @ F,0,0,1,0,0,0,1 @ F,0,0,1,0,0,0,1"
     radius="0"
     unit="px"
     method="auto"
     mode="F"
     chamfer_steps="1"
     flexible="false"
     use_knot_distance="true"
     apply_no_radius="true"
     apply_with_radius="true"
     only_selected="false"
     hide_knots="false" /><inkscape:path-effect
     effect="fillet_chamfer"
     id="path-effect15"
     is_visible="true"
     lpeversion="1"
     nodesatellites_param="F,0,0,1,0,0,0,1 @ F,0,0,1,0,0,0,1 @ F,0,0,1,0,0,0,1 @ F,0,1,1,0,3.2133391,0,1 @ F,0,0,1,0,3.2133391,0,1 @ F,0,0,1,0,1.2822688,0,1 @ F,0,0,1,0,4.1755854,0,1 @ F,0,0,1,0,0,0,1 @ F,0,0,1,0,0,0,1"
     radius="0"
     unit="px"
     method="auto"
     mode="F"
     chamfer_steps="1"
     flexible="false"
     use_knot_distance="true"
     apply_no_radius="true"
     apply_with_radius="true"
     only_selected="false"
     hide_knots="false" /><inkscape:path-effect
     effect="fillet_chamfer"
     id="path-effect14"
     is_visible="true"
     lpeversion="1"
     nodesatellites_param="F,0,0,1,0,0,0,1 @ F,0,0,1,0,5.1916353,0,1 @ F,0,0,1,0,3.1793903,0,1 @ F,0,0,1,0,0,0,1 @ F,0,0,1,0,0,0,1 @ F,0,0,1,0,0,0,1"
     radius="0"
     unit="px"
     method="auto"
     mode="F"
     chamfer_steps="1"
     flexible="false"
     use_knot_distance="true"
     apply_no_radius="true"
     apply_with_radius="true"
     only_selected="false"
     hide_knots="false" /><inkscape:path-effect
     effect="fillet_chamfer"
     id="path-effect13"
     is_visible="true"
     lpeversion="1"
     nodesatellites_param="F,0,0,1,0,0,0,1 @ F,0,0,1,0,0,0,1 @ F,0,0,1,0,2.3555401,0,1 @ F,0,0,1,0,2.5825682,0,1 @ F,0,0,1,0,4.2936578,0,1 @ F,0,1,1,0,0,0,1"
     radius="0"
     unit="px"
     method="auto"
     mode="F"
     chamfer_steps="1"
     flexible="false"
     use_knot_distance="true"
     apply_no_radius="true"
     apply_with_radius="true"
     only_selected="false"
     hide_knots="false" /><inkscape:path-effect
     effect="fillet_chamfer"
     id="path-effect19-3"
     is_visible="true"
     lpeversion="1"
     nodesatellites_param="F,0,0,1,0,0,0,1 @ F,0,0,1,0,0,0,1 @ F,0,0,1,0,0,0,1 @ F,0,0,1,0,0,0,1 @ F,0,0,1,0,2.2536073,0,1 @ F,0,0,1,0,2.2536073,0,1 @ F,0,0,1,0,0,0,1 @ F,0,0,1,0,2.649199,0,1 @ F,0,0,1,0,0,0,1 @ F,0,0,1,0,0,0,1 @ F,0,0,1,0,0,0,1 @ F,0,0,1,0,0,0,1 @ F,0,0,1,0,0,0,1"
     radius="0"
     unit="px"
     method="auto"
     mode="F"
     chamfer_steps="1"
     flexible="false"
     use_knot_distance="true"
     apply_no_radius="true"
     apply_with_radius="true"
     only_selected="false"
     hide_knots="false" /></defs><sodipodi:namedview
   id="namedview2"
   pagecolor="#ffffff"
   bordercolor="#000000"
   borderopacity="0.25"
   inkscape:showpageshadow="2"
   inkscape:pageopacity="0.0"
   inkscape:pagecheckerboard="0"
   inkscape:deskcolor="#d1d1d1" />

<ellipse
   style="fill:#000000;fill-opacity:0;stroke:#000000;stroke-width:4.31316;stroke-dasharray:none;stroke-opacity:1"
   id="path4"
   cx="66.631561"
   cy="66.631561"
   rx="53.936813"
   ry="54.907173" /><path
   style="fill:#000000;fill-opacity:0;stroke:#000000;stroke-width:4.80001;stroke-dasharray:none;stroke-opacity:1"
   d="m 43.227446,80.508258 3.588982,-3.045196 a 15.254192,15.254192 120.89033 0 0 5.046468,-8.435265 l 0.304475,-1.420886 a 42.691029,42.691029 97.835548 0 0 0.8645,-6.282015 l 0.487826,-7.805199 12.579412,0.228713 v 28.360867"
   id="path5"
   inkscape:path-effect="#path-effect14"
   inkscape:original-d="m 43.227446,80.508258 7.547651,-6.404067 2.058449,-9.606096 0.686151,-10.978398 12.579412,0.228713 v 28.360867"
   transform="translate(-3.202033,-0.11435832)" /><path
   style="fill:#000000;fill-opacity:0;stroke:#000000;stroke-width:4.67201;stroke-dasharray:none;stroke-opacity:1"
   d="m 73.091188,51.455246 0.05747,28.511611 6.321568,-0.0539 2.233184,-0.600766 a 16.256817,16.256817 155.2192 0 0 5.362256,-2.47553 c 2.302986,-2.246499 2.257463,-3.267937 2.075676,-4.788091 -0.08406,-0.702945 -0.357261,-1.812675 -0.59146,-2.481006 A 5.6168086,5.6168086 32.196791 0 0 83.351334,66.29427 l -4.846778,-0.371607 -5.64324,-0.02297"
   id="path12"
   inkscape:path-effect="#path-effect15"
   inkscape:original-d="m 73.091188,51.455246 0.05747,28.511611 6.321568,-0.0539 5.336201,-1.435533 2.259239,-1.640763 c 1.332277,-0.782 3.022671,1.775208 1.908271,-6.058977 l -1.459237,-4.164205 -9.010144,-0.690816 -5.64324,-0.02297"
   sodipodi:nodetypes="ccccccccc" /><path
   style="fill:#000000;fill-opacity:0;stroke:#000000;stroke-width:4.80001;stroke-dasharray:none;stroke-opacity:1"
   d="m 76.105463,52.033037 7.890727,-0.05718 0.855823,0.07641 a 5.0005736,5.0005736 30.325087 0 1 3.678771,2.151862 l 0.580011,0.845439 a 6.0843518,6.0843518 78.547369 0 1 0.944054,4.65989 6.6058153,6.6058153 136.37082 0 1 -4.567209,4.353732 l -0.89107,0.349133"
   id="path13"
   inkscape:path-effect="#path-effect13"
   inkscape:original-d="m 76.105463,52.033037 7.890727,-0.05718 3.20203,0.285893 3.373572,4.917408 -1.086404,5.317665 -4.888818,1.915502"
   transform="translate(-2.115629,1.772554)"
   sodipodi:nodetypes="cccccc" /><path
   style="fill:#000000;fill-opacity:0.978723;stroke:#000000;stroke-width:4.40422;stroke-dasharray:none;stroke-opacity:1"
   d="M 5.3531367,30.682709 27.526409,43.195654 7.0689256,53.289431 Z"
   id="path18" /><path
   style="fill:#000000;fill-opacity:0.978723;stroke:#000000;stroke-width:4.80001;stroke-dasharray:none;stroke-opacity:1"
   d="m 15.324015,33.735705 4.574333,-4.80305 2.515883,-2.172807 1.486659,-1.257942 1.233234,-1.183905 a 12.035656,12.035656 146.77463 0 1 3.705977,-2.427467 232.87912,232.87912 157.93459 0 1 2.755496,-1.116953 l 3.941107,-1.583384 c 1.674725,-0.585674 3.624051,-0.941331 5.227022,-1.378641 1.404176,-0.383077 1.424787,-0.380077 0.168616,0.370078 l -5.938695,3.546447 -1.143584,0.914867 -6.975857,6.404066 -3.888183,4.231258 -2.7446,4.231258 z"
   id="path19"
   inkscape:path-effect="#path-effect19"
   inkscape:original-d="m 15.324015,33.735705 4.574333,-4.80305 2.515883,-2.172807 1.486659,-1.257942 2.858958,-2.7446 2.744599,-1.143583 6.032257,-2.423526 c 2.718439,-0.950674 6.1604,-1.295295 7.670136,-2.366839 l -8.213193,4.904723 -1.143584,0.914867 -6.975857,6.404066 -3.888183,4.231258 -2.7446,4.231258 z"
   sodipodi:nodetypes="cccccccccccccc"
   transform="translate(0.08086355)" /><path
   style="fill:#000000;fill-opacity:0.978723;stroke:#000000;stroke-width:4.80001;stroke-dasharray:none;stroke-opacity:1"
   d="m 15.324015,33.735705 4.574333,-4.80305 2.515883,-2.172807 1.486659,-1.257942 1.233234,-1.183905 a 12.035656,12.035656 146.77463 0 1 3.705977,-2.427467 294.36641,294.36641 156.94149 0 0 2.735738,-1.16455 l 1.130641,-0.484561 c 2.023867,-0.707773 7.899946,-1.527832 11.393549,-2.342862 1.418789,-0.330992 1.402427,-0.390612 0.0447,0.154623 l -9.151085,3.674897 -1.143584,0.914867 -6.975857,6.404066 -3.888183,4.231258 -2.7446,4.231258 z"
   id="path19-3"
   inkscape:path-effect="#path-effect19-3"
   inkscape:original-d="m 15.324015,33.735705 4.574333,-4.80305 2.515883,-2.172807 1.486659,-1.257942 2.858958,-2.7446 2.744599,-1.143583 3.202033,-1.3723 c 2.718439,-0.950674 12.386893,-2.103931 13.896629,-3.175475 l -11.609462,4.662133 -1.143584,0.914867 -6.975857,6.404066 -3.888183,4.231258 -2.7446,4.231258 z"
   sodipodi:nodetypes="cccccccccccccc"
   transform="rotate(180,66.070359,67.611047)" /><path
   style="fill:#000000;fill-opacity:0.978723;stroke:#000000;stroke-width:4.40422;stroke-dasharray:none;stroke-opacity:1"
   d="M 124.99018,105.51748 102.81691,93.004528 123.27439,82.910744 Z"
   id="path18-1" /></svg>
