<?xml version="1.0" encoding="UTF-8" standalone="no"?>
<!-- Created with Inkscape (http://www.inkscape.org/) -->

<svg
   version="1.1"
   id="svg1"
   width="300"
   height="300"
   viewBox="0 0 300 300"
   sodipodi:docname="4026593.jpg"
   xmlns:inkscape="http://www.inkscape.org/namespaces/inkscape"
   xmlns:sodipodi="http://sodipodi.sourceforge.net/DTD/sodipodi-0.dtd"
   xmlns="http://www.w3.org/2000/svg"
   xmlns:svg="http://www.w3.org/2000/svg">
  <defs
     id="defs1">
    <inkscape:path-effect
       effect="fillet_chamfer"
       id="path-effect6"
       is_visible="true"
       lpeversion="1"
       nodesatellites_param="F,0,0,1,0,0,0,1 @ F,0,0,1,0,0,0,1 @ F,0,0,1,0,8.2582699,0,1 @ F,0,0,1,0,7.9993291,0,1 @ F,0,0,1,0,7.3759392,0,1 @ F,0,0,1,0,0,0,1"
       radius="0"
       unit="px"
       method="auto"
       mode="F"
       chamfer_steps="1"
       flexible="false"
       use_knot_distance="true"
       apply_no_radius="true"
       apply_with_radius="true"
       only_selected="false"
       hide_knots="false" />
    <inkscape:path-effect
       effect="fillet_chamfer"
       id="path-effect5"
       is_visible="true"
       lpeversion="1"
       nodesatellites_param="F,0,0,1,0,0,0,1 @ F,0,0,1,0,6.4458134,0,1 @ F,0,0,1,0,13.160264,0,1 @ F,0,1,1,0,0,0,1"
       radius="0"
       unit="px"
       method="auto"
       mode="F"
       chamfer_steps="1"
       flexible="false"
       use_knot_distance="true"
       apply_no_radius="true"
       apply_with_radius="true"
       only_selected="false"
       hide_knots="false" />
    <inkscape:path-effect
       effect="fillet_chamfer"
       id="path-effect4"
       is_visible="true"
       lpeversion="1"
       nodesatellites_param="F,0,0,1,0,0,0,1 @ F,0,0,1,0,10.564154,0,1 @ F,0,0,1,0,13.268848,0,1 @ F,0,0,1,0,0,0,1 @ F,0,0,1,0,0,0,1 @ F,0,0,1,0,0,0,1"
       radius="0"
       unit="px"
       method="auto"
       mode="F"
       chamfer_steps="1"
       flexible="false"
       use_knot_distance="true"
       apply_no_radius="true"
       apply_with_radius="true"
       only_selected="false"
       hide_knots="false" />
    <inkscape:path-effect
       effect="fillet_chamfer"
       id="path-effect1"
       is_visible="true"
       lpeversion="1"
       nodesatellites_param="F,0,0,1,0,0,0,1 @ F,0,0,1,0,0,0,1 @ F,0,0,1,0,0,0,1 @ F,0,0,1,0,0,0,1 @ F,0,0,1,0,9.8064101,0,1 @ F,0,0,1,0,10.532381,0,1 @ F,0,0,1,0,1.9229975,0,1 @ F,0,0,1,0,0,0,1 @ F,0,0,1,0,0,0,1 @ F,0,0,1,0,0,0,1 @ F,0,0,1,0,0,0,1 @ F,0,0,1,0,0,0,1 @ F,0,0,1,0,0,0,1 @ F,0,0,1,0,0,0,1 @ F,0,0,1,0,19.175012,0,1 @ F,0,0,1,0,16.191747,0,1 @ F,0,0,1,0,0,0,1 @ F,0,0,1,0,0,0,1 @ F,0,0,1,0,0,0,1 @ F,0,0,1,0,0,0,1 @ F,0,0,1,0,0,0,1 @ F,0,0,1,0,0,0,1 @ F,0,0,1,0,0,0,1 @ F,0,0,1,0,13.737305,0,1 @ F,0,0,1,0,11.539631,0,1 @ F,0,0,1,0,0,0,1 @ F,0,0,1,0,0,0,1 @ F,0,0,1,0,0,0,1 @ F,0,0,1,0,0,0,1 @ F,0,0,1,0,0,0,1 @ F,0,0,1,0,0,0,1 @ F,0,0,1,0,0,0,1 @ F,0,0,1,0,12.288929,0,1 @ F,0,0,1,0,13.952691,0,1 @ F,0,0,1,0,0,0,1 @ F,0,0,1,0,0,0,1 @ F,0,0,1,0,0,0,1"
       radius="0"
       unit="px"
       method="auto"
       mode="F"
       chamfer_steps="1"
       flexible="false"
       use_knot_distance="true"
       apply_no_radius="true"
       apply_with_radius="true"
       only_selected="false"
       hide_knots="false" />
  </defs>
  <sodipodi:namedview
     id="namedview1"
     pagecolor="#ffffff"
     bordercolor="#000000"
     borderopacity="0.25"
     inkscape:showpageshadow="2"
     inkscape:pageopacity="0.0"
     inkscape:pagecheckerboard="0"
     inkscape:deskcolor="#d1d1d1" />
  <g
     inkscape:groupmode="layer"
     inkscape:label="Image"
     id="g1">
    <path
       style="fill:#ffffff;fill-opacity:0;stroke:#171576;stroke-width:10.6667;stroke-opacity:1"
       d="m 28.214789,31.281614 0.613365,59.496404 16.560855,-13.49403 41.095454,36.188532 -5.6383,11.98139 a 52.258988,52.258988 104.57315 0 0 -4.850241,18.65619 78.944387,78.944387 86.330928 0 0 1.179484,18.3935 l 1.632538,9.79523 a 18.627248,18.627248 74.643586 0 0 1.013122,3.68907 l 3.596572,9.24833 -38.028629,39.86872 -17.17422,-16.56085 1.22673,63.17659 63.176594,-1.8401 -17.17422,-15.94749 38.641997,-37.41526 8.40345,3.12687 a 84.384422,84.384422 7.6077287 0 0 37.0675,4.95095 84.262188,84.262188 163.84014 0 0 22.95674,-6.65211 l 5.17611,-2.03908 38.02862,40.48209 -15.94748,13.49403 64.40332,-1.22673 -1.22673,-60.72313 -20.24105,15.94749 -38.02863,-35.57517 7.27667,-16.28587 a 45.954092,45.954092 97.432243 0 0 3.40505,-26.10245 135.76996,135.76996 75.927564 0 0 -5.04127,-20.1111 l -3.80035,-11.71774 38.02863,-35.575172 17.78758,14.107395 -1.22673,-60.109769 -64.40332,-0.613365 16.56085,15.94749 -36.18853,36.188534 -13.94523,-3.984352 a 66.580262,66.580262 5.4878267 0 0 -24.05883,-2.311442 111.91716,111.91716 167.88655 0 0 -15.45594,3.317262 l -20.75716,4.818627 -39.868727,-34.961804 22.08114,-20.85441 z"
       id="path1"
       inkscape:path-effect="#path-effect1"
       inkscape:original-d="m 28.214789,31.281614 0.613365,59.496404 16.560855,-13.49403 41.095454,36.188532 -9.81384,20.85441 -1.22673,17.78759 3.68019,22.08114 4.293555,11.04057 -38.028629,39.86872 -17.17422,-16.56085 1.22673,63.17659 63.176594,-1.8401 -17.17422,-15.94749 38.641997,-37.41526 26.37469,9.81384 26.98806,-2.45346 20.24105,-7.97375 38.02862,40.48209 -15.94748,13.49403 64.40332,-1.22673 -1.22673,-60.72313 -20.24105,15.94749 -38.02863,-35.57517 12.88067,-28.82815 -3.68019,-22.69451 -7.36038,-22.6945 38.02863,-35.575172 17.78758,14.107395 -1.22673,-60.109769 -64.40332,-0.613365 16.56085,15.94749 -36.18853,36.188534 -25.76133,-7.36038 -14.10739,1.22673 -34.34844,7.973745 -39.868727,-34.961804 22.08114,-20.85441 z" />
    <path
       style="fill:#ffffff;fill-opacity:0;stroke:#171576;stroke-width:10.6667;stroke-opacity:1"
       d="m 112.54892,173.48582 3.21837,-1.86327 a 26.716892,26.716892 128.35704 0 0 12.19281,-15.40721 c 0.59095,-1.95947 1.06174,-9.48852 1.01277,-16.81654 -0.032,-4.79531 -0.0641,-6.47937 -0.0961,-11.69617 l 19.23678,0.0263 -0.43372,50.09403"
       id="path2"
       sodipodi:nodetypes="cccccc"
       inkscape:path-effect="#path-effect4"
       inkscape:original-d="m 112.54892,173.48582 12.36087,-7.15629 4.12029,-13.66201 c -0.0511,-17.31082 -0.10223,-16.64326 -0.15334,-24.96489 l 19.23678,0.0263 -0.43372,50.09403"
       transform="translate(-6.0720036,0.21685727)" />
    <path
       style="fill:#ffffff;fill-opacity:0;stroke:#171576;stroke-width:10.6667;stroke-opacity:1"
       d="m 160.68034,122.41913 0.22775,50.93514 9.09042,-0.0447 a 17.18268,17.18268 154.04861 0 0 13.3854,-6.51444 9.6007063,9.6007063 85.318093 0 0 -0.89828,-10.96835 12.615813,12.615813 27.120678 0 0 -10.27979,-5.26512 l -7.17746,-0.49642"
       id="path3"
       sodipodi:nodetypes="cccccc"
       inkscape:path-effect="#path-effect6"
       inkscape:original-d="m 160.68034,122.41913 0.22775,50.93514 17.34859,-0.0853 8.41571,-10.62601 -7.10819,-11.57236 -14.53582,-1.00536" />
    <path
       style="fill:#ffffff;fill-opacity:0;stroke:#171576;stroke-width:10.6667;stroke-opacity:1"
       d="m 165.39407,127.70714 6.20232,0.0783 a 13.012322,13.012322 27.075598 0 1 10.28595,5.25806 14.153848,14.153848 102.93262 0 1 -3.64535,15.87493 l -1.13376,1.70114"
       id="path4"
       sodipodi:nodetypes="cccc"
       inkscape:path-effect="#path-effect5"
       inkscape:original-d="m 165.39407,127.70714 12.64762,0.15972 7.4938,10.1006 -8.43226,12.65214" />
  </g>
</svg>
