<?xml version="1.0" encoding="UTF-8" standalone="no"?>
<!-- Created with Inkscape (http://www.inkscape.org/) -->

<svg
   version="1.1"
   id="svg1"
   width="300"
   height="300"
   viewBox="0 0 300 300"
   sodipodi:docname="download.png"
   inkscape:export-filename="..\Documents\Sustezanie\Sustezanie\resources\bulgarian-bank.svg"
   inkscape:export-xdpi="96"
   inkscape:export-ydpi="96"
   xmlns:inkscape="http://www.inkscape.org/namespaces/inkscape"
   xmlns:sodipodi="http://sodipodi.sourceforge.net/DTD/sodipodi-0.dtd"
   xmlns="http://www.w3.org/2000/svg"
   xmlns:svg="http://www.w3.org/2000/svg">
  <defs
     id="defs1">
    <inkscape:path-effect
       effect="fillet_chamfer"
       id="path-effect25"
       is_visible="true"
       lpeversion="1"
       nodesatellites_param="F,0,0,1,0,0,0,1 @ F,0,0,1,0,0,0,1 @ F,0,0,1,0,3.6631424,0,1 @ F,0,0,1,0,3.8652644,0,1 @ F,0,0,1,0,3.3390676,0,1 @ F,0,0,1,0,0,0,1"
       radius="0"
       unit="px"
       method="auto"
       mode="F"
       chamfer_steps="1"
       flexible="false"
       use_knot_distance="true"
       apply_no_radius="true"
       apply_with_radius="true"
       only_selected="false"
       hide_knots="false" />
    <inkscape:path-effect
       effect="fillet_chamfer"
       id="path-effect14"
       is_visible="true"
       lpeversion="1"
       nodesatellites_param="F,0,0,1,0,3.8227132,0,1 @ F,0,0,1,0,2.6743787,0,1 @ F,0,1,1,0,3.2083153,0,1 @ F,0,1,1,0,3.2083153,0,1 @ F,0,0,1,0,0,0,1 @ F,0,0,1,0,0,0,1 @ F,0,0,1,0,0,0,1 @ F,0,0,1,0,4.4853214,0,1 @ F,0,0,1,0,4.8335075,0,1"
       radius="0"
       unit="px"
       method="auto"
       mode="F"
       chamfer_steps="1"
       flexible="false"
       use_knot_distance="true"
       apply_no_radius="true"
       apply_with_radius="true"
       only_selected="false"
       hide_knots="false" />
    <inkscape:path-effect
       effect="fillet_chamfer"
       id="path-effect13"
       is_visible="true"
       lpeversion="1"
       nodesatellites_param="F,0,0,1,0,0,0,1 @ F,0,0,1,0,0,0,1 @ F,0,0,1,0,4.1999475,0,1 @ F,0,0,1,0,0,0,1 @ F,0,0,1,0,0,0,1 @ F,0,0,1,0,0,0,1 @ F,0,0,1,0,0.55593231,0,1 @ F,0,0,1,0,1.3740481,0,1 @ F,0,0,1,0,0.55593231,0,1"
       radius="0"
       unit="px"
       method="auto"
       mode="F"
       chamfer_steps="1"
       flexible="false"
       use_knot_distance="true"
       apply_no_radius="true"
       apply_with_radius="true"
       only_selected="false"
       hide_knots="false" />
    <inkscape:path-effect
       effect="fillet_chamfer"
       id="path-effect12"
       is_visible="true"
       lpeversion="1"
       nodesatellites_param="F,0,0,1,0,3.3038736,0,1 @ F,0,0,1,0,2.8876307,0,1 @ F,0,0,1,0,2.4945146,0,1 @ F,0,0,1,0,4.4124954,0,1 @ F,0,1,1,0,5.6633304,0,1 @ F,0,0,1,0,3.4307541,0,1 @ F,0,0,1,0,0.9230486,0,1 @ F,0,0,1,0,4.0667369,0,1"
       radius="0"
       unit="px"
       method="auto"
       mode="F"
       chamfer_steps="1"
       flexible="false"
       use_knot_distance="true"
       apply_no_radius="true"
       apply_with_radius="true"
       only_selected="false"
       hide_knots="false" />
    <inkscape:path-effect
       effect="fillet_chamfer"
       id="path-effect11"
       is_visible="true"
       lpeversion="1"
       nodesatellites_param="F,0,0,1,0,11.096804,0,1 @ F,0,0,1,0,0,0,1 @ F,0,0,1,0,0,0,1 @ F,0,0,1,0,0,0,1 @ F,0,0,1,0,0,0,1 @ F,0,0,1,0,6.539248,0,1 @ F,0,0,1,0,2.7168496,0,1 @ F,0,0,1,0,0,0,1"
       radius="0"
       unit="px"
       method="auto"
       mode="F"
       chamfer_steps="1"
       flexible="false"
       use_knot_distance="true"
       apply_no_radius="true"
       apply_with_radius="true"
       only_selected="false"
       hide_knots="false" />
    <inkscape:path-effect
       effect="fillet_chamfer"
       id="path-effect11-0"
       is_visible="true"
       lpeversion="1"
       nodesatellites_param="F,0,0,1,0,11.096804,0,1 @ F,0,0,1,0,0,0,1 @ F,0,0,1,0,0,0,1 @ F,0,0,1,0,0,0,1 @ F,0,0,1,0,0,0,1 @ F,0,0,1,0,6.539248,0,1 @ F,0,0,1,0,2.7168496,0,1 @ F,0,0,1,0,0,0,1"
       radius="0"
       unit="px"
       method="auto"
       mode="F"
       chamfer_steps="1"
       flexible="false"
       use_knot_distance="true"
       apply_no_radius="true"
       apply_with_radius="true"
       only_selected="false"
       hide_knots="false" />
    <inkscape:path-effect
       effect="fillet_chamfer"
       id="path-effect11-1"
       is_visible="true"
       lpeversion="1"
       nodesatellites_param="F,0,0,1,0,11.096804,0,1 @ F,0,0,1,0,0,0,1 @ F,0,0,1,0,0,0,1 @ F,0,0,1,0,0,0,1 @ F,0,0,1,0,0,0,1 @ F,0,0,1,0,6.539248,0,1 @ F,0,0,1,0,2.7168496,0,1 @ F,0,0,1,0,0,0,1"
       radius="0"
       unit="px"
       method="auto"
       mode="F"
       chamfer_steps="1"
       flexible="false"
       use_knot_distance="true"
       apply_no_radius="true"
       apply_with_radius="true"
       only_selected="false"
       hide_knots="false" />
  </defs>
  <sodipodi:namedview
     id="namedview1"
     pagecolor="#202020"
     bordercolor="#000000"
     borderopacity="0.25"
     inkscape:showpageshadow="2"
     inkscape:pageopacity="0.0"
     inkscape:pagecheckerboard="0"
     inkscape:deskcolor="#d1d1d1"
     showgrid="false" />
  <g
     inkscape:groupmode="layer"
     inkscape:label="Image"
     id="g1">
    <rect
       style="fill:#e0e0e0;fill-opacity:1;stroke:none;stroke-width:1.68768;stroke-dasharray:none;stroke-opacity:1"
       id="rect14"
       width="42.655521"
       height="141.25055"
       x="56.604488"
       y="110.66253" />
    <path
       style="fill:#f9f9f9;fill-opacity:1;stroke:#ffffff;stroke-width:1.6;stroke-dasharray:none;stroke-opacity:1"
       d="m 38.517442,93.146703 236.219618,0.271161 3.33544,4.145339 -2.27429,2.721957 -5.36711,1.72344 -232.238341,-0.37699 a 76.239585,76.239585 4.9954035 0 1 -12.981156,-1.13466 l -2.013091,-0.35126 a 5.6899103,5.6899103 35.421596 0 1 -3.995831,-2.841957 l -0.70217,-1.263906 a 64.255685,64.255685 171.77577 0 1 20.016931,-2.893124 z"
       id="path9-2"
       sodipodi:nodetypes="ccccccccc"
       transform="matrix(0.19448368,0,0,0.78378213,48.407619,30.560256)"
       inkscape:path-effect="#path-effect11"
       inkscape:original-d="m 27.420645,93.133965 247.316415,0.283899 3.33544,4.145339 -2.27429,2.721957 -5.36711,1.72344 -238.77758,-0.38761 -11.13142,-1.942303 -2.021589,-3.63886 z" />
    <path
       style="fill:#d0d0d0;fill-opacity:1;stroke:#ffffff;stroke-width:9.77766;stroke-dasharray:none;stroke-opacity:1"
       d="M 151.54947,19.539617 51.192794,88.555045 255.05871,87.997307 Z"
       id="path1"
       sodipodi:nodetypes="cccc" />
    <path
       style="fill:#e0e0e0;fill-opacity:1;stroke:#1172a7;stroke-width:3.0766;stroke-dasharray:none;stroke-opacity:1"
       d="m 184.16544,68.640091 7.5203,0.0777"
       id="path18-9"
       sodipodi:nodetypes="cc" />
    <path
       style="fill:#e0e0e0;fill-opacity:1;stroke:#1172a7;stroke-width:3.0766;stroke-dasharray:none;stroke-opacity:1"
       d="m 187.74585,58.220266 -6.72957,19.393066"
       id="path16-2" />
    <path
       style="fill:#e0e0e0;fill-opacity:1;stroke:#1172a7;stroke-width:3.0766;stroke-dasharray:none;stroke-opacity:1"
       d="M 194.75935,77.609802 188.73638,58.263353"
       id="path17-8"
       sodipodi:nodetypes="cc" />
    <path
       style="fill:#f80000;fill-opacity:0;stroke:#bcbcbc;stroke-width:3.59361;stroke-dasharray:none;stroke-opacity:1"
       d="m 65.185248,111.08562 0.569784,139.10121"
       id="path6" />
    <path
       style="fill:#e0e0e0;fill-opacity:1;stroke:#808080;stroke-width:0.7;stroke-opacity:1"
       d="m 28.017789,274.45997 h -8.576874 l -2.107009,0.19155 a 4.5990864,4.5990864 132.40275 0 0 -4.182699,4.5802 v 4.94871 14.86658 l 279.034303,1.71538 v -20.60036 a 53.178216,53.178216 89.401044 0 0 -0.0116,-1.11174 l -0.0489,-2.34101 a 2.6629823,2.6629823 61.509217 0 0 -1.16496,-2.1464 1.3124163,1.3124163 10.335094 0 0 -0.7598,-0.13856 z"
       id="path8"
       inkscape:path-effect="#path-effect13"
       inkscape:original-d="m 28.017789,274.45997 h -8.576874 l -6.289708,0.5718 v 9.14866 14.86658 l 279.034303,1.71538 V 279.6061 l -0.0893,-4.27057 -1.3401,-0.91129 z"
       sodipodi:nodetypes="cccccccccc" />
    <path
       style="fill:#bebebe;fill-opacity:1;stroke:#bebebe;stroke-width:1.6;stroke-dasharray:none;stroke-opacity:1"
       d="m 28.457413,92.90002 244.301547,-0.09363 a 4.7115966,4.7115966 31.481229 0 1 4.19929,2.571434 3.7449452,3.7449452 96.749411 0 1 -0.48519,4.099641 9.0897325,9.0897325 157.53878 0 1 -4.9142,2.031632 24.64033,24.64033 177.05015 0 1 -6.8983,0.35547 L 27.450869,101.8194 a 12.186304,12.186304 15.73417 0 1 -6.357284,-1.79104 3.0292496,3.0292496 48.595696 0 1 -1.019757,-1.156513 3.4435922,3.4435922 114.74209 0 1 2.104689,-4.567083 14.728015,14.728015 167.38918 0 1 6.278896,-1.404744 z"
       id="path9"
       sodipodi:nodetypes="ccccccccc"
       transform="translate(2.7464871,0.49610967)"
       inkscape:path-effect="#path-effect12"
       inkscape:original-d="m 25.15354,92.901286 250.49305,-0.096 2.42591,4.757917 -2.27429,2.721957 -5.47432,1.58049 -246.303775,-0.0469 -3.498015,-2.140013 -2.021589,-3.63886 z" />
    <path
       d="M 254.79821,104.28516"
       style="fill:#bebebe;fill-opacity:1;stroke:#bebebe;stroke-width:1.6;stroke-dasharray:none;stroke-opacity:1"
       id="path1-0" />
    <ellipse
       style="fill:#f9f9f9;fill-opacity:1;stroke:#ffffff;stroke-width:1.51186;stroke-dasharray:none;stroke-opacity:1"
       id="path11"
       cx="56.530159"
       cy="106.93949"
       rx="5.4036012"
       ry="3.2786109" />
    <ellipse
       style="fill:#f9f9f9;fill-opacity:1;stroke:#ffffff;stroke-width:1.51186;stroke-dasharray:none;stroke-opacity:1"
       id="path11-4"
       cx="100.75397"
       cy="107.11775"
       rx="5.4036012"
       ry="3.2786109" />
    <path
       style="fill:#f9f9f9;fill-opacity:1;stroke:#ffffff;stroke-width:1.6;stroke-dasharray:none;stroke-opacity:1"
       d="m 38.517442,93.146703 236.219618,0.271161 3.33544,4.145339 -2.27429,2.721957 -5.36711,1.72344 -232.238341,-0.37699 a 76.239585,76.239585 4.9954035 0 1 -12.981156,-1.13466 l -2.013091,-0.35126 a 5.6899103,5.6899103 35.421596 0 1 -3.995831,-2.841957 l -0.70217,-1.263906 a 64.255685,64.255685 171.77577 0 1 20.016931,-2.893124 z"
       id="path9-2-2"
       sodipodi:nodetypes="ccccccccc"
       transform="matrix(0.1944295,0,0,0.814129,123.05455,27.7029)"
       inkscape:path-effect="#path-effect11-0"
       inkscape:original-d="m 27.420645,93.133965 247.316415,0.283899 3.33544,4.145339 -2.27429,2.721957 -5.36711,1.72344 -238.77758,-0.38761 -11.13142,-1.942303 -2.021589,-3.63886 z" />
    <ellipse
       style="fill:#f9f9f9;fill-opacity:1;stroke:#ffffff;stroke-width:1.51186;stroke-dasharray:none;stroke-opacity:1"
       id="path11-0"
       cx="131.24054"
       cy="106.89159"
       rx="5.4036012"
       ry="3.2786109" />
    <ellipse
       style="fill:#f9f9f9;fill-opacity:1;stroke:#ffffff;stroke-width:1.55834;stroke-dasharray:none;stroke-opacity:1"
       id="path11-4-2"
       cx="175.67085"
       cy="107.19186"
       rx="5.6077914"
       ry="3.3564525" />
    <path
       style="fill:#f9f9f9;fill-opacity:1;stroke:#ffffff;stroke-width:1.6;stroke-dasharray:none;stroke-opacity:1"
       d="m 38.517442,93.146703 236.219618,0.271161 3.33544,4.145339 -2.27429,2.721957 -5.36711,1.72344 -232.238341,-0.37699 a 76.239585,76.239585 4.9954035 0 1 -12.981156,-1.13466 l -2.013091,-0.35126 a 5.6899103,5.6899103 35.421596 0 1 -3.995831,-2.841957 l -0.70217,-1.263906 a 64.255685,64.255685 171.77577 0 1 20.016931,-2.893124 z"
       id="path9-2-4"
       sodipodi:nodetypes="ccccccccc"
       transform="matrix(0.19448368,0,0,0.78378213,197.46012,30.584467)"
       inkscape:path-effect="#path-effect11-1"
       inkscape:original-d="m 27.420645,93.133965 247.316415,0.283899 3.33544,4.145339 -2.27429,2.721957 -5.36711,1.72344 -238.77758,-0.38761 -11.13142,-1.942303 -2.021589,-3.63886 z" />
    <ellipse
       style="fill:#f9f9f9;fill-opacity:1;stroke:#ffffff;stroke-width:1.51186;stroke-dasharray:none;stroke-opacity:1"
       id="path11-1"
       cx="205.58266"
       cy="106.89223"
       rx="5.4036012"
       ry="3.2786109" />
    <ellipse
       style="fill:#f9f9f9;fill-opacity:1;stroke:#ffffff;stroke-width:1.51186;stroke-dasharray:none;stroke-opacity:1"
       id="path11-4-5"
       cx="249.80646"
       cy="107.14195"
       rx="5.4036012"
       ry="3.2786109" />
    <path
       style="fill:#f80000;fill-opacity:0;stroke:#bcbcbc;stroke-width:3.59361;stroke-dasharray:none;stroke-opacity:1"
       d="M 77.082686,111.01937 77.65247,250.12058"
       id="path6-9" />
    <path
       style="fill:#f80000;fill-opacity:0;stroke:#bcbcbc;stroke-width:3.59361;stroke-dasharray:none;stroke-opacity:1"
       d="m 88.846059,111.08922 0.569784,139.10121"
       id="path6-7" />
    <rect
       style="fill:#e0e0e0;fill-opacity:1;stroke:none;stroke-width:1.68768;stroke-dasharray:none;stroke-opacity:1"
       id="rect14-2"
       width="42.655521"
       height="141.25055"
       x="131.81157"
       y="111.078" />
    <path
       style="fill:#f80000;fill-opacity:0;stroke:#bcbcbc;stroke-width:3.59361;stroke-dasharray:none;stroke-opacity:1"
       d="m 140.39233,111.50109 0.56978,139.10121"
       id="path6-0" />
    <path
       style="fill:#f80000;fill-opacity:0;stroke:#bcbcbc;stroke-width:3.59361;stroke-dasharray:none;stroke-opacity:1"
       d="m 152.28977,111.43484 0.56978,139.10121"
       id="path6-9-9" />
    <path
       style="fill:#f80000;fill-opacity:0;stroke:#bcbcbc;stroke-width:3.59361;stroke-dasharray:none;stroke-opacity:1"
       d="m 164.05314,111.50469 0.56978,139.10121"
       id="path6-7-8" />
    <rect
       style="fill:#e0e0e0;fill-opacity:1;stroke:none;stroke-width:1.68768;stroke-dasharray:none;stroke-opacity:1"
       id="rect14-27"
       width="42.655521"
       height="141.25055"
       x="206.28844"
       y="110.87547" />
    <path
       style="fill:#f80000;fill-opacity:0;stroke:#bcbcbc;stroke-width:3.59361;stroke-dasharray:none;stroke-opacity:1"
       d="m 214.8692,111.29857 0.56978,139.10121"
       id="path6-71" />
    <path
       style="fill:#f80000;fill-opacity:0;stroke:#bcbcbc;stroke-width:3.59361;stroke-dasharray:none;stroke-opacity:1"
       d="m 226.76664,111.23232 0.56978,139.10121"
       id="path6-9-0" />
    <path
       style="fill:#e0e0e0;fill-opacity:1;stroke:#808080;stroke-width:0.7;stroke-opacity:1"
       d="m 39.712795,250.49386 227.855835,-0.0838 a 7.6385104,7.6385104 19.274986 0 1 4.7653,1.66645 6.5056509,6.5056509 66.554194 0 1 1.5936,3.67453 l 0.1,0.3588 a 24.345191,24.345191 81.93496 0 1 0.89251,6.2987 l 0.11173,11.47973 -244.726814,1.14359 -2.760855,-0.0317 -0.06954,-10.92143 a 25.630877,25.630877 99.561249 0 1 1.467736,-8.71361 8.2700484,8.2700484 141.66254 0 1 5.347059,-4.22853 14.433199,14.433199 173.2416 0 1 5.42344,-0.64272 z"
       id="path7"
       sodipodi:nodetypes="cccccccccc"
       inkscape:path-effect="#path-effect14"
       inkscape:original-d="m 35.890082,250.49527 234.352928,-0.0862 2.82323,2.25142 1.82258,6.53988 0.14295,14.68789 -244.726814,1.14359 -2.760855,-0.0317 -0.0981,-15.40666 2.356537,-6.65934 z"
       transform="translate(1.0335772,0.59857172)" />
    <path
       style="fill:#f80000;fill-opacity:0;stroke:#bcbcbc;stroke-width:3.59361;stroke-dasharray:none;stroke-opacity:1"
       d="m 238.53001,111.30217 0.56978,139.10121"
       id="path6-7-3" />
    <path
       style="fill:#e0e0e0;fill-opacity:1;stroke:#1172a7;stroke-width:3.4;stroke-dasharray:none;stroke-opacity:1"
       d="m 105.49555,59.752224 0.14295,20.155654 6.84387,-0.09311 a 6.191158,6.191158 148.60885 0 0 5.38238,-3.284281 5.4782337,5.4782337 80.869811 0 0 -0.90032,-5.602024 5.5998347,5.5998347 23.99626 0 0 -4.87227,-2.168891 l -6.45366,0.141321"
       id="path14"
       sodipodi:nodetypes="cccccc"
       inkscape:path-effect="#path-effect25"
       inkscape:original-d="m 105.49555,59.752224 0.14295,20.155654 10.50667,-0.142948 3.00191,-5.646442 -3.71665,-5.43202 -9.79193,0.214421"
       transform="matrix(0.94154224,0,0,0.86964918,16.316498,7.336211)" />
    <path
       style="fill:#e0e0e0;fill-opacity:1;stroke:#1172a7;stroke-width:3.41119;stroke-dasharray:none;stroke-opacity:1"
       d="m 114.00455,59.546113 14.65393,-0.244232"
       id="path15" />
    <path
       style="fill:#e0e0e0;fill-opacity:1;stroke:#1172a7;stroke-width:3.0766;stroke-dasharray:none;stroke-opacity:1"
       d="m 138.34001,58.56446 -6.72957,19.393067"
       id="path16" />
    <path
       style="fill:#e0e0e0;fill-opacity:1;stroke:#1172a7;stroke-width:3.0766;stroke-dasharray:none;stroke-opacity:1"
       d="M 144.49179,77.589915 138.46882,58.243467"
       id="path17"
       sodipodi:nodetypes="cc" />
    <path
       style="fill:#e0e0e0;fill-opacity:1;stroke:#1172a7;stroke-width:3.0766;stroke-dasharray:none;stroke-opacity:1"
       d="m 133.99366,69.851335 7.5203,0.0777"
       id="path18"
       sodipodi:nodetypes="cc" />
    <path
       style="fill:#e0e0e0;fill-opacity:1;stroke:#1172a7;stroke-width:3.0766;stroke-dasharray:none;stroke-opacity:1"
       d="M 150.33977,57.222747 150.60895,77.3617"
       id="path19"
       sodipodi:nodetypes="cc" />
    <path
       style="fill:#e0e0e0;fill-opacity:1;stroke:#1172a7;stroke-width:3.0766;stroke-dasharray:none;stroke-opacity:1"
       d="m 160.63602,57.471377 0.10093,20.014639"
       id="path20"
       sodipodi:nodetypes="cc" />
    <path
       style="fill:#e0e0e0;fill-opacity:1;stroke:#1172a7;stroke-width:3.0766;stroke-dasharray:none;stroke-opacity:1"
       d="m 150.94542,66.732809 10.22895,-0.06216"
       id="path21"
       sodipodi:nodetypes="cc" />
    <path
       style="fill:#e0e0e0;fill-opacity:1;stroke:#1172a7;stroke-width:3.0766;stroke-dasharray:none;stroke-opacity:1"
       d="m 168.17512,57.47816 0.11827,19.968322"
       id="path22"
       sodipodi:nodetypes="cc" />
    <path
       style="fill:#e0e0e0;fill-opacity:1;stroke:#1172a7;stroke-width:3.0766;stroke-dasharray:none;stroke-opacity:1"
       d="m 177.42589,58.534832 -6.85459,7.889556"
       id="path23"
       sodipodi:nodetypes="cc" />
    <path
       style="fill:#e0e0e0;fill-opacity:1;stroke:#1172a7;stroke-width:3.0766;stroke-dasharray:none;stroke-opacity:1"
       d="M 176.96299,76.250411 168.87257,65.81165"
       id="path24"
       sodipodi:nodetypes="cc" />
  </g>
</svg>
