<?xml version="1.0" encoding="UTF-8" standalone="no"?>
<svg
   version="1.2"
   viewBox="0 0 287.67123 288"
   width="300"
   height="300"
   id="svg1"
   sodipodi:docname="car.svg"
   inkscape:export-filename="car.svg"
   inkscape:export-xdpi="96"
   inkscape:export-ydpi="96"
   inkscape:version="1.3.2 (091e20e, 2023-11-25, custom)"
   xmlns:inkscape="http://www.inkscape.org/namespaces/inkscape"
   xmlns:sodipodi="http://sodipodi.sourceforge.net/DTD/sodipodi-0.dtd"
   xmlns="http://www.w3.org/2000/svg"
   xmlns:svg="http://www.w3.org/2000/svg"
   xmlns:rdf="http://www.w3.org/1999/02/22-rdf-syntax-ns#"
   xmlns:cc="http://creativecommons.org/ns#"
   xmlns:dc="http://purl.org/dc/elements/1.1/">
  <defs
     id="defs1" />
  <sodipodi:namedview
     id="namedview1"
     pagecolor="#000000"
     bordercolor="#000000"
     borderopacity="0.25"
     inkscape:showpageshadow="2"
     inkscape:pageopacity="0.0"
     inkscape:pagecheckerboard="0"
     inkscape:deskcolor="#d1d1d1"
     inkscape:zoom="3.148"
     inkscape:cx="130.40025"
     inkscape:cy="111.02287"
     inkscape:window-width="1920"
     inkscape:window-height="1001"
     inkscape:window-x="-9"
     inkscape:window-y="-9"
     inkscape:window-maximized="1"
     inkscape:current-layer="g1" />
  <title
     id="title1">car-icon-svg</title>
  <style
     id="style1">
		.s0 { fill: none;stroke: #ffffff;stroke-width: 7.2 } 
		.s1 { fill: none } 
		.s2 { fill: #ffffff;stroke: #ffffff;stroke-width: 7.2 } 
		.s3 { fill: #ffffff } 
		.s4 { fill: #ffffff;stroke: #ffffff;stroke-linejoin: round;stroke-width: 7.2 } 
		.s5 { fill: none;stroke: #ffffff;stroke-width: 6.7 } 
	</style>
  <g
     id="g1"
     transform="matrix(0.82646719,0,0,0.91804318,0.31392067,33.770428)">
    <path
       id="path1"
       fill-rule="evenodd"
       class="s0"
       d="m 95,3.2 63.8,-1.1 q 4.7,0 9.5,-0.1 4.8,0 9.5,0 4.8,0 9.5,0.1 4.8,0.1 9.5,0.2 l 54.1,1.3 q 2.3,0 4.5,0.5 2.3,0.4 4.4,1.2 2.1,0.8 4.1,2 2,1.2 3.7,2.6 l 0.6,0.5 q 0.9,0.8 1.8,1.6 0.9,0.8 1.8,1.7 0.8,0.8 1.6,1.7 0.9,0.8 1.7,1.7 l 7.5,8.5 q 1.5,1.7 2.8,3.5 1.4,1.8 2.5,3.7 1.2,1.9 2.2,4 1,2 1.9,4 l 10.6,26.5 3.9,16.3 4.2,-9.4 q 0.4,-0.8 0.8,-1.6 0.5,-0.7 1.1,-1.4 0.6,-0.6 1.2,-1.2 0.7,-0.6 1.4,-1.1 1.5,-0.7 3,-1.1 1.6,-0.4 3.2,-0.5 1.6,0 3.2,0.3 1.6,0.4 3,1 c 4,1.6 9.8,5.3 12.7,8.6 1.7,1.9 2.6,3.1 3.4,4.2 1.5,2.2 1.1,5.2 -1,6.9 q -1.1,0.8 -2.2,1.5 -1.1,0.7 -2.3,1.2 -1.3,0.6 -2.5,1 -1.3,0.4 -2.6,0.6 l -22.1,4.1 15.2,27.8 q 1.3,2.5 2.4,5.1 1,2.5 1.7,5.2 0.7,2.7 1.1,5.5 0.4,2.7 0.5,5.5 l 1.2,57 q 0,0.8 -0.1,1.7 -0.1,0.8 -0.3,1.6 -0.2,0.8 -0.6,1.6 -0.3,0.8 -0.8,1.5 l -0.8,1.3 -0.1,21.3 q 0,0.6 -0.2,1.3 -0.2,0.6 -0.5,1.1 -0.3,0.6 -0.7,1 -0.4,0.5 -0.9,0.8 l -0.1,0.1 q -0.5,0.3 -1.1,0.6 -0.6,0.3 -1.2,0.5 -0.7,0.2 -1.3,0.2 -0.7,0.1 -1.4,0.1 l -35.4,-0.1 -0.2,-0.1 q -1,-0.5 -1.8,-1.3 -0.9,-0.8 -1.5,-1.8 -0.6,-1 -0.9,-2.1 -0.3,-1.1 -0.3,-2.2 l 0.1,-9.1 -223.5,-1.1 0.2,12.3 -1.9,3.1 q -0.4,0.7 -1,1.2 -0.6,0.5 -1.3,0.9 -0.6,0.4 -1.4,0.6 -0.8,0.2 -1.5,0.2 L 17.7,237.4 16,236.2 q -0.9,-0.6 -1.7,-1.5 -0.7,-0.8 -1.2,-1.8 -0.6,-1 -0.8,-2.1 -0.3,-1.1 -0.3,-2.2 l -0.1,-19.4 -0.4,-63.8 q 0,-1.8 0.2,-3.7 0.2,-1.8 0.6,-3.6 0.4,-1.8 1,-3.5 0.6,-1.7 1.5,-3.4 L 31.5,97.7 q 0.3,-0.5 0.3,-1.2 0,-0.6 -0.3,-1.2 Q 31.2,94.8 30.7,94.4 30.2,94 29.5,93.9 L 5.1,90.4 Q 4.4,90.3 3.9,89.9 3.3,89.6 2.8,89.1 2.4,88.6 2.2,87.9 2,87.3 2,86.6 2.1,85.6 2.4,84.7 2.7,83.8 3.1,82.9 3.6,82 4.2,81.3 4.9,80.6 5.7,80 l 3.8,-3.2 q 0.8,-0.6 1.6,-1.3 0.9,-0.6 1.7,-1.2 0.9,-0.5 1.8,-1.1 0.8,-0.5 1.7,-1 l 3.6,-1.9 q 0.9,-0.5 1.9,-0.8 0.9,-0.4 1.9,-0.5 1,-0.2 2,-0.2 1,0 2,0.1 l 4.3,0.6 q 0.7,0.1 1.3,0.4 0.6,0.3 1.1,0.7 0.4,0.4 0.8,0.9 0.4,0.6 0.5,1.2 L 38.9,83 47.6,56.3 q 0.7,-2 1.5,-4 0.7,-2 1.5,-4 0.9,-2 1.8,-3.9 0.9,-2 1.9,-3.9 L 60.5,28.8 Q 61.2,27.4 62.1,26 63,24.6 64,23.3 65,22 66.1,20.8 67.2,19.6 68.4,18.5 L 77,10.4 Q 78.9,8.7 80.9,7.4 83,6 85.3,5.1 87.6,4.2 90.1,3.7 92.5,3.2 95,3.2 Z"
       style="stroke-width:4.40845956;stroke-dasharray:none" />
    <g
       id="path7">
      <path
         id="path8"
         fill-rule="evenodd"
         class="s1"
         d="M 98.8,150.9 H 246 l 4,1.4 1.2,5.2 v 12.2 l -2.6,5 -5.4,3.7 -139.7,0.2 -5.5,-2.1 -3.8,-4.2 -0.6,-16.2 0.4,-3 2,-2 z" />
      <path
         id="path9"
         fill-rule="evenodd"
         class="s2"
         d="m 246.1,150.4 2.4,0.8 q 0.5,0.2 0.9,0.4 0.4,0.3 0.7,0.6 0.3,0.4 0.5,0.8 0.2,0.4 0.3,0.9 l 0.8,3.6 v 7.8 q 0.1,1 0,1.9 -0.1,1 -0.3,1.9 -0.2,1 -0.5,1.9 -0.3,0.9 -0.7,1.8 -0.3,0.5 -0.6,1 -0.4,0.5 -0.7,1 -0.4,0.5 -0.9,1 -0.4,0.4 -0.9,0.8 -0.7,0.6 -1.6,1.1 -0.8,0.5 -1.7,0.8 -0.9,0.3 -1.9,0.5 -1,0.2 -1.9,0.2 l -136.6,-0.1 -3.9,-1.5 q -0.5,-0.1 -0.9,-0.4 -0.4,-0.2 -0.8,-0.4 -0.3,-0.3 -0.7,-0.6 -0.3,-0.3 -0.6,-0.6 L 95,174 q -0.3,-0.4 -0.6,-0.8 -0.2,-0.4 -0.4,-0.8 -0.2,-0.5 -0.3,-1 -0.1,-0.4 -0.1,-0.9 l -0.5,-14.4 0.1,-1.4 q 0.1,-0.4 0.2,-0.9 0.2,-0.4 0.4,-0.8 0.2,-0.4 0.4,-0.8 0.3,-0.4 0.6,-0.7 l 1,-0.9 3,-0.2 z m -148.7,1.1 q -0.3,0 -0.6,0.1 -0.2,0 -0.5,0.1 -0.2,0.2 -0.5,0.3 -0.2,0.2 -0.4,0.4 l -0.9,0.9 -0.4,2.8 0.5,13.3 q 0,0.6 0.1,1.3 0.2,0.6 0.4,1.2 0.3,0.6 0.6,1.2 0.4,0.5 0.8,1 l 0.8,0.9 q 0.2,0.3 0.5,0.5 0.3,0.2 0.6,0.5 0.3,0.2 0.7,0.3 0.3,0.2 0.7,0.3 l 1.6,0.6 q 0.5,0.2 1.1,0.4 0.5,0.1 1.1,0.3 0.6,0.1 1.2,0.1 0.5,0.1 1.1,0.1 L 239,177.9 q 0.9,0 1.8,-0.1 0.9,-0.1 1.8,-0.4 0.8,-0.2 1.7,-0.6 0.8,-0.4 1.6,-0.8 0.6,-0.4 1.1,-0.9 0.5,-0.4 1,-1 0.5,-0.5 0.9,-1.1 0.4,-0.5 0.7,-1.2 0.3,-0.5 0.5,-1.1 0.2,-0.6 0.4,-1.2 0.1,-0.6 0.2,-1.3 0.1,-0.6 0.1,-1.2 v -9.4 l -0.8,-3.5 q -0.1,-0.3 -0.3,-0.6 -0.1,-0.3 -0.4,-0.6 -0.2,-0.2 -0.5,-0.4 -0.2,-0.2 -0.6,-0.3 l -2.3,-0.8 H 98.8 Z"
         style="stroke-width:4.40845956;stroke-dasharray:none" />
    </g>
    <g
       id="path10">
      <path
         id="path11"
         fill-rule="evenodd"
         class="s1"
         d="m 29.3,127.8 9.2,-4.5 8.3,-1.2 12.5,3.7 10,9.2 7.5,11.1 2.5,5.8 -0.8,4.2 -4.3,2.9 -7.4,0.9 -11.5,-1.5 -12.8,-6.3 -8.9,-6.5 -5.7,-6.6 -1.4,-4.9 2,-4.3 z" />
      <path
         id="path12"
         fill-rule="evenodd"
         class="s3"
         d="m 45.1,121.9 q 0.8,0 1.7,0.1 0.8,0 1.7,0.2 0.8,0.2 1.6,0.4 l 5.2,1.5 q 1.1,0.3 2.1,0.8 1,0.4 1.9,0.9 1,0.6 1.9,1.2 0.9,0.7 1.7,1.4 l 4.1,3.7 q 0.7,0.7 1.3,1.3 0.6,0.7 1.2,1.4 0.7,0.7 1.2,1.5 0.6,0.7 1.1,1.5 l 3.5,5.3 q 0.5,0.7 0.9,1.4 0.5,0.7 0.9,1.5 0.4,0.7 0.8,1.5 0.4,0.7 0.7,1.5 l 0.3,0.7 q 0.2,0.5 0.4,1 0.1,0.5 0.2,1 0.1,0.6 0.1,1.1 -0.1,0.6 -0.2,1.1 -0.1,0.6 -0.3,1.2 -0.2,0.5 -0.6,1.1 -0.3,0.5 -0.8,0.9 -0.4,0.5 -0.9,0.8 l -0.3,0.1 q -0.5,0.4 -1.1,0.7 -0.5,0.3 -1.1,0.5 -0.6,0.2 -1.3,0.4 -0.6,0.1 -1.2,0.2 l -5,0.6 -11.6,-1.5 -13,-6.3 -7.1,-5.3 q -0.4,-0.3 -0.9,-0.7 -0.4,-0.4 -0.9,-0.8 -0.4,-0.4 -0.8,-0.8 -0.4,-0.4 -0.8,-0.8 L 29,141 q -0.4,-0.4 -0.7,-0.9 -0.4,-0.5 -0.6,-1 -0.3,-0.5 -0.5,-1 -0.3,-0.6 -0.4,-1.1 l -0.3,-0.9 q -0.1,-0.5 -0.2,-1 0,-0.5 0,-1 0,-0.5 0.2,-0.9 0.1,-0.5 0.3,-1 l 1.2,-2.6 0.3,-0.6 q 0.1,-0.4 0.3,-0.7 0.3,-0.3 0.5,-0.6 0.3,-0.3 0.6,-0.5 0.4,-0.3 0.7,-0.5 l 5.1,-2.5 q 0.7,-0.4 1.4,-0.6 0.7,-0.3 1.5,-0.6 0.7,-0.2 1.5,-0.4 0.8,-0.1 1.5,-0.2 l 2,-0.3 q 0.8,-0.1 1.7,-0.2 z m 3.5,1.4 q -0.9,-0.2 -1.9,-0.2 -1,-0.1 -2,-0.1 -1,0 -1.9,0.2 l -4.2,0.6 -5.3,2.6 q -0.7,0.3 -1.3,0.6 -0.7,0.4 -1.2,0.8 -0.6,0.5 -1.1,1.1 -0.4,0.5 -0.8,1.2 l -1.1,2.3 q -0.2,0.4 -0.3,0.9 -0.1,0.4 -0.2,0.9 0,0.5 0.1,0.9 0,0.5 0.1,0.9 l 0.8,2.7 5.6,6.5 8.8,6.5 12.8,6.2 8.2,1.1 q 0.7,0.1 1.5,0.1 0.8,0.1 1.6,0.1 0.7,0 1.5,-0.1 0.8,0 1.6,-0.1 l 1.7,-0.2 q 0.6,-0.1 1.2,-0.2 0.6,-0.1 1.1,-0.3 0.6,-0.3 1.1,-0.5 0.5,-0.3 1,-0.6 l 0.6,-0.4 q 0.4,-0.2 0.7,-0.5 0.2,-0.3 0.5,-0.6 0.2,-0.4 0.3,-0.7 0.2,-0.4 0.3,-0.8 l 0.1,-0.5 q 0.1,-0.4 0.1,-0.9 0,-0.4 -0.1,-0.9 0,-0.4 -0.1,-0.8 -0.1,-0.4 -0.3,-0.8 l -1.8,-3.9 -5.3,-8.1 q -0.5,-0.7 -1.1,-1.4 -0.5,-0.8 -1.1,-1.4 -0.6,-0.7 -1.2,-1.4 -0.7,-0.6 -1.3,-1.2 l -4.7,-4.3 q -0.6,-0.5 -1.3,-1 -0.7,-0.5 -1.4,-1 -0.8,-0.4 -1.5,-0.7 -0.8,-0.4 -1.7,-0.6 l -5.2,-1.5 q -0.9,-0.3 -1.9,-0.5 z" />
      <path
         id="path13"
         fill-rule="evenodd"
         class="s4"
         d="m 45.1,121.9 q 0.8,0 1.7,0.1 0.8,0 1.7,0.2 0.8,0.2 1.6,0.4 l 5.2,1.5 q 1.1,0.3 2.1,0.8 1,0.4 1.9,0.9 1,0.6 1.9,1.2 0.9,0.7 1.7,1.4 l 4.1,3.7 q 0.7,0.7 1.3,1.3 0.6,0.7 1.2,1.4 0.7,0.7 1.2,1.5 0.6,0.7 1.1,1.5 l 3.5,5.3 q 0.5,0.7 0.9,1.4 0.5,0.7 0.9,1.5 0.4,0.7 0.8,1.5 0.4,0.7 0.7,1.5 l 0.3,0.7 q 0.2,0.5 0.4,1 0.1,0.5 0.2,1 0.1,0.6 0.1,1.1 -0.1,0.6 -0.2,1.1 -0.1,0.6 -0.3,1.2 -0.2,0.5 -0.6,1.1 -0.3,0.5 -0.8,0.9 -0.4,0.5 -0.9,0.8 l -0.3,0.1 q -0.5,0.4 -1.1,0.7 -0.5,0.3 -1.1,0.5 -0.6,0.2 -1.3,0.4 -0.6,0.1 -1.2,0.2 l -5,0.6 -11.6,-1.5 -13,-6.3 -7.1,-5.3 q -0.4,-0.3 -0.9,-0.7 -0.4,-0.4 -0.9,-0.8 -0.4,-0.4 -0.8,-0.8 -0.4,-0.4 -0.8,-0.8 L 29,141 q -0.4,-0.4 -0.7,-0.9 -0.4,-0.5 -0.6,-1 -0.3,-0.5 -0.5,-1 -0.3,-0.6 -0.4,-1.1 l -0.3,-0.9 q -0.1,-0.5 -0.2,-1 0,-0.5 0,-1 0,-0.5 0.2,-0.9 0.1,-0.5 0.3,-1 l 1.2,-2.6 0.3,-0.6 q 0.1,-0.4 0.3,-0.7 0.3,-0.3 0.5,-0.6 0.3,-0.3 0.6,-0.5 0.4,-0.3 0.7,-0.5 l 5.1,-2.5 q 0.7,-0.4 1.4,-0.6 0.7,-0.3 1.5,-0.6 0.7,-0.2 1.5,-0.4 0.8,-0.1 1.5,-0.2 l 2,-0.3 q 0.8,-0.1 1.7,-0.2 z m 3.5,1.4 q -0.9,-0.2 -1.9,-0.2 -1,-0.1 -2,-0.1 -1,0 -1.9,0.2 l -4.2,0.6 -5.3,2.6 q -0.7,0.3 -1.3,0.6 -0.7,0.4 -1.2,0.8 -0.6,0.5 -1.1,1.1 -0.4,0.5 -0.8,1.2 l -1.1,2.3 q -0.2,0.4 -0.3,0.9 -0.1,0.4 -0.2,0.9 0,0.5 0.1,0.9 0,0.5 0.1,0.9 l 0.8,2.7 5.6,6.5 8.8,6.5 12.8,6.2 8.2,1.1 q 0.7,0.1 1.5,0.1 0.8,0.1 1.6,0.1 0.7,0 1.5,-0.1 0.8,0 1.6,-0.1 l 1.7,-0.2 q 0.6,-0.1 1.2,-0.2 0.6,-0.1 1.1,-0.3 0.6,-0.3 1.1,-0.5 0.5,-0.3 1,-0.6 l 0.6,-0.4 q 0.4,-0.2 0.7,-0.5 0.2,-0.3 0.5,-0.6 0.2,-0.4 0.3,-0.7 0.2,-0.4 0.3,-0.8 l 0.1,-0.5 q 0.1,-0.4 0.1,-0.9 0,-0.4 -0.1,-0.9 0,-0.4 -0.1,-0.8 -0.1,-0.4 -0.3,-0.8 l -1.8,-3.9 -5.3,-8.1 q -0.5,-0.7 -1.1,-1.4 -0.5,-0.8 -1.1,-1.4 -0.6,-0.7 -1.2,-1.4 -0.7,-0.6 -1.3,-1.2 l -4.7,-4.3 q -0.6,-0.5 -1.3,-1 -0.7,-0.5 -1.4,-1 -0.8,-0.4 -1.5,-0.7 -0.8,-0.4 -1.7,-0.6 l -5.2,-1.5 q -0.9,-0.3 -1.9,-0.5 z"
         style="stroke-width:4.40845956;stroke-dasharray:none" />
    </g>
    <path
       id="path14"
       fill-rule="evenodd"
       class="s0"
       d="m 287.3,127 -0.5,0.3 q -0.8,0.4 -1.6,0.9 -0.7,0.5 -1.5,1.1 -0.7,0.5 -1.4,1.1 -0.7,0.6 -1.4,1.2 l -1.6,1.5 q -0.8,0.7 -1.5,1.4 -0.8,0.7 -1.4,1.5 -0.7,0.8 -1.4,1.6 -0.6,0.8 -1.2,1.6 l -2.2,3.2 q -0.5,0.7 -0.9,1.5 -0.5,0.7 -0.9,1.5 -0.4,0.8 -0.7,1.6 -0.4,0.8 -0.6,1.6 l -0.4,1.1 q -0.2,0.5 -0.3,1.1 -0.2,0.5 -0.3,1.1 -0.1,0.6 -0.1,1.1 -0.1,0.6 -0.1,1.2 0,0.5 0.2,1.1 0.2,0.5 0.4,1 0.3,0.5 0.7,0.9 0.4,0.4 0.9,0.8 0.6,0.3 1.4,0.6 0.7,0.4 1.4,0.6 0.8,0.2 1.5,0.3 0.8,0.1 1.6,0.2 l 1.2,0.1 q 0.7,0.1 1.4,0.1 0.6,0.1 1.3,0 0.7,0 1.4,0 0.7,-0.1 1.3,-0.2 l 4.6,-0.8 q 0.7,-0.1 1.4,-0.3 0.6,-0.1 1.3,-0.4 0.6,-0.2 1.3,-0.4 0.6,-0.3 1.2,-0.6 l 8.9,-4.3 q 1,-0.5 2,-1.1 1,-0.5 2,-1.1 0.9,-0.6 1.9,-1.2 0.9,-0.6 1.9,-1.3 0.9,-0.7 1.9,-1.5 0.9,-0.7 1.8,-1.5 0.9,-0.8 1.8,-1.7 0.8,-0.8 1.7,-1.7 l 0.5,-0.6 q 0.5,-0.4 0.9,-1 0.4,-0.5 0.7,-1.1 0.4,-0.5 0.6,-1.1 0.3,-0.7 0.5,-1.3 0.2,-0.5 0.3,-1.1 0.1,-0.5 0.1,-1.1 0,-0.5 -0.1,-1.1 -0.1,-0.6 -0.3,-1.1 l -0.1,-0.1 q -0.2,-0.7 -0.5,-1.3 -0.3,-0.5 -0.7,-1.1 -0.4,-0.5 -0.9,-1 -0.5,-0.4 -1,-0.8 l -2,-1.4 q -0.5,-0.4 -1.1,-0.8 -0.6,-0.3 -1.2,-0.6 -0.6,-0.3 -1.3,-0.5 -0.6,-0.3 -1.3,-0.5 L 308,124 q -0.7,-0.2 -1.5,-0.4 -0.7,-0.2 -1.5,-0.3 -0.7,-0.1 -1.5,-0.2 -0.8,-0.1 -1.5,-0.2 -1,0 -1.9,0 -1,0 -1.9,0.1 -0.9,0.1 -1.9,0.2 -0.9,0.2 -1.8,0.4 -1,0.3 -1.9,0.6 -0.9,0.4 -1.8,0.8 -0.9,0.4 -1.8,0.9 -0.9,0.5 -1.7,1.1 z"
       style="stroke-width:4.40845956;stroke-dasharray:none" />
    <path
       id="path15"
       fill-rule="evenodd"
       class="s5"
       d="m 83.8,30.3 c -0.866667,0.733333 -1.666667,1.533333 -2.4,2.4 -0.8,0.866667 -1.566667,1.733333 -2.3,2.6 l -2,2.8 c -0.666667,0.933333 -1.266667,1.866667 -1.8,2.8 l -1.8,2.9 -1.8,3 -1.8,3 c -0.6,1 -1.2,2.033333 -1.8,3.1 l -1.6,3 -4.7,8.9 c -0.533333,1 -1.066667,2.033333 -1.6,3.1 l -1.4,3.2 c -0.533333,1.066667 -1,2.133333 -1.4,3.2 -0.466667,1.066667 -0.9,2.133333 -1.3,3.2 l -1.8,5.1 238.2,0.2 -0.9,-4.6 c -0.13333,-0.533333 -0.26667,-1.033333 -0.4,-1.5 -0.0667,-0.466667 -0.16667,-0.933333 -0.3,-1.4 -0.2,-0.466667 -0.36667,-0.966667 -0.5,-1.5 -0.13333,-0.466667 -0.3,-0.933333 -0.5,-1.4 l -2.7,-7.5 -7.8,-15.5 -9.1,-11.8 -9,-9.5 -3.3,-1.6 c -0.86667,-0.4 -1.85891,-1.347982 -2.79225,-1.681315 -0.93333,-0.333333 -1.77442,-1.09827 -2.70775,-1.29827 -1,-0.266666 -1.87442,-0.632756 -2.80775,-0.76609 l -6.22864,-0.449135 -16.41709,0.03218 c -15.60565,-0.36542 2.68877,-0.183045 -13.69145,-0.183045 l -3.82055,0.07124 H 193.13046 L 164.8,22.160453 143.2873,21.877897 c -1.86666,-0.06667 -5.82063,0.01744 -7.6873,0.01744 -1.93333,0 -5.1379,0.201553 -7.00457,0.134887 l -5.07817,-0.234887 c -1.86667,-0.06667 -7.64703,-0.1 -9.5137,-0.1 L 99.939087,22.065113 98.5,22.7 c -1.4,0.333333 -2.766667,0.733333 -4.1,1.2 -1.266667,0.466667 -2.533333,1.033333 -3.8,1.7 -1.266667,0.6 -2.466667,1.3 -3.6,2.1 -1.133333,0.8 -2.2,1.666667 -3.2,2.6 z"
       style="stroke-width:4.40846;stroke-dasharray:none"
       sodipodi:nodetypes="cccscccscccccccccccccccccccscccccccccscccccccsc" />
  </g>
  <metadata
     id="metadata1">
    <rdf:RDF>
      <cc:Work
         rdf:about="">
        <dc:title>car-icon-svg</dc:title>
      </cc:Work>
    </rdf:RDF>
  </metadata>
</svg>
