<svg version="1.2" xmlns="http://www.w3.org/2000/svg" viewBox="0 0 350 240" width="365" height="250">
	<title>car-icon-svg</title>
	<style>
		.s0 { fill: none;stroke: #ffffff;stroke-width: 7.2 } 
		.s1 { fill: none } 
		.s2 { fill: #ffffff;stroke: #ffffff;stroke-width: 7.2 } 
		.s3 { fill: #ffffff } 
		.s4 { fill: #ffffff;stroke: #ffffff;stroke-linejoin: round;stroke-width: 7.2 } 
		.s5 { fill: none;stroke: #ffffff;stroke-width: 6.7 } 
	</style>
	<g id="g1">
		<path id="path1" fill-rule="evenodd" class="s0" d="m95 3.2l63.8-1.1q4.7 0 9.5-0.1 4.8 0 9.5 0 4.8 0 9.5 0.1 4.8 0.1 9.5 0.2l54.1 1.3q2.3 0 4.5 0.5 2.3 0.4 4.4 1.2 2.1 0.8 4.1 2 2 1.2 3.7 2.6l0.6 0.5q0.9 0.8 1.8 1.6 0.9 0.8 1.8 1.7 0.8 0.8 1.6 1.7 0.9 0.8 1.7 1.7l7.5 8.5q1.5 1.7 2.8 3.5 1.4 1.8 2.5 3.7 1.2 1.9 2.2 4 1 2 1.9 4l10.6 26.5 3.9 16.3 4.2-9.4q0.4-0.8 0.8-1.6 0.5-0.7 1.1-1.4 0.6-0.6 1.2-1.2 0.7-0.6 1.4-1.1 1.5-0.7 3-1.1 1.6-0.4 3.2-0.5 1.6 0 3.2 0.3 1.6 0.4 3 1c4 1.6 9.8 5.3 12.7 8.6 1.7 1.9 2.6 3.1 3.4 4.2 1.5 2.2 1.1 5.2-1 6.9q-1.1 0.8-2.2 1.5-1.1 0.7-2.3 1.2-1.3 0.6-2.5 1-1.3 0.4-2.6 0.6l-22.1 4.1 15.2 27.8q1.3 2.5 2.4 5.1 1 2.5 1.7 5.2 0.7 2.7 1.1 5.5 0.4 2.7 0.5 5.5l1.2 57q0 0.8-0.1 1.7-0.1 0.8-0.3 1.6-0.2 0.8-0.6 1.6-0.3 0.8-0.8 1.5l-0.8 1.3-0.1 21.3q0 0.6-0.2 1.3-0.2 0.6-0.5 1.1-0.3 0.6-0.7 1-0.4 0.5-0.9 0.8l-0.1 0.1q-0.5 0.3-1.1 0.6-0.6 0.3-1.2 0.5-0.7 0.2-1.3 0.2-0.7 0.1-1.4 0.1l-35.4-0.1-0.2-0.1q-1-0.5-1.8-1.3-0.9-0.8-1.5-1.8-0.6-1-0.9-2.1-0.3-1.1-0.3-2.2l0.1-9.1-223.5-1.1 0.2 12.3-1.9 3.1q-0.4 0.7-1 1.2-0.6 0.5-1.3 0.9-0.6 0.4-1.4 0.6-0.8 0.2-1.5 0.2l-34.9-0.6-1.7-1.2q-0.9-0.6-1.7-1.5-0.7-0.8-1.2-1.8-0.6-1-0.8-2.1-0.3-1.1-0.3-2.2l-0.1-19.4-0.4-63.8q0-1.8 0.2-3.7 0.2-1.8 0.6-3.6 0.4-1.8 1-3.5 0.6-1.7 1.5-3.4l16.7-33.5q0.3-0.5 0.3-1.2 0-0.6-0.3-1.2-0.3-0.5-0.8-0.9-0.5-0.4-1.2-0.5l-24.4-3.5q-0.7-0.1-1.2-0.5-0.6-0.3-1.1-0.8-0.4-0.5-0.6-1.2-0.2-0.6-0.2-1.3 0.1-1 0.4-1.9 0.3-0.9 0.7-1.8 0.5-0.9 1.1-1.6 0.7-0.7 1.5-1.3l3.8-3.2q0.8-0.6 1.6-1.3 0.9-0.6 1.7-1.2 0.9-0.5 1.8-1.1 0.8-0.5 1.7-1l3.6-1.9q0.9-0.5 1.9-0.8 0.9-0.4 1.9-0.5 1-0.2 2-0.2 1 0 2 0.1l4.3 0.6q0.7 0.1 1.3 0.4 0.6 0.3 1.1 0.7 0.4 0.4 0.8 0.9 0.4 0.6 0.5 1.2l3.2 10.3 8.7-26.7q0.7-2 1.5-4 0.7-2 1.5-4 0.9-2 1.8-3.9 0.9-2 1.9-3.9l6.2-11.7q0.7-1.4 1.6-2.8 0.9-1.4 1.9-2.7 1-1.3 2.1-2.5 1.1-1.2 2.3-2.3l8.6-8.1q1.9-1.7 3.9-3 2.1-1.4 4.4-2.3 2.3-0.9 4.8-1.4 2.4-0.5 4.9-0.5z"/>
		<g id="path7">
			<path id="path8" fill-rule="evenodd" class="s1" d="m98.8 150.9h147.2l4 1.4 1.2 5.2v12.2l-2.6 5-5.4 3.7-139.7 0.2-5.5-2.1-3.8-4.2-0.6-16.2 0.4-3 2-2z"/>
			<path id="path9" fill-rule="evenodd" class="s2" d="m246.1 150.4l2.4 0.8q0.5 0.2 0.9 0.4 0.4 0.3 0.7 0.6 0.3 0.4 0.5 0.8 0.2 0.4 0.3 0.9l0.8 3.6v7.8q0.1 1 0 1.9-0.1 1-0.3 1.9-0.2 1-0.5 1.9-0.3 0.9-0.7 1.8-0.3 0.5-0.6 1-0.4 0.5-0.7 1-0.4 0.5-0.9 1-0.4 0.4-0.9 0.8-0.7 0.6-1.6 1.1-0.8 0.5-1.7 0.8-0.9 0.3-1.9 0.5-1 0.2-1.9 0.2l-136.6-0.1-3.9-1.5q-0.5-0.1-0.9-0.4-0.4-0.2-0.8-0.4-0.3-0.3-0.7-0.6-0.3-0.3-0.6-0.6l-1.5-1.6q-0.3-0.4-0.6-0.8-0.2-0.4-0.4-0.8-0.2-0.5-0.3-1-0.1-0.4-0.1-0.9l-0.5-14.4 0.1-1.4q0.1-0.4 0.2-0.9 0.2-0.4 0.4-0.8 0.2-0.4 0.4-0.8 0.3-0.4 0.6-0.7l1-0.9 3-0.2zm-148.7 1.1q-0.3 0-0.6 0.1-0.2 0-0.5 0.1-0.2 0.2-0.5 0.3-0.2 0.2-0.4 0.4l-0.9 0.9-0.4 2.8 0.5 13.3q0 0.6 0.1 1.3 0.2 0.6 0.4 1.2 0.3 0.6 0.6 1.2 0.4 0.5 0.8 1l0.8 0.9q0.2 0.3 0.5 0.5 0.3 0.2 0.6 0.5 0.3 0.2 0.7 0.3 0.3 0.2 0.7 0.3l1.6 0.6q0.5 0.2 1.1 0.4 0.5 0.1 1.1 0.3 0.6 0.1 1.2 0.1 0.5 0.1 1.1 0.1l133.1-0.2q0.9 0 1.8-0.1 0.9-0.1 1.8-0.4 0.8-0.2 1.7-0.6 0.8-0.4 1.6-0.8 0.6-0.4 1.1-0.9 0.5-0.4 1-1 0.5-0.5 0.9-1.1 0.4-0.5 0.7-1.2 0.3-0.5 0.5-1.1 0.2-0.6 0.4-1.2 0.1-0.6 0.2-1.3 0.1-0.6 0.1-1.2v-9.4l-0.8-3.5q-0.1-0.3-0.3-0.6-0.1-0.3-0.4-0.6-0.2-0.2-0.5-0.4-0.2-0.2-0.6-0.3l-2.3-0.8h-147.1z"/>
		</g>
		<g id="path10">
			<path id="path11" fill-rule="evenodd" class="s1" d="m29.3 127.8l9.2-4.5 8.3-1.2 12.5 3.7 10 9.2 7.5 11.1 2.5 5.8-0.8 4.2-4.3 2.9-7.4 0.9-11.5-1.5-12.8-6.3-8.9-6.5-5.7-6.6-1.4-4.9 2-4.3z"/>
			<path id="path12" fill-rule="evenodd" class="s3" d="m45.1 121.9q0.8 0 1.7 0.1 0.8 0 1.7 0.2 0.8 0.2 1.6 0.4l5.2 1.5q1.1 0.3 2.1 0.8 1 0.4 1.9 0.9 1 0.6 1.9 1.2 0.9 0.7 1.7 1.4l4.1 3.7q0.7 0.7 1.3 1.3 0.6 0.7 1.2 1.4 0.7 0.7 1.2 1.5 0.6 0.7 1.1 1.5l3.5 5.3q0.5 0.7 0.9 1.4 0.5 0.7 0.9 1.5 0.4 0.7 0.8 1.5 0.4 0.7 0.7 1.5l0.3 0.7q0.2 0.5 0.4 1 0.1 0.5 0.2 1 0.1 0.6 0.1 1.1-0.1 0.6-0.2 1.1-0.1 0.6-0.3 1.2-0.2 0.5-0.6 1.1-0.3 0.5-0.8 0.9-0.4 0.5-0.9 0.8l-0.3 0.1q-0.5 0.4-1.1 0.7-0.5 0.3-1.1 0.5-0.6 0.2-1.3 0.4-0.6 0.1-1.2 0.2l-5 0.6-11.6-1.5-13-6.3-7.1-5.3q-0.4-0.3-0.9-0.7-0.4-0.4-0.9-0.8-0.4-0.4-0.8-0.8-0.4-0.4-0.8-0.8l-2.7-3.2q-0.4-0.4-0.7-0.9-0.4-0.5-0.6-1-0.3-0.5-0.5-1-0.3-0.6-0.4-1.1l-0.3-0.9q-0.1-0.5-0.2-1 0-0.5 0-1 0-0.5 0.2-0.9 0.1-0.5 0.3-1l1.2-2.6 0.3-0.6q0.1-0.4 0.3-0.7 0.3-0.3 0.5-0.6 0.3-0.3 0.6-0.5 0.4-0.3 0.7-0.5l5.1-2.5q0.7-0.4 1.4-0.6 0.7-0.3 1.5-0.6 0.7-0.2 1.5-0.4 0.8-0.1 1.5-0.2l2-0.3q0.8-0.1 1.7-0.2zm3.5 1.4q-0.9-0.2-1.9-0.2-1-0.1-2-0.1-1 0-1.9 0.2l-4.2 0.6-5.3 2.6q-0.7 0.3-1.3 0.6-0.7 0.4-1.2 0.8-0.6 0.5-1.1 1.1-0.4 0.5-0.8 1.2l-1.1 2.3q-0.2 0.4-0.3 0.9-0.1 0.4-0.2 0.9 0 0.5 0.1 0.9 0 0.5 0.1 0.9l0.8 2.7 5.6 6.5 8.8 6.5 12.8 6.2 8.2 1.1q0.7 0.1 1.5 0.1 0.8 0.1 1.6 0.1 0.7 0 1.5-0.1 0.8 0 1.6-0.1l1.7-0.2q0.6-0.1 1.2-0.2 0.6-0.1 1.1-0.3 0.6-0.3 1.1-0.5 0.5-0.3 1-0.6l0.6-0.4q0.4-0.2 0.7-0.5 0.2-0.3 0.5-0.6 0.2-0.4 0.3-0.7 0.2-0.4 0.3-0.8l0.1-0.5q0.1-0.4 0.1-0.9 0-0.4-0.1-0.9 0-0.4-0.1-0.8-0.1-0.4-0.3-0.8l-1.8-3.9-5.3-8.1q-0.5-0.7-1.1-1.4-0.5-0.8-1.1-1.4-0.6-0.7-1.2-1.4-0.7-0.6-1.3-1.2l-4.7-4.3q-0.6-0.5-1.3-1-0.7-0.5-1.4-1-0.8-0.4-1.5-0.7-0.8-0.4-1.7-0.6l-5.2-1.5q-0.9-0.3-1.9-0.5z"/>
			<path id="path13" fill-rule="evenodd" class="s4" d="m45.1 121.9q0.8 0 1.7 0.1 0.8 0 1.7 0.2 0.8 0.2 1.6 0.4l5.2 1.5q1.1 0.3 2.1 0.8 1 0.4 1.9 0.9 1 0.6 1.9 1.2 0.9 0.7 1.7 1.4l4.1 3.7q0.7 0.7 1.3 1.3 0.6 0.7 1.2 1.4 0.7 0.7 1.2 1.5 0.6 0.7 1.1 1.5l3.5 5.3q0.5 0.7 0.9 1.4 0.5 0.7 0.9 1.5 0.4 0.7 0.8 1.5 0.4 0.7 0.7 1.5l0.3 0.7q0.2 0.5 0.4 1 0.1 0.5 0.2 1 0.1 0.6 0.1 1.1-0.1 0.6-0.2 1.1-0.1 0.6-0.3 1.2-0.2 0.5-0.6 1.1-0.3 0.5-0.8 0.9-0.4 0.5-0.9 0.8l-0.3 0.1q-0.5 0.4-1.1 0.7-0.5 0.3-1.1 0.5-0.6 0.2-1.3 0.4-0.6 0.1-1.2 0.2l-5 0.6-11.6-1.5-13-6.3-7.1-5.3q-0.4-0.3-0.9-0.7-0.4-0.4-0.9-0.8-0.4-0.4-0.8-0.8-0.4-0.4-0.8-0.8l-2.7-3.2q-0.4-0.4-0.7-0.9-0.4-0.5-0.6-1-0.3-0.5-0.5-1-0.3-0.6-0.4-1.1l-0.3-0.9q-0.1-0.5-0.2-1 0-0.5 0-1 0-0.5 0.2-0.9 0.1-0.5 0.3-1l1.2-2.6 0.3-0.6q0.1-0.4 0.3-0.7 0.3-0.3 0.5-0.6 0.3-0.3 0.6-0.5 0.4-0.3 0.7-0.5l5.1-2.5q0.7-0.4 1.4-0.6 0.7-0.3 1.5-0.6 0.7-0.2 1.5-0.4 0.8-0.1 1.5-0.2l2-0.3q0.8-0.1 1.7-0.2zm3.5 1.4q-0.9-0.2-1.9-0.2-1-0.1-2-0.1-1 0-1.9 0.2l-4.2 0.6-5.3 2.6q-0.7 0.3-1.3 0.6-0.7 0.4-1.2 0.8-0.6 0.5-1.1 1.1-0.4 0.5-0.8 1.2l-1.1 2.3q-0.2 0.4-0.3 0.9-0.1 0.4-0.2 0.9 0 0.5 0.1 0.9 0 0.5 0.1 0.9l0.8 2.7 5.6 6.5 8.8 6.5 12.8 6.2 8.2 1.1q0.7 0.1 1.5 0.1 0.8 0.1 1.6 0.1 0.7 0 1.5-0.1 0.8 0 1.6-0.1l1.7-0.2q0.6-0.1 1.2-0.2 0.6-0.1 1.1-0.3 0.6-0.3 1.1-0.5 0.5-0.3 1-0.6l0.6-0.4q0.4-0.2 0.7-0.5 0.2-0.3 0.5-0.6 0.2-0.4 0.3-0.7 0.2-0.4 0.3-0.8l0.1-0.5q0.1-0.4 0.1-0.9 0-0.4-0.1-0.9 0-0.4-0.1-0.8-0.1-0.4-0.3-0.8l-1.8-3.9-5.3-8.1q-0.5-0.7-1.1-1.4-0.5-0.8-1.1-1.4-0.6-0.7-1.2-1.4-0.7-0.6-1.3-1.2l-4.7-4.3q-0.6-0.5-1.3-1-0.7-0.5-1.4-1-0.8-0.4-1.5-0.7-0.8-0.4-1.7-0.6l-5.2-1.5q-0.9-0.3-1.9-0.5z"/>
		</g>
		<path id="path14" fill-rule="evenodd" class="s0" d="m287.3 127l-0.5 0.3q-0.8 0.4-1.6 0.9-0.7 0.5-1.5 1.1-0.7 0.5-1.4 1.1-0.7 0.6-1.4 1.2l-1.6 1.5q-0.8 0.7-1.5 1.4-0.8 0.7-1.4 1.5-0.7 0.8-1.4 1.6-0.6 0.8-1.2 1.6l-2.2 3.2q-0.5 0.7-0.9 1.5-0.5 0.7-0.9 1.5-0.4 0.8-0.7 1.6-0.4 0.8-0.6 1.6l-0.4 1.1q-0.2 0.5-0.3 1.1-0.2 0.5-0.3 1.1-0.1 0.6-0.1 1.1-0.1 0.6-0.1 1.2 0 0.5 0.2 1.1 0.2 0.5 0.4 1 0.3 0.5 0.7 0.9 0.4 0.4 0.9 0.8 0.6 0.3 1.4 0.6 0.7 0.4 1.4 0.6 0.8 0.2 1.5 0.3 0.8 0.1 1.6 0.2l1.2 0.1q0.7 0.1 1.4 0.1 0.6 0.1 1.3 0 0.7 0 1.4 0 0.7-0.1 1.3-0.2l4.6-0.8q0.7-0.1 1.4-0.3 0.6-0.1 1.3-0.4 0.6-0.2 1.3-0.4 0.6-0.3 1.2-0.6l8.9-4.3q1-0.5 2-1.1 1-0.5 2-1.1 0.9-0.6 1.9-1.2 0.9-0.6 1.9-1.3 0.9-0.7 1.9-1.5 0.9-0.7 1.8-1.5 0.9-0.8 1.8-1.7 0.8-0.8 1.7-1.7l0.5-0.6q0.5-0.4 0.9-1 0.4-0.5 0.7-1.1 0.4-0.5 0.6-1.1 0.3-0.7 0.5-1.3 0.2-0.5 0.3-1.1 0.1-0.5 0.1-1.1 0-0.5-0.1-1.1-0.1-0.6-0.3-1.1l-0.1-0.1q-0.2-0.7-0.5-1.3-0.3-0.5-0.7-1.1-0.4-0.5-0.9-1-0.5-0.4-1-0.8l-2-1.4q-0.5-0.4-1.1-0.8-0.6-0.3-1.2-0.6-0.6-0.3-1.3-0.5-0.6-0.3-1.3-0.5l-0.8-0.2q-0.7-0.2-1.5-0.4-0.7-0.2-1.5-0.3-0.7-0.1-1.5-0.2-0.8-0.1-1.5-0.2-1 0-1.9 0-1 0-1.9 0.1-0.9 0.1-1.9 0.2-0.9 0.2-1.8 0.4-1 0.3-1.9 0.6-0.9 0.4-1.8 0.8-0.9 0.4-1.8 0.9-0.9 0.5-1.7 1.1z"/>
		<path id="path15" fill-rule="evenodd" class="s5" d="m83.8 30.3q-1.3 1.1-2.4 2.4-1.2 1.3-2.3 2.6-1 1.4-2 2.8-1 1.4-1.8 2.8l-1.8 2.9q-0.9 1.5-1.8 3-0.9 1.5-1.8 3-0.9 1.5-1.8 3.1-0.8 1.5-1.6 3l-4.7 8.9q-0.8 1.5-1.6 3.1-0.7 1.6-1.4 3.2-0.8 1.6-1.4 3.2-0.7 1.6-1.3 3.2l-1.8 5.1 238.2 0.2-0.9-4.6q-0.2-0.8-0.4-1.5-0.1-0.7-0.3-1.4-0.3-0.7-0.5-1.5-0.2-0.7-0.5-1.4l-2.7-7.5-7.8-15.5-9.1-11.8-9-9.5-3.3-1.6q-1.3-0.6-2.7-1.1-1.4-0.5-2.8-0.8-1.5-0.4-2.9-0.6-1.5-0.1-3-0.2l-19-0.3q-2.1 0-4.1 0-2.1-0.1-4.2-0.1-2 0-4.1 0-2 0-4.1 0h-18.1l-28.2-0.3-23.6-0.4q-2.8-0.1-5.6-0.1-2.9 0-5.7-0.1-2.8 0-5.6 0-2.8-0.1-5.6-0.1l-18.5-0.1-1.7 0.4q-2.1 0.5-4.1 1.2-1.9 0.7-3.8 1.7-1.9 0.9-3.6 2.1-1.7 1.2-3.2 2.6z"/>
	</g>
</svg>