<?xml version="1.0" encoding="UTF-8" standalone="no"?>
<!-- Created with Inkscape (http://www.inkscape.org/) -->

<svg
   version="1.1"
   id="svg1"
   width="300"
   height="300"
   viewBox="0 0 300 300"
   sodipodi:docname="download (1).png"
   xmlns:inkscape="http://www.inkscape.org/namespaces/inkscape"
   xmlns:sodipodi="http://sodipodi.sourceforge.net/DTD/sodipodi-0.dtd"
   xmlns="http://www.w3.org/2000/svg"
   xmlns:svg="http://www.w3.org/2000/svg">
  <defs
     id="defs1">
    <inkscape:path-effect
       effect="fillet_chamfer"
       id="path-effect8"
       is_visible="true"
       lpeversion="1"
       nodesatellites_param="F,0,0,1,0,0,0,1 @ F,0,0,1,0,3.8741251,0,1 @ F,0,0,1,0,11.421537,0,1 @ F,0,0,1,0,11.059317,0,1 @ F,0,0,1,0,9.2982647,0,1 @ F,0,0,1,0,9.3801725,0,1 @ F,0,0,1,0,6.9079561,0,1 @ F,0,0,1,0,11.684165,0,1 @ F,0,0,1,0,6.666323,0,1 @ F,0,0,1,0,4.8210424,0,1 @ F,0,0,1,0,6.1318045,0,1 @ F,0,0,1,0,0,0,1 @ F,0,0,1,0,0,0,1 @ F,0,0,1,0,0,0,1"
       radius="0"
       unit="px"
       method="auto"
       mode="F"
       chamfer_steps="1"
       flexible="false"
       use_knot_distance="true"
       apply_no_radius="true"
       apply_with_radius="true"
       only_selected="false"
       hide_knots="false" />
    <inkscape:path-effect
       effect="fillet_chamfer"
       id="path-effect7"
       is_visible="true"
       lpeversion="1"
       nodesatellites_param="F,0,0,1,0,0,0,1 @ F,0,0,1,0,3.178711,0,1 @ F,0,0,1,0,6.7974789,0,1 @ F,0,0,1,0,7.1283075,0,1 @ F,0,0,1,0,12.606376,0,1 @ F,0,0,1,0,3.8148001,0,1 @ F,0,0,1,0,4.7788911,0,1 @ F,0,0,1,0,7.422107,0,1 @ F,0,0,1,0,7.5197146,0,1 @ F,0,0,1,0,3.6756871,0,1 @ F,0,0,1,0,6.3729225,0,1 @ F,0,0,1,0,5.6280543,0,1 @ F,0,0,1,0,6.8804324,0,1 @ F,0,0,1,0,9.6093985,0,1 @ F,0,0,1,0,13.930622,0,1 @ F,0,0,1,0,9.7579365,0,1 @ F,0,0,1,0,9.8999394,0,1 @ F,0,0,1,0,8.7894666,0,1 @ F,0,1,1,0,9.3147274,0,1"
       radius="0"
       unit="px"
       method="auto"
       mode="F"
       chamfer_steps="1"
       flexible="false"
       use_knot_distance="true"
       apply_no_radius="true"
       apply_with_radius="true"
       only_selected="false"
       hide_knots="false" />
    <inkscape:path-effect
       effect="fillet_chamfer"
       id="path-effect6"
       is_visible="true"
       lpeversion="1"
       nodesatellites_param="F,0,0,1,0,0,0,1 @ F,0,0,1,0,3.5616013,0,1 @ F,0,0,1,0,4.3935144,0,1 @ F,0,0,1,0,6.6648305,0,1 @ F,0,0,1,0,7.595456,0,1 @ F,0,0,1,0,3.9228342,0,1 @ F,0,0,1,0,12.969469,0,1 @ F,0,0,1,0,9.2757837,0,1 @ F,0,0,1,0,7.8216603,0,1 @ F,0,0,1,0,5.8125981,0,1 @ F,0,0,1,0,6.8471258,0,1 @ F,0,0,1,0,9.3060971,0,1 @ F,0,0,1,0,0,0,1"
       radius="0"
       unit="px"
       method="auto"
       mode="F"
       chamfer_steps="1"
       flexible="false"
       use_knot_distance="true"
       apply_no_radius="true"
       apply_with_radius="true"
       only_selected="false"
       hide_knots="false" />
  </defs>
  <sodipodi:namedview
     id="namedview1"
     pagecolor="#ffffff"
     bordercolor="#000000"
     borderopacity="0.25"
     inkscape:showpageshadow="2"
     inkscape:pageopacity="0.0"
     inkscape:pagecheckerboard="0"
     inkscape:deskcolor="#d1d1d1" />
  <g
     inkscape:groupmode="layer"
     inkscape:label="Image"
     id="g1">
    <path
       style="fill:#e0e0e0;fill-opacity:0;stroke:#0e5f8b;stroke-width:10.6667;stroke-dasharray:none;stroke-opacity:1"
       d="m 194.98223,46.698697 6.3129,24.550179 a 0.0305082,0.0305082 166.03043 0 0 0.0592,-0.01473 l -3.399,-14.137902 a 31.0105,31.0105 59.766626 0 0 -9.94759,-17.06879 54.451589,54.451589 26.591369 0 0 -22.46624,-13.337363 36.46463,36.46463 5.6117684 0 0 -11.57174,-1.137019 55.35995,55.35995 174.83185 0 0 -9.19797,0.831925 65.971508,65.971508 162.28877 0 0 -16.09199,5.139087 22.989583,22.989583 141.40213 0 0 -9.09638,7.260991 l -0.5518,0.697001 a 300.45049,300.45049 127.44817 0 0 -5.86205,7.653902 l -1.56692,2.115342 a 29.435676,29.435676 114.76176 0 0 -5.02862,10.90203 l -1.35035,5.851518 -1.51618,11.421975 C 90.76966,61.228164 74.134086,39.06187 84.502405,52.965622"
       id="path1"
       sodipodi:nodetypes="cccccccccccccc"
       inkscape:path-effect="#path-effect8"
       inkscape:original-d="m 194.98223,46.698697 7.27771,28.302242 -6.97448,-29.009797 -7.27772,-5.963687 -13.7468,-10.107943 -10.91658,-4.043177 -11.72521,-0.404318 -12.12953,1.617271 -15.7684,6.469083 -7.68203,9.703626 -8.08636,10.916578 -2.72915,11.826294 -1.51618,11.421975 C 90.76966,61.228164 74.134086,39.06187 84.502405,52.965622" />
    <path
       style="fill:#e0e0e0;fill-opacity:0;stroke:#0e5f8b;stroke-width:10.0736;stroke-dasharray:none;stroke-opacity:1"
       d="M 134.11048,58.68042 C 150.68834,43.894075 114.02197,76.926665 103.97774,86.049788"
       id="path2"
       sodipodi:nodetypes="cc" />
    <ellipse
       style="fill:#e0e0e0;fill-opacity:0;stroke:#0e5f8b;stroke-width:10.6667;stroke-dasharray:none;stroke-opacity:1"
       id="path3"
       cx="113.10789"
       cy="128.77519"
       rx="23.24827"
       ry="23.450428" />
    <ellipse
       style="fill:#e0e0e0;fill-opacity:0;stroke:#0e5f8b;stroke-width:12.3129;stroke-dasharray:none;stroke-opacity:1"
       id="path4"
       cx="192.89003"
       cy="137.69049"
       rx="29.331503"
       ry="37.67923" />
    <path
       style="fill:#e0e0e0;fill-opacity:0;stroke:#0e5f8b;stroke-width:10.6667;stroke-dasharray:none;stroke-opacity:1"
       d="m 120.77258,282.99789 143.70706,0.41956 a 10.032898,10.032898 162.58758 0 0 5.7828,-1.8136 10.274531,10.274531 107.56926 0 0 2.44742,-7.72962 27.021304,27.021304 83.427652 0 0 -0.96728,-8.3954 49.364152,49.364152 65.982524 0 0 -7.13983,-16.02318 62.019121,62.019121 56.546989 0 0 -3.63567,-5.50269 l -4.64905,-6.39245 A 39.083443,39.083443 47.001449 0 0 249.848,230.6219 l -0.76559,-0.64309 A 84.001129,84.001129 34.980883 0 0 236.9671,221.5016 l -0.39356,-0.22659 a 255.89359,255.89359 28.248284 0 0 -13.24259,-7.11499 l -2.9247,-1.46235 a 21.458472,21.458472 16.845034 0 0 -6.93493,-2.09973 l -9.43624,-1.17953 a 129.89605,129.89605 4.3162214 0 0 -12.69443,-0.95811 l -3.36724,-0.0886 a 53.796172,53.796172 175.53499 0 0 -11.16104,0.87153 l -3.06257,0.56416 a 48.56434,48.56434 161.49874 0 0 -12.92062,4.32349 326.9206,326.9206 151.75114 0 0 -15.14129,8.13532 57.455534,57.455534 136.63577 0 0 -15.40219,14.54693 437.17501,437.17501 127.89476 0 0 -6.08618,7.81952 38.226441,38.226441 113.11691 0 0 -5.41132,12.67628 217.91345,217.91345 104.79256 0 0 -3.92633,14.86841 12.132499,12.132499 61.518012 0 0 5.83099,10.7474 z"
       id="path5"
       inkscape:path-effect="#path-effect7"
       inkscape:original-d="m 120.77258,282.99789 146.88576,0.42884 4.04317,-2.83023 1.21296,-8.08635 -2.02159,-12.12953 -7.68204,-13.34249 -9.70362,-13.34248 -10.10795,-8.49068 -13.34248,-7.68203 -12.93817,-6.46909 -19.40725,-2.4259 -15.36407,-0.40432 -15.36408,2.83022 -12.93817,6.46909 -14.95975,8.49067 -8.89499,10.91658 -8.49067,10.91658 -4.85182,15.76839 -3.01801,13.01174 z"
       sodipodi:nodetypes="cccccccccccccccccccc" />
    <path
       style="fill:#e0e0e0;fill-opacity:0;stroke:#0e5f8b;stroke-width:10.6667;stroke-dasharray:none;stroke-opacity:1"
       d="m 105.39906,256.92621 -49.642932,-0.38483 a 23.960084,23.960084 8.8990983 0 1 -6.960971,-1.08995 9.4634694,9.4634694 42.794902 0 1 -5.26706,-4.87648 18.6754,18.6754 82.183883 0 1 -1.23196,-8.97475 19.229812,19.229812 112.7388 0 1 3.058982,-7.29885 58.159743,58.159743 117.60875 0 1 3.511041,-6.7135 91.282009,91.282009 129.3109 0 1 15.668311,-19.1355 38.123733,38.123733 150.60173 0 1 12.81991,-7.22314 l 3.417997,-1.30902 a 38.981551,38.981551 170.38996 0 1 15.122381,-2.56049 383.13688,383.13688 0.86654352 0 0 11.604961,0.17553 l 3.01289,0 a 53.693875,53.693875 7.2672231 0 1 13.47513,1.71837 50.996094,50.996094 24.950608 0 1 12.55562,5.84161 l 4.73775,2.75095"
       id="path6"
       inkscape:path-effect="#path-effect6"
       inkscape:original-d="m 105.39906,256.92621 -53.204426,-0.41244 -6.598998,-2.06219 -3.299499,-6.18655 v -7.01144 l 4.536811,-10.31094 8.248747,-13.61043 13.610434,-12.78555 19.384558,-7.42388 13.610433,0.41244 h 15.67262 l 11.13581,2.88706 12.78556,7.42387" />
  </g>
</svg>
