<?xml version="1.0" encoding="UTF-8" standalone="no"?>
<svg
   version="1.0"
   width="300pt"
   height="300pt"
   viewBox="0 0 300 300"
   preserveAspectRatio="xMidYMid"
   id="svg4"
   sodipodi:docname="2655423.svg"
   xmlns:inkscape="http://www.inkscape.org/namespaces/inkscape"
   xmlns:sodipodi="http://sodipodi.sourceforge.net/DTD/sodipodi-0.dtd"
   xmlns="http://www.w3.org/2000/svg"
   xmlns:svg="http://www.w3.org/2000/svg">
  <defs
     id="defs4">
    <inkscape:path-effect
       effect="fillet_chamfer"
       id="path-effect13"
       is_visible="true"
       lpeversion="1"
       nodesatellites_param="F,0,0,1,0,0,0,1 @ F,0,0,1,0,0,0,1 @ F,0,0,1,0,4.0063543,0,1 @ F,0,0,1,0,3.0417626,0,1 @ F,0,0,1,0,3.1810338,0,1 @ F,0,0,1,0,3.0782516,0,1 @ F,0,0,1,0,0,0,1 @ F,0,0,1,0,5.078942,0,1 @ F,0,0,1,0,2.1307138,0,1 @ F,0,0,1,0,3.8500459,0,1 @ F,0,0,1,0,3.210213,0,1 @ F,0,0,1,0,3.853922,0,1"
       radius="0"
       unit="px"
       method="auto"
       mode="F"
       chamfer_steps="1"
       flexible="false"
       use_knot_distance="true"
       apply_no_radius="true"
       apply_with_radius="true"
       only_selected="false"
       hide_knots="false" />
    <inkscape:path-effect
       effect="fillet_chamfer"
       id="path-effect12"
       is_visible="true"
       lpeversion="1"
       nodesatellites_param="F,0,0,1,0,0,0,1 @ F,0,0,1,0,6.1325732,0,1 @ F,0,0,1,0,5.1399512,0,1 @ F,0,0,1,0,0,0,1 @ F,0,0,1,0,0,0,1 @ F,0,0,1,0,0,0,1"
       radius="0"
       unit="px"
       method="auto"
       mode="F"
       chamfer_steps="1"
       flexible="false"
       use_knot_distance="true"
       apply_no_radius="true"
       apply_with_radius="true"
       only_selected="false"
       hide_knots="false" />
    <inkscape:path-effect
       effect="fillet_chamfer"
       id="path-effect10"
       is_visible="true"
       lpeversion="1"
       nodesatellites_param="F,0,0,1,0,0,0,1 @ F,0,0,1,0,4.3337368,0,1 @ F,0,0,1,0,4.4374984,0,1 @ F,0,0,1,0,6.0537113,0,1 @ F,0,0,1,0,5.0189621,0,1 @ F,0,0,1,0,0,0,1 @ F,0,0,1,0,3.0232282,0,1 @ F,0,0,1,0,0,0,1 @ F,0,0,1,0,2.5361862,0,1 @ F,0,1,1,0,2.5361862,0,1 @ F,0,1,1,0,2.5361862,0,1 @ F,0,0,1,0,0,0,1 @ F,0,0,1,0,0,0,1 @ F,0,0,1,0,0,0,1 @ F,0,0,1,0,0,0,1 @ F,0,0,1,0,0,0,1 @ F,0,0,1,0,2.9905037,0,1 @ F,0,0,1,0,2.9905037,0,1 @ F,0,0,1,0,2.9905037,0,1 @ F,0,0,1,0,0,0,1 @ F,0,0,1,0,0,0,1 @ F,0,0,1,0,0,0,1 @ F,0,0,1,0,0,0,1 @ F,0,0,1,0,0,0,1 @ F,0,0,1,0,0,0,1 @ F,0,0,1,0,3.9291309,0,1 @ F,0,0,1,0,4.1848721,0,1 @ F,0,0,1,0,4.8372594,0,1 @ F,0,0,1,0,0,0,1 @ F,0,0,1,0,0,0,1"
       radius="0"
       unit="px"
       method="auto"
       mode="F"
       chamfer_steps="1"
       flexible="false"
       use_knot_distance="true"
       apply_no_radius="true"
       apply_with_radius="true"
       only_selected="false"
       hide_knots="false" />
    <inkscape:path-effect
       effect="fillet_chamfer"
       id="path-effect9"
       is_visible="true"
       lpeversion="1"
       nodesatellites_param="F,0,0,1,0,0,0,1 @ F,0,0,1,0,0,0,1 @ F,0,0,1,0,0,0,1 @ F,0,0,1,0,0,0,1 @ F,0,0,1,0,0.65306129,0,1 @ F,0,0,1,0,2.308473,0,1 @ F,0,0,1,0,2.9088215,0,1 @ F,0,0,1,0,2.7453433,0,1 @ F,0,0,1,0,3.3970575,0,1 @ F,0,0,1,0,2.6305986,0,1 @ F,0,0,1,0,4.1227274,0,1 @ F,0,0,1,0,2.4845778,0,1 @ F,0,0,1,0,2.777977,0,1 @ F,0,0,1,0,3.3970575,0,1 @ F,0,0,1,0,0,0,1 @ F,0,0,1,0,0,0,1 @ F,0,0,1,0,3.3067015,0,1 @ F,0,0,1,0,3.0915695,0,1 @ F,0,0,1,0,0,0,1 @ F,0,0,1,0,2.0169156,0,1 @ F,0,0,1,0,3.0915695,0,1 @ F,0,0,1,0,0,0,1 @ F,0,0,1,0,0,0,1 @ F,0,0,1,0,2.730332,0,1 @ F,0,0,1,0,2.9807241,0,1 @ F,0,0,1,0,0,0,1 @ F,0,1,1,0,5.9404496,0,1 @ F,0,0,1,0,0,0,1 @ F,0,0,1,0,0,0,1 @ F,0,0,1,0,3.1518867,0,1 @ F,0,0,1,0,3.1316437,0,1 @ F,0,0,1,0,5.9404496,0,1 @ F,0,0,1,0,0,0,1 @ F,0,0,1,0,0,0,1"
       radius="0"
       unit="px"
       method="auto"
       mode="F"
       chamfer_steps="1"
       flexible="false"
       use_knot_distance="true"
       apply_no_radius="true"
       apply_with_radius="true"
       only_selected="false"
       hide_knots="false" />
  </defs>
  <sodipodi:namedview
     id="namedview4"
     pagecolor="#ffffff"
     bordercolor="#000000"
     borderopacity="0.25"
     inkscape:showpageshadow="2"
     inkscape:pageopacity="0.0"
     inkscape:pagecheckerboard="0"
     inkscape:deskcolor="#d1d1d1"
     inkscape:document-units="pt"
     showgrid="false" />
  <path
     style="fill:#0e9f0d;fill-opacity:1;stroke:#0e9f0d;stroke-width:7.7691;stroke-opacity:1"
     d="m 13.972558,8.2918676 273.975032,-0.443632 8.09778,8.8727084 -0.44987,130.428866 -7.19803,7.09817 -124.61591,0.44364 -13.49631,27.50541 L 135.8892,155.13525 12.173045,154.24798 4.0752587,147.14981 V 15.83367 Z"
     id="path7" />
  <ellipse
     style="fill:#e0e0e0;fill-opacity:0;stroke:#ffffff;stroke-width:6.2241;stroke-opacity:1"
     id="path6-0"
     cx="132.98956"
     cy="113.31603"
     rx="11.365882"
     ry="11.405346" />
  <ellipse
     style="fill:#0e9f0d;fill-opacity:1;stroke:#0e9f0d;stroke-width:8.00002;stroke-opacity:1"
     id="path5"
     cx="150.51819"
     cy="246.31078"
     rx="51.069885"
     ry="47.166454" />
  <ellipse
     style="fill:#e0e0e0;fill-opacity:0;stroke:#ffffff;stroke-width:6.2241;stroke-opacity:1"
     id="path6"
     cx="48.703392"
     cy="113.5844"
     rx="11.365882"
     ry="11.405346" />
  <path
     style="fill:#ffffff;fill-opacity:1;stroke:#ffffff;stroke-width:8.00002;stroke-opacity:1"
     d="m 30.361566,74.753855 -13.5707,3.450175 0.230012,35.88185 10.325022,0.002 0.207322,-2.8013 a 6.974432,6.974432 99.582081 0 1 0.216471,-1.28229 l 0.156969,-0.58863 a 117.52593,117.52593 106.05673 0 1 1.27675,-4.43598 L 29.419758,104.28 a 16.419115,16.419115 117.22832 0 1 2.620977,-5.09367 l 0.417267,-0.548245 a 17.005548,17.005548 136.44524 0 1 3.928329,-3.734986 l 0.723018,-0.494768 a 12.493885,12.493885 160.82671 0 1 6.192426,-2.153195 l 0.996335,-0.06901 a 50.724862,50.724862 179.00628 0 1 5.253346,-0.09112 22.575529,22.575529 12.327481 0 1 7.850778,1.715691 l 0.565082,0.233827 a 12.479109,12.479109 33.739716 0 1 4.052654,2.706845 l 2.25912,2.25912 a 15.847546,15.847546 54.94258 0 1 3.143394,4.479666 l 0.829284,1.76914 a 21.123466,21.123466 74.021192 0 1 1.84657,6.44876 l 0.285292,2.37743 41.40213,-0.11501 0.10985,-3.0208 a 17.96105,17.96105 102.51421 0 1 1.40932,-6.34958 l 0.84075,-1.9859 a 10.805765,10.805765 128.91181 0 1 3.73396,-4.625595 l 4.25666,-2.994093 3.41203,-1.335147 a 15.541291,15.541291 166.02371 0 1 3.88186,-0.96615 l 0.9055,-0.10448 a 16.026423,16.026423 4.3366095 0 1 6.05382,0.45908 l 4.60776,1.25666 4.60024,2.300115 1.92197,1.808916 a 13.297464,13.297464 54.867429 0 1 3.07823,4.374594 l 1.83653,4.2178 a 14.007623,14.007623 78.48351 0 1 1.16414,5.7135 l -0.008,0.92002 a 457.92935,457.92935 0.56401615 0 1 7.85779,0.0773 l 9.91063,0.13908 -0.23001,-16.100825 -0.80947,-7.447119 a 10.438849,10.438849 66.995482 0 0 -2.35838,-5.554777 l -0.57762,-0.693144 a 27.721642,27.721642 43.749179 0 0 -4.49584,-4.303706 16.378683,16.378683 16.819392 0 0 -8.23738,-2.490053 l -5.60245,-0.672293 -99.825151,-1.150065 z"
     id="path8"
     inkscape:path-effect="#path-effect9"
     inkscape:original-d="m 30.361566,74.753855 -13.5707,3.450175 0.230012,35.88185 10.325022,0.002 0.255523,-3.45258 0.920048,-3.45017 1.757576,-5.68413 3.841635,-5.047499 5.792156,-3.96362 7.009582,-0.485539 6.670344,0.230018 6.670344,2.760142 5.980308,5.980308 3.450179,7.36038 0.690035,5.75029 41.40213,-0.11501 0.23002,-6.32532 3.33518,-7.877908 6.78534,-4.77274 5.29027,-2.070112 5.98031,-0.69003 7.59039,2.070105 4.60024,2.300115 3.9102,3.68019 4.1165,9.45401 -0.0338,3.90063 1.91793,-0.006 15.85049,0.22243 -0.23001,-16.100825 -1.15006,-10.58055 -4.60024,-5.520285 -4.83025,-3.68019 -11.50059,-1.380067 -99.825151,-1.150065 z"
     sodipodi:nodetypes="ccccccccccccccccccccccccccccccccccc" />
  <path
     style="fill:#ffffff;fill-opacity:1;stroke:#ffffff;stroke-width:8.00002;stroke-opacity:1"
     d="m 31.741637,70.613642 2.746775,-9.856073 a 66.138889,66.138889 109.32148 0 1 2.861654,-8.161793 l 1.853159,-4.350893 a 19.16429,19.16429 126.10752 0 1 5.095247,-6.985403 l 0.575274,-0.497535 a 27.408397,27.408397 151.59961 0 1 10.399592,-5.623129 34.290772,34.290772 172.39865 0 1 8.857951,-1.182115 l 8.55246,-0.144957 22.968589,-0.406524 a 18.962889,18.962889 8.0443772 0 1 5.912292,0.835589 l 3.09077,0.951006 3.36402,1.21105 a 17.400401,17.400401 28.091611 0 1 4.42804,2.363518 l 0.28669,0.211243 a 28.744773,28.744773 41.42655 0 1 3.78857,3.343195 l 0.87663,0.922771 a 17.00435,17.00435 54.951857 0 1 2.88102,4.107167 l 2.54597,5.091945 3.22016,9.660499 2.76014,10.810557 -14.72076,-0.230011 -6.44033,-17.940926 -1.28412,-2.801722 a 13.79545,13.79545 53.145405 0 0 -3.5059,-4.677134 10.850331,10.850331 25.268848 0 0 -4.048551,-1.911048 l -0.263786,-0.08116 a 44.785368,44.785368 13.282527 0 0 -5.808076,-1.371101 l -1.190395,-0.198399 h -3.9102 l -0.690037,1.840095 0.23001,26.681376 -7.13037,-0.460024 -0.23001,-28.751483 -11.956458,1.039692 a 18.41802,18.41802 162.98782 0 0 -7.349038,2.248534 16.821244,16.821244 136.87984 0 0 -5.250423,4.916726 35.43993,35.43993 118.47474 0 0 -4.354235,8.027939 l -3.291506,8.378378 -1.150059,4.140214 z"
     id="path9"
     inkscape:path-effect="#path-effect10"
     inkscape:original-d="m 31.741637,70.613642 3.910202,-14.030724 5.290273,-12.42064 8.510438,-7.36038 9.660498,-2.760142 13.570701,-0.230012 25.991344,-0.460024 5.980307,1.840095 5.75029,2.070106 4.37023,3.220167 4.37023,4.600237 3.68019,7.360379 3.22016,9.660499 2.76014,10.810557 -14.72076,-0.230011 -6.44033,-17.940926 -2.53013,-5.520284 -3.45018,-2.990155 -5.980308,-1.840095 -4.14021,-0.690035 h -3.9102 l -0.690037,1.840095 0.23001,26.681376 -7.13037,-0.460024 -0.23001,-28.751483 -15.870818,1.380071 -6.21032,3.450179 -5.06026,6.900355 -5.060262,12.880664 -1.150059,4.140214 z" />
  <path
     style="fill:#ffffff;fill-opacity:1;stroke:#ffffff;stroke-width:8.00002;stroke-opacity:1"
     d="m 234.38209,28.29146 -54.05279,20.471055 0.46002,21.161091 9.89052,-3.68019 1.15005,66.473434 28.63648,0.23001 -0.34501,-30.82159 h 26.45136 l 0.23001,30.82159 h 29.44152 l 0.23001,-66.933455 10.12052,3.68019 -0.23001,-20.701068 z"
     id="path10"
     sodipodi:nodetypes="cccccccccccccc" />
  <path
     style="fill:#ffffff;fill-opacity:0;stroke:#ffffff;stroke-width:8.00002;stroke-opacity:1"
     d="m 125.39771,263.31893 5.47785,-4.81521 a 17.037013,17.037013 118.88687 0 0 5.5749,-10.10438 l 0.49605,-3.10031 a 113.80512,113.80512 96.504254 0 0 1.16329,-10.20334 l 0.46199,-6.74499 h 14.47523 l -0.81322,38.22109"
     id="path11"
     inkscape:path-effect="#path-effect12"
     inkscape:original-d="m 125.39771,263.31893 10.08387,-8.86404 2.27699,-14.23126 0.81322,-11.87293 h 14.47523 l -0.81322,38.22109"
     sodipodi:nodetypes="cccccc"
     transform="translate(-10.120522)" />
  <path
     style="fill:#ffffff;fill-opacity:0;stroke:#ffffff;stroke-width:8.00002;stroke-opacity:1"
     d="m 162.64295,227.86277 v 35.29352 l 10.30648,-0.11712 a 9.7088025,9.7088025 156.92537 0 0 6.81428,-2.90297 5.9343826,5.9343826 106.93593 0 0 1.48656,-4.88183 7.1825532,7.1825532 59.419613 0 0 -2.79748,-4.73398 l -0.71658,-0.57118 a 12.332157,12.332157 24.543083 0 0 -5.43354,-2.48114 l -6.1629,-1.14532 2.81167,-0.087 a 16.52453,16.52453 161.1432 0 0 9.18848,-3.13819 l 0.6687,-0.4848 a 4.6284516,4.6284516 119.33894 0 0 1.89667,-3.37445 l 0.16885,-2.08951 a 9.3150498,9.3150498 72.163881 0 0 -2.17967,-6.77419 7.7614665,7.7614665 26.219816 0 0 -3.72253,-1.83331 18.45283,18.45283 6.8144312 0 0 -6.09893,-0.72881 z"
     id="path12"
     sodipodi:nodetypes="ccccccccccccc"
     inkscape:path-effect="#path-effect13"
     inkscape:original-d="m 162.64295,227.86277 v 35.29352 l 14.31258,-0.16264 4.63532,-4.71664 -0.65058,-5.77384 -5.61117,-4.47267 -9.18933,-1.70775 7.88818,-0.24398 6.50572,-4.71663 0.65057,-8.05084 -3.17153,-3.74078 -5.2859,-1.78907 z"
     transform="translate(-2.7649301,-0.16264295)" />
</svg>
