<?xml version="1.0" encoding="UTF-8" standalone="no"?>
<svg
   version="1.0"
   width="512pt"
   height="512pt"
   viewBox="0 0 512 512"
   preserveAspectRatio="xMidYMid"
   id="svg6"
   sodipodi:docname="compound-interest-earning-savings-money-512.svg"
   inkscape:export-filename="compound-interest-earning-savings-money-512.png"
   inkscape:export-xdpi="96"
   inkscape:export-ydpi="96"
   inkscape:version="1.3.2 (091e20e, 2023-11-25, custom)"
   xmlns:inkscape="http://www.inkscape.org/namespaces/inkscape"
   xmlns:sodipodi="http://sodipodi.sourceforge.net/DTD/sodipodi-0.dtd"
   xmlns="http://www.w3.org/2000/svg"
   xmlns:svg="http://www.w3.org/2000/svg">
  <defs
     id="defs6">
    <inkscape:path-effect
       effect="fillet_chamfer"
       id="path-effect19"
       is_visible="true"
       lpeversion="1"
       nodesatellites_param="F,0,0,1,0,0,0,1 @ F,0,0,1,0,9.7340862,0,1 @ F,0,0,1,0,5.4675921,0,1 @ F,0,0,1,0,9.7406851,0,1 @ F,0,0,1,0,10.488509,0,1 @ F,0,0,1,0,10.28153,0,1 @ F,0,0,1,0,9.3671925,0,1 @ F,0,0,1,0,7.3549671,0,1 @ F,0,0,1,0,0,0,1 @ F,0,0,1,0,0,0,1 @ F,0,0,1,0,0,0,1 @ F,0,0,1,0,0,0,1 @ F,0,0,1,0,0,0,1"
       radius="0"
       unit="px"
       method="auto"
       mode="F"
       chamfer_steps="1"
       flexible="false"
       use_knot_distance="true"
       apply_no_radius="true"
       apply_with_radius="true"
       only_selected="false"
       hide_knots="false" />
    <inkscape:path-effect
       effect="fillet_chamfer"
       id="path-effect18"
       is_visible="true"
       lpeversion="1"
       nodesatellites_param="F,0,0,1,0,0,0,1 @ F,0,0,1,0,12.83786,0,1 @ F,0,0,1,0,9.2194146,0,1 @ F,0,0,1,0,11.714845,0,1 @ F,0,0,1,0,12.775322,0,1 @ F,0,0,1,0,9.5024107,0,1 @ F,0,0,1,0,15.589717,0,1 @ F,0,0,1,0,7.3512475,0,1 @ F,0,0,1,0,0,0,1 @ F,0,0,1,0,0,0,1 @ F,0,0,1,0,0,0,1 @ F,0,0,1,0,0,0,1 @ F,0,0,1,0,0,0,1"
       radius="0"
       unit="px"
       method="auto"
       mode="F"
       chamfer_steps="1"
       flexible="false"
       use_knot_distance="true"
       apply_no_radius="true"
       apply_with_radius="true"
       only_selected="false"
       hide_knots="false" />
    <inkscape:path-effect
       effect="fillet_chamfer"
       id="path-effect17"
       is_visible="true"
       lpeversion="1"
       nodesatellites_param="F,0,0,1,0,0,0,1 @ F,0,0,1,0,5.5751395,0,1 @ F,0,0,1,0,2.5236493,0,1 @ F,0,0,1,0,5.8750636,0,1 @ F,0,1,1,0,4.6300295,0,1 @ F,0,1,1,0,4.6300295,0,1 @ F,0,0,1,0,0,0,1 @ F,0,0,1,0,5.5539238,0,1 @ F,0,0,1,0,9.1955201,0,1 @ F,0,0,1,0,9.5343665,0,1 @ F,0,0,1,0,6.6125656,0,1 @ F,0,0,1,0,8.0221609,0,1 @ F,0,0,1,0,7.956211,0,1 @ F,0,0,1,0,4.6300295,0,1 @ F,0,0,1,0,0,0,1 @ F,0,0,1,0,0,0,1"
       radius="0"
       unit="px"
       method="auto"
       mode="F"
       chamfer_steps="1"
       flexible="false"
       use_knot_distance="true"
       apply_no_radius="true"
       apply_with_radius="true"
       only_selected="false"
       hide_knots="false" />
    <inkscape:path-effect
       effect="fillet_chamfer"
       id="path-effect13"
       is_visible="true"
       lpeversion="1"
       nodesatellites_param="F,0,0,1,0,0,0,1 @ F,0,0,1,0,1.1152816,0,1 @ F,0,0,1,0,6.9037534,0,1 @ F,0,0,1,0,9.5851542,0,1 @ F,0,0,1,0,7.3442816,0,1 @ F,0,0,1,0,6.5871304,0,1 @ F,0,0,1,0,9.0835408,0,1 @ F,0,0,1,0,10.265552,0,1 @ F,0,0,1,0,8.0225853,0,1 @ F,0,0,1,0,8.57913,0,1 @ F,0,0,1,0,9.6147851,0,1 @ F,0,0,1,0,0,0,1"
       radius="0"
       unit="px"
       method="auto"
       mode="F"
       chamfer_steps="1"
       flexible="false"
       use_knot_distance="true"
       apply_no_radius="true"
       apply_with_radius="true"
       only_selected="false"
       hide_knots="false" />
    <inkscape:path-effect
       effect="fillet_chamfer"
       id="path-effect13-6"
       is_visible="true"
       lpeversion="1"
       nodesatellites_param="F,0,0,1,0,0,0,1 @ F,0,0,1,0,6.9037534,0,1 @ F,0,0,1,0,9.5851542,0,1 @ F,0,0,1,0,7.3442816,0,1 @ F,0,0,1,0,6.5871304,0,1 @ F,0,0,1,0,9.0835408,0,1 @ F,0,0,1,0,10.265552,0,1 @ F,0,0,1,0,8.0225853,0,1 @ F,0,0,1,0,8.57913,0,1 @ F,0,0,1,0,9.6147851,0,1 @ F,0,0,1,0,0,0,1"
       radius="0"
       unit="px"
       method="auto"
       mode="F"
       chamfer_steps="1"
       flexible="false"
       use_knot_distance="true"
       apply_no_radius="true"
       apply_with_radius="true"
       only_selected="false"
       hide_knots="false" />
    <inkscape:path-effect
       effect="fillet_chamfer"
       id="path-effect13-4"
       is_visible="true"
       lpeversion="1"
       nodesatellites_param="F,0,0,1,0,0,0,1 @ F,0,0,1,0,6.9037534,0,1 @ F,0,0,1,0,9.5851542,0,1 @ F,0,0,1,0,7.3442816,0,1 @ F,0,0,1,0,6.5871304,0,1 @ F,0,0,1,0,9.0835408,0,1 @ F,0,0,1,0,10.265552,0,1 @ F,0,0,1,0,8.0225853,0,1 @ F,0,0,1,0,8.57913,0,1 @ F,0,0,1,0,9.6147851,0,1 @ F,0,0,1,0,0,0,1"
       radius="0"
       unit="px"
       method="auto"
       mode="F"
       chamfer_steps="1"
       flexible="false"
       use_knot_distance="true"
       apply_no_radius="true"
       apply_with_radius="true"
       only_selected="false"
       hide_knots="false" />
    <inkscape:path-effect
       effect="fillet_chamfer"
       id="path-effect13-6-6"
       is_visible="true"
       lpeversion="1"
       nodesatellites_param="F,0,0,1,0,0,0,1 @ F,0,0,1,0,6.9037534,0,1 @ F,0,0,1,0,9.5851542,0,1 @ F,0,0,1,0,7.3442816,0,1 @ F,0,0,1,0,6.5871304,0,1 @ F,0,0,1,0,9.0835408,0,1 @ F,0,0,1,0,10.265552,0,1 @ F,0,0,1,0,8.0225853,0,1 @ F,0,0,1,0,8.57913,0,1 @ F,0,0,1,0,9.6147851,0,1 @ F,0,0,1,0,0,0,1"
       radius="0"
       unit="px"
       method="auto"
       mode="F"
       chamfer_steps="1"
       flexible="false"
       use_knot_distance="true"
       apply_no_radius="true"
       apply_with_radius="true"
       only_selected="false"
       hide_knots="false" />
    <inkscape:path-effect
       effect="fillet_chamfer"
       id="path-effect13-4-4"
       is_visible="true"
       lpeversion="1"
       nodesatellites_param="F,0,0,1,0,0,0,1 @ F,0,0,1,0,6.9037534,0,1 @ F,0,0,1,0,9.5851542,0,1 @ F,0,0,1,0,7.3442816,0,1 @ F,0,0,1,0,6.5871304,0,1 @ F,0,0,1,0,9.0835408,0,1 @ F,0,0,1,0,10.265552,0,1 @ F,0,0,1,0,8.0225853,0,1 @ F,0,0,1,0,8.57913,0,1 @ F,0,0,1,0,9.6147851,0,1 @ F,0,0,1,0,0,0,1"
       radius="0"
       unit="px"
       method="auto"
       mode="F"
       chamfer_steps="1"
       flexible="false"
       use_knot_distance="true"
       apply_no_radius="true"
       apply_with_radius="true"
       only_selected="false"
       hide_knots="false" />
    <inkscape:path-effect
       effect="fillet_chamfer"
       id="path-effect13-6-8"
       is_visible="true"
       lpeversion="1"
       nodesatellites_param="F,0,0,1,0,0,0,1 @ F,0,0,1,0,6.9037534,0,1 @ F,0,0,1,0,9.5851542,0,1 @ F,0,0,1,0,7.3442816,0,1 @ F,0,0,1,0,6.5871304,0,1 @ F,0,0,1,0,9.0835408,0,1 @ F,0,0,1,0,10.265552,0,1 @ F,0,0,1,0,8.0225853,0,1 @ F,0,0,1,0,8.57913,0,1 @ F,0,0,1,0,9.6147851,0,1 @ F,0,0,1,0,0,0,1"
       radius="0"
       unit="px"
       method="auto"
       mode="F"
       chamfer_steps="1"
       flexible="false"
       use_knot_distance="true"
       apply_no_radius="true"
       apply_with_radius="true"
       only_selected="false"
       hide_knots="false" />
    <inkscape:path-effect
       effect="fillet_chamfer"
       id="path-effect13-4-6"
       is_visible="true"
       lpeversion="1"
       nodesatellites_param="F,0,0,1,0,0,0,1 @ F,0,0,1,0,6.9037534,0,1 @ F,0,0,1,0,9.5851542,0,1 @ F,0,0,1,0,7.3442816,0,1 @ F,0,0,1,0,6.5871304,0,1 @ F,0,0,1,0,9.0835408,0,1 @ F,0,0,1,0,10.265552,0,1 @ F,0,0,1,0,8.0225853,0,1 @ F,0,0,1,0,8.57913,0,1 @ F,0,0,1,0,9.6147851,0,1 @ F,0,0,1,0,0,0,1"
       radius="0"
       unit="px"
       method="auto"
       mode="F"
       chamfer_steps="1"
       flexible="false"
       use_knot_distance="true"
       apply_no_radius="true"
       apply_with_radius="true"
       only_selected="false"
       hide_knots="false" />
  </defs>
  <sodipodi:namedview
     id="namedview6"
     pagecolor="#ffffff"
     bordercolor="#000000"
     borderopacity="0.25"
     inkscape:showpageshadow="2"
     inkscape:pageopacity="0.0"
     inkscape:pagecheckerboard="0"
     inkscape:deskcolor="#d1d1d1"
     inkscape:document-units="pt"
     inkscape:zoom="1.6303507"
     inkscape:cx="221.11807"
     inkscape:cy="333.36386"
     inkscape:window-width="1920"
     inkscape:window-height="1001"
     inkscape:window-x="-9"
     inkscape:window-y="-9"
     inkscape:window-maximized="1"
     inkscape:current-layer="svg6" />
  <path
     style="fill:#fa2626;fill-opacity:0;stroke:#000000;stroke-width:8.00002;stroke-opacity:1"
     d="m 264.67405,291.83175 1.33154,-13.31541 a 48.585365,48.585365 107.03982 0 1 5.59372,-18.25086 l 5.19758,-9.62515 a 56.250919,56.250919 123.92075 0 1 6.07371,-9.03156 l 3.21265,-3.90108 a 73.331252,73.331252 137.03885 0 1 14.13265,-13.161 l 0.99045,-0.70374 a 51.424727,51.424727 156.13307 0 1 18.79625,-8.31638 l 9.15127,-2.00184 a 95.113998,95.113998 173.83046 0 1 20.32556,-2.19713 h 3.81249 a 44.376206,44.376206 11.919357 0 1 17.93524,3.78588 l 4.48548,1.98195 a 40.618729,40.618729 34.102242 0 1 11.98549,8.11547 l 10.49782,10.26795 21.3911,-13.57071 -0.34503,44.6223 -38.64198,-19.32099 18.17093,-12.07563"
     id="path14-1"
     inkscape:path-effect="#path-effect19"
     inkscape:original-d="m 264.67405,291.83175 2.30012,-23.00119 12.42064,-23.00119 12.88067,-15.64081 17.4809,-12.42063 29.44152,-6.44033 h 23.46121 l 19.78102,8.74044 15.75582,15.41081 21.3911,-13.57071 -0.34503,44.6223 -38.64198,-19.32099 18.17093,-12.07563"
     sodipodi:nodetypes="ccccccccccccc" />
  <ellipse
     style="fill:#0e5f8b;fill-opacity:1;stroke:#0e5f8b;stroke-width:8.00002"
     id="path7"
     cx="165.24522"
     cy="123.60863"
     rx="101.4892"
     ry="96.284622" />
  <ellipse
     style="fill:#e0e0e0;fill-opacity:0;stroke:#e8b019;stroke-width:7.63674;stroke-opacity:0.733333"
     id="path8"
     cx="257.11057"
     cy="393.59595"
     rx="63.612389"
     ry="28.156227" />
  <path
     style="fill:#f0ce79;fill-opacity:1;stroke:#e8b019;stroke-width:8.43479;stroke-opacity:0.733333"
     d="m 5.0310011,433.84741 -0.2630073,29.15363 a 59.97423,59.97423 83.950345 0 0 1.4456312,13.64053 21.518785,21.518785 52.443907 0 0 8.454062,10.99525 l 1.802822,1.50117 a 44.730953,44.730953 30.459469 0 0 12.494079,7.34768 l 0.520232,0.20111 a 72.922998,72.922998 15.973869 0 0 12.614209,3.61084 l 1.597155,0.30503 a 115.3265,115.3265 6.3088231 0 0 18.001311,1.99017 l 10.630607,0.33506 a 72.45953,72.45953 173.7417 0 0 20.206969,-2.21598 l 4.996066,-1.27552 a 61.516397,61.516397 158.24788 0 0 14.777553,-5.89628 l 3.67816,-2.05417 a 46.110355,46.110355 140.27792 0 0 12.97467,-10.78023 19.851178,19.851178 102.64036 0 0 2.95284,-13.16668 v -38.23057"
     id="path9"
     sodipodi:nodetypes="cccccccccccc"
     inkscape:path-effect="#path-effect13"
     inkscape:original-d="m 5.0310011,433.84741 -0.00649,0.71935 -0.3187963,35.33775 2.5960949,11.59887 14.8125393,12.33414 13.514492,5.2244 16.989622,3.24474 29.970096,0.94462 22.715831,-5.79944 18.17266,-10.14901 8.43731,-10.14902 v -47.84536" />
  <ellipse
     style="fill:#f0ce79;fill-opacity:1;stroke:#e8b019;stroke-width:7.83102;stroke-opacity:0.734177"
     id="path8-6"
     cx="68.744827"
     cy="434.27652"
     rx="63.975266"
     ry="29.439154" />
  <path
     style="fill:#e0e0e0;fill-opacity:0;stroke:#e8b019;stroke-width:8.00002;stroke-opacity:0.733333"
     d="m 27.974587,458.22916 v 35.67323"
     id="path10"
     sodipodi:nodetypes="cc" />
  <path
     style="fill:#e0e0e0;fill-opacity:0;stroke:#e8b019;stroke-width:8.00002;stroke-opacity:0.733333"
     d="M 53.346887,463.85769 V 500.2897"
     id="path11" />
  <path
     style="fill:#e0e0e0;fill-opacity:0;stroke:#e8b019;stroke-width:8.00002;stroke-opacity:0.733333"
     d="m 83.923762,461.90597 v 38.38374"
     id="path12" />
  <path
     style="fill:#f0ce79;fill-opacity:1;stroke:#e8b019;stroke-width:8.43479;stroke-opacity:0.733333"
     d="m 4.9357271,427.5175 -0.1925494,35.48336 a 60.938135,60.938135 83.847363 0 0 1.4704477,13.64071 21.518785,21.518785 52.443908 0 0 8.4540616,10.99525 l 1.802822,1.50117 a 44.730951,44.730951 30.459469 0 0 12.494079,7.34768 l 0.520232,0.20111 a 72.922998,72.922998 15.973869 0 0 12.614209,3.61084 l 1.597155,0.30503 a 115.3265,115.3265 6.3088231 0 0 18.001311,1.99017 l 10.630607,0.33506 a 72.45953,72.45953 173.7417 0 0 20.206969,-2.21598 l 4.996066,-1.27552 a 61.516397,61.516397 158.24788 0 0 14.777553,-5.89628 l 3.67816,-2.05417 a 46.110355,46.110355 140.27792 0 0 12.97467,-10.78023 19.851178,19.851178 102.64036 0 0 2.95284,-13.16668 v -38.23057"
     id="path9-1"
     sodipodi:nodetypes="ccccccccccc"
     inkscape:path-effect="#path-effect13-4"
     inkscape:original-d="m 4.9357271,427.5175 -0.2300119,42.38701 2.5960949,11.59887 14.8125389,12.33414 13.514492,5.2244 16.989622,3.24474 29.970096,0.94462 22.715831,-5.79944 18.17266,-10.14901 8.43731,-10.14902 v -47.84536"
     transform="translate(188.01583,1.7261428)" />
  <path
     style="fill:#f0ce79;fill-opacity:1;stroke:#e8b019;stroke-width:8.43479;stroke-opacity:0.733333"
     d="m 4.7057152,435.10789 v 27.89287 a 62.452545,62.452545 83.691908 0 0 1.5079102,13.64081 21.518785,21.518785 52.443908 0 0 8.4540616,10.99525 l 1.802822,1.50117 a 44.730951,44.730951 30.459469 0 0 12.494079,7.34768 l 0.520232,0.20111 a 72.922998,72.922998 15.973869 0 0 12.614209,3.61084 l 1.597155,0.30503 a 115.3265,115.3265 6.3088231 0 0 18.001311,1.99017 l 10.630607,0.33506 a 72.45953,72.45953 173.7417 0 0 20.206969,-2.21598 l 4.996066,-1.27552 a 61.516397,61.516397 158.24788 0 0 14.777553,-5.89628 l 3.67816,-2.05417 a 46.110355,46.110355 140.27792 0 0 12.97467,-10.78023 19.851178,19.851178 102.64036 0 0 2.95284,-13.16668 v -38.23057"
     id="path9-2"
     sodipodi:nodetypes="ccccccccccc"
     inkscape:path-effect="#path-effect13-6"
     inkscape:original-d="m 4.7057152,435.10789 v 34.79662 l 2.5960949,11.59887 14.8125389,12.33414 13.514492,5.2244 16.989622,3.24474 29.970096,0.94462 22.715831,-5.79944 18.17266,-10.14901 8.43731,-10.14902 v -47.84536"
     transform="translate(187.97645,-38.985067)" />
  <path
     style="fill:#e0e0e0;fill-opacity:0;stroke:#e8b019;stroke-width:8.00002;stroke-opacity:0.733333"
     d="m 107.34434,456.05083 v 40.33545"
     id="path13" />
  <ellipse
     style="fill:#f0ce79;fill-opacity:1;stroke:#e8b019;stroke-width:7.83102;stroke-opacity:0.733333"
     id="path8-6-7"
     cx="256.72125"
     cy="395.29144"
     rx="63.975266"
     ry="29.439154" />
  <path
     style="fill:#e0e0e0;fill-opacity:0;stroke:#e8b019;stroke-width:8.00002;stroke-opacity:0.733333"
     d="m 215.95104,419.81912 -0.11501,44.06866"
     id="path10-6"
     sodipodi:nodetypes="cc" />
  <path
     style="fill:#e0e0e0;fill-opacity:0;stroke:#e8b019;stroke-width:8.00002;stroke-opacity:0.733333"
     d="m 241.32334,424.87262 v 36.43201"
     id="path11-7" />
  <path
     style="fill:#e0e0e0;fill-opacity:0;stroke:#e8b019;stroke-width:8.00002;stroke-opacity:0.733333"
     d="m 271.90021,422.9209 v 38.38374"
     id="path12-0" />
  <path
     style="fill:#f0ce79;fill-opacity:1;stroke:#e8b019;stroke-width:8.43479;stroke-opacity:0.733333"
     d="m 5.0310011,429.25274 -0.2700455,33.74824 a 60.244548,60.244548 83.921137 0 0 1.4526698,13.64059 21.518785,21.518785 52.443908 0 0 8.4540616,10.99525 l 1.802822,1.50117 a 44.730951,44.730951 30.459469 0 0 12.494079,7.34768 l 0.520232,0.20111 a 72.922998,72.922998 15.973869 0 0 12.614209,3.61084 l 1.597155,0.30503 a 115.3265,115.3265 6.3088231 0 0 18.001311,1.99017 l 10.630607,0.33506 a 72.45953,72.45953 173.7417 0 0 20.206969,-2.21598 l 4.996066,-1.27552 a 61.516397,61.516397 158.24788 0 0 14.777553,-5.89628 l 3.67816,-2.05417 a 46.110355,46.110355 140.27792 0 0 12.97467,-10.78023 19.851178,19.851178 102.64036 0 0 2.95284,-13.16668 v -38.23057"
     id="path9-1-3"
     sodipodi:nodetypes="ccccccccccc"
     transform="translate(376.02242,0.60960448)"
     inkscape:original-d="m 5.0310011,429.25274 -0.3252859,40.65177 2.5960949,11.59887 14.8125389,12.33414 13.514492,5.2244 16.989622,3.24474 29.970096,0.94462 22.715831,-5.79944 18.17266,-10.14901 8.43731,-10.14902 v -47.84536"
     inkscape:path-effect="#path-effect13-4-6" />
  <path
     style="fill:#e0e0e0;fill-opacity:0;stroke:#e8b019;stroke-width:8.00002;stroke-opacity:0.733333"
     d="m 295.32079,417.06576 v 40.33545"
     id="path13-6" />
  <path
     style="fill:#e0e0e0;fill-opacity:0;stroke:#e8b019;stroke-width:8.00002;stroke-opacity:0.733333"
     d="m 215.99042,460.76035 0.11501,35.32821"
     id="path10-4"
     sodipodi:nodetypes="cc" />
  <path
     style="fill:#e0e0e0;fill-opacity:0;stroke:#e8b019;stroke-width:8.00002;stroke-opacity:0.733333"
     d="m 240.90269,465.58384 v 36.43201"
     id="path11-4" />
  <path
     style="fill:#f0ce79;fill-opacity:1;stroke:#e8b019;stroke-width:8.43479;stroke-opacity:0.733333"
     d="m 4.7057152,435.10789 v 27.89287 a 62.452545,62.452545 83.691908 0 0 1.5079102,13.64081 21.518785,21.518785 52.443908 0 0 8.4540616,10.99525 l 1.802822,1.50117 a 44.730951,44.730951 30.459469 0 0 12.494079,7.34768 l 0.520232,0.20111 a 72.922998,72.922998 15.973869 0 0 12.614209,3.61084 l 1.597155,0.30503 a 115.3265,115.3265 6.3088231 0 0 18.001311,1.99017 l 10.630607,0.33506 a 72.45953,72.45953 173.7417 0 0 20.206969,-2.21598 l 4.996066,-1.27552 a 61.516397,61.516397 158.24788 0 0 14.777553,-5.89628 l 3.67816,-2.05417 a 46.110355,46.110355 140.27792 0 0 12.97467,-10.78023 19.851178,19.851178 102.64036 0 0 2.95284,-13.16668 v -38.23057"
     id="path9-2-9"
     sodipodi:nodetypes="ccccccccccc"
     transform="translate(375.98304,-40.101603)"
     inkscape:original-d="m 4.7057152,435.10789 v 34.79662 l 2.5960949,11.59887 14.8125389,12.33414 13.514492,5.2244 16.989622,3.24474 29.970096,0.94462 22.715831,-5.79944 18.17266,-10.14901 8.43731,-10.14902 v -47.84536"
     inkscape:path-effect="#path-effect13-6-8" />
  <path
     style="fill:#e0e0e0;fill-opacity:0;stroke:#e8b019;stroke-width:8.00002;stroke-opacity:0.733333"
     d="m 271.93959,463.63212 v 38.38374"
     id="path12-1" />
  <path
     style="fill:#e0e0e0;fill-opacity:0;stroke:#e8b019;stroke-width:8.00002;stroke-opacity:0.733333"
     d="m 295.82019,455.47686 v 40.33545"
     id="path13-4" />
  <ellipse
     style="fill:#f3ce5a;fill-opacity:0.733334;stroke:#e8b019;stroke-width:7.63674;stroke-opacity:0.733333"
     id="path8-8"
     cx="444.37433"
     cy="313.8959"
     rx="63.612389"
     ry="28.156227" />
  <path
     style="fill:#f0ce79;fill-opacity:1;stroke:#e8b019;stroke-width:8.43479;stroke-opacity:0.733333"
     d="m 4.7057152,427.30103 v 35.69973 a 62.452545,62.452545 83.691908 0 0 1.5079102,13.64081 21.518785,21.518785 52.443908 0 0 8.4540616,10.99525 l 1.802822,1.50117 a 44.730951,44.730951 30.459469 0 0 12.494079,7.34768 l 0.520232,0.20111 a 72.922998,72.922998 15.973869 0 0 12.614209,3.61084 l 1.597155,0.30503 a 115.3265,115.3265 6.3088231 0 0 18.001311,1.99017 l 10.630607,0.33506 a 72.45953,72.45953 173.7417 0 0 20.206969,-2.21598 l 4.996066,-1.27552 a 61.516397,61.516397 158.24788 0 0 14.777553,-5.89628 l 3.67816,-2.05417 a 55.909167,55.909167 142.0938 0 0 13.38154,-10.41957 18.798926,18.798926 105.03414 0 0 3.63322,-13.52713 l -0.26248,-40.1825"
     id="path9-1-6"
     sodipodi:nodetypes="ccccccccccc"
     inkscape:path-effect="#path-effect13-4-4"
     inkscape:original-d="m 4.7057152,427.30103 v 42.60348 l 2.5960949,11.59887 14.8125389,12.33414 13.514492,5.2244 16.989622,3.24474 29.970096,0.94462 22.715831,-5.79944 18.17266,-10.14901 9.58737,-10.14902 -0.32529,-49.79708"
     transform="translate(375.2796,-77.973908)" />
  <path
     style="fill:#f0ce79;fill-opacity:1;stroke:#e8b019;stroke-width:8.43479;stroke-opacity:0.733333"
     d="m 4.7057152,435.10789 v 27.89287 a 62.452545,62.452545 83.691908 0 0 1.5079102,13.64081 21.518785,21.518785 52.443908 0 0 8.4540616,10.99525 l 1.802822,1.50117 a 44.730951,44.730951 30.459469 0 0 12.494079,7.34768 l 0.520232,0.20111 a 72.922998,72.922998 15.973869 0 0 12.614209,3.61084 l 1.597155,0.30503 a 115.3265,115.3265 6.3088231 0 0 18.001311,1.99017 l 10.630607,0.33506 a 72.45953,72.45953 173.7417 0 0 20.206969,-2.21598 l 4.996066,-1.27552 a 61.516397,61.516397 158.24788 0 0 14.777553,-5.89628 l 3.67816,-2.05417 a 46.110355,46.110355 140.27792 0 0 12.97467,-10.78023 20.611149,20.611149 103.59671 0 0 3.18388,-13.1639 l 0.91902,-38.23335"
     id="path9-2-7"
     sodipodi:nodetypes="ccccccccccc"
     inkscape:path-effect="#path-effect13-6-6"
     inkscape:original-d="m 4.7057152,435.10789 v 34.79662 l 2.5960949,11.59887 14.8125389,12.33414 13.514492,5.2244 16.989622,3.24474 29.970096,0.94462 22.715831,-5.79944 18.17266,-10.14901 8.43731,-10.14902 1.15006,-47.84536"
     transform="translate(375.24022,-118.68511)" />
  <path
     style="fill:#f3ce5a;fill-opacity:0.733334;stroke:#e8b019;stroke-width:8.00002;stroke-opacity:0.733333"
     d="m 403.21481,338.66684 v 37.57054"
     id="path10-6-1"
     sodipodi:nodetypes="cc" />
  <path
     style="fill:#f3ce5a;fill-opacity:0.733334;stroke:#e8b019;stroke-width:8.00002;stroke-opacity:0.733333"
     d="m 428.58711,345.17257 v 36.43201"
     id="path11-7-7" />
  <path
     style="fill:#f3ce5a;fill-opacity:0.733334;stroke:#e8b019;stroke-width:8.00002;stroke-opacity:0.733333"
     d="m 459.16398,343.22085 v 38.38374"
     id="path12-0-7" />
  <ellipse
     style="fill:#f3ce5a;fill-opacity:0.733334;stroke:#e8b019;stroke-width:7.83102;stroke-opacity:0.733333"
     id="path8-6-7-3"
     cx="443.98502"
     cy="315.5914"
     rx="63.975266"
     ry="29.439154" />
  <path
     style="fill:#f3ce5a;fill-opacity:0.733334;stroke:#e8b019;stroke-width:8.00002;stroke-opacity:0.733333"
     d="m 482.58456,337.36571 v 40.33545"
     id="path13-6-6" />
  <path
     style="fill:#f3ce5a;fill-opacity:0.733334;stroke:#e8b019;stroke-width:8.00002;stroke-opacity:0.733333"
     d="m 403.41683,378.45801 -0.16264,38.38375"
     id="path10-4-3"
     sodipodi:nodetypes="cc" />
  <path
     style="fill:#f3ce5a;fill-opacity:0.733334;stroke:#e8b019;stroke-width:8.00002;stroke-opacity:0.733333"
     d="M 428.16646,385.88379 V 422.3158"
     id="path11-4-9" />
  <path
     style="fill:#f3ce5a;fill-opacity:0.733334;stroke:#e8b019;stroke-width:8.00002;stroke-opacity:0.733333"
     d="m 459.20336,383.93207 v 38.38374"
     id="path12-1-5" />
  <path
     style="fill:#f3ce5a;fill-opacity:0.733334;stroke:#e8b019;stroke-width:8.00002;stroke-opacity:0.733333"
     d="m 483.08396,375.77681 v 40.33545"
     id="path13-4-2" />
  <path
     style="fill:#f3ce5a;fill-opacity:0.733334;stroke:#e8b019;stroke-width:8.00002;stroke-opacity:0.733333"
     d="m 403.95763,419.85264 0.16264,35.78146"
     id="path10-6-8"
     sodipodi:nodetypes="cc" />
  <path
     style="fill:#f3ce5a;fill-opacity:0.733334;stroke:#e8b019;stroke-width:8.00002;stroke-opacity:0.733333"
     d="m 429.32993,423.75608 v 36.43201"
     id="path11-7-6" />
  <path
     style="fill:#f3ce5a;fill-opacity:0.733334;stroke:#e8b019;stroke-width:8.00002;stroke-opacity:0.733333"
     d="M 459.9068,421.80436 V 460.1881"
     id="path12-0-8" />
  <path
     style="fill:#f3ce5a;fill-opacity:0.733334;stroke:#e8b019;stroke-width:8.00002;stroke-opacity:0.733333"
     d="m 483.32738,415.94922 v 40.33545"
     id="path13-6-68" />
  <path
     style="fill:#f3ce5a;fill-opacity:0.733334;stroke:#e8b019;stroke-width:8.00002;stroke-opacity:0.733333"
     d="m 404.15965,456.39095 c 0,3.33132 0,29.8721 0,40.49811"
     id="path10-4-5"
     sodipodi:nodetypes="cc" />
  <path
     style="fill:#e0e0e0;fill-opacity:0;stroke:#e8b019;stroke-width:8.00002;stroke-opacity:0.733333"
     d="m 428.90928,464.4673 v 36.43201"
     id="path11-4-6" />
  <path
     style="fill:#e0e0e0;fill-opacity:0;stroke:#e8b019;stroke-width:8.00002;stroke-opacity:0.733333"
     d="m 459.94618,462.51558 v 38.38374"
     id="path12-1-7" />
  <path
     style="fill:#f3ce5a;fill-opacity:0.733334;stroke:#e8b019;stroke-width:8.00002;stroke-opacity:0.733333"
     d="m 483.82678,454.36032 v 40.33545"
     id="path13-4-27" />
  <path
     style="fill:#000000;fill-opacity:0;stroke:#000000;stroke-width:8.00002;stroke-opacity:1"
     d="m 77.283983,371.23915 1.022706,-10.22704 a 64.077141,64.077141 107.03982 0 1 7.377309,-24.07025 l 1.940151,-3.59288 a 94.849884,94.849884 123.92075 0 1 10.241442,-15.22895 85.663349,85.663349 137.26368 0 1 16.569529,-15.30939 55.19078,55.19078 157.71434 0 1 20.4114,-8.36536 l 7.6784,-1.67965 a 87.906399,87.906399 173.83046 0 1 18.78532,-2.03063 69.996428,69.996428 12.586868 0 1 28.21851,6.30079 41.257014,41.257014 33.968663 0 1 10.96091,7.38451 l 10.04096,9.12773 19.94127,-13.15254 1.38006,45.54235 -38.64198,-19.32099 16.17975,-12.5809"
     id="path14"
     inkscape:path-effect="#path-effect18"
     inkscape:original-d="m 77.283983,371.23915 2.300122,-23.00119 12.420637,-23.00119 12.880668,-15.64081 17.4809,-12.42063 29.44152,-6.44033 h 23.46121 l 19.78102,8.74044 15.48056,14.07259 19.94127,-13.15254 1.38006,45.54235 -38.64198,-19.32099 16.17975,-12.5809"
     sodipodi:nodetypes="ccccccccccccc" />
  <path
     style="fill:#ffffff;fill-opacity:0;stroke:#ffffff;stroke-width:8.00002;stroke-opacity:1"
     d="m 116.15599,79.814115 3.15011,-3.465122 a 39.606873,39.606873 140.28613 0 1 8.49357,-7.054965 l 0.92996,-0.574393 a 32.112454,32.112454 152.79207 0 1 4.47504,-2.300637 l 2.14319,-0.89715 a 26.681897,26.681897 169.70334 0 1 11.29044,-2.05114 l 1.92274,0.07121 a 46.919658,46.919658 7.7567967 0 1 9.13098,1.243775 l 5.48251,1.305358 a 13.235918,13.235918 32.672739 0 1 7.35764,4.718583 l 1.28669,1.6441 4.16101,6.577075 a 16.605429,16.605429 76.173618 0 1 2.51748,10.229013 32.409346,32.409346 110.71547 0 1 -5.15974,13.643725 49.297878,49.297878 131.68071 0 1 -10.58217,11.88522 l -2.71771,2.34141 a 166.34176,166.34176 141.53032 0 1 -10.34628,8.22087 l -7.0503,5.15875 A 39.466963,39.466963 132.31722 0 0 132.056,142.1357 l -0.3222,0.53991 a 65.075545,65.075545 113.8572 0 0 -6.38835,14.44525 l -0.25412,0.83712 a 44.097585,44.097585 100.89293 0 0 -1.74035,9.0435 l -0.29463,3.43731 56.12289,-0.23001"
     id="path15"
     inkscape:path-effect="#path-effect17"
     inkscape:original-d="m 116.15599,79.814115 6.90036,-7.59039 7.8204,-4.83025 9.89051,-4.140213 12.42064,0.460024 14.49075,3.450178 4.14021,5.290273 7.13037,11.270578 -0.92005,11.270588 -8.05042,13.570697 -14.95077,12.88066 -18.86097,13.80071 -8.51044,14.26074 -3.91019,12.88066 -0.69004,8.05042 56.12289,-0.23001" />
  <path
     style="fill:#fa2626;fill-opacity:0;stroke:#ffffff;stroke-width:8.00002;stroke-opacity:1"
     d="M 224.81447,136.93838 192.032,173.7913"
     id="path16"
     sodipodi:nodetypes="cc" />
  <path
     style="fill:#fa2626;fill-opacity:0;stroke:#ffffff;stroke-width:8.00002;stroke-opacity:1"
     d="m 192.00888,136.73867 32.48269,36.92028"
     id="path17"
     sodipodi:nodetypes="cc" />
</svg>
