<?xml version="1.0" encoding="UTF-8" standalone="no"?>
<!-- Created with Inkscape (http://www.inkscape.org/) -->

<svg
   version="1.1"
   id="svg1"
   width="231"
   height="218"
   viewBox="0 0 231 218"
   sodipodi:docname="images.png"
   xmlns:inkscape="http://www.inkscape.org/namespaces/inkscape"
   xmlns:sodipodi="http://sodipodi.sourceforge.net/DTD/sodipodi-0.dtd"
   xmlns="http://www.w3.org/2000/svg"
   xmlns:svg="http://www.w3.org/2000/svg">
  <defs
     id="defs1">
    <inkscape:path-effect
       effect="fillet_chamfer"
       id="path-effect27"
       is_visible="true"
       lpeversion="1"
       nodesatellites_param="F,0,0,1,0,0,0,1 @ F,0,0,1,0,2.9401036,0,1 @ F,0,0,1,0,3.5373637,0,1 @ F,0,0,1,0,2.6084336,0,1 @ F,0,0,1,0,3.0697237,0,1 @ F,0,0,1,0,0,0,1 @ F,0,0,1,0,3.6276985,0,1 @ F,0,0,1,0,0.96565069,0,1 @ F,0,0,1,0,2.421505,0,1 @ F,0,0,1,0,2.1969245,0,1 @ F,0,0,1,0,0,0,1 @ F,0,0,1,0,0,0,1 @ F,0,0,1,0,0,0,1 @ F,0,0,1,0,0,0,1 @ F,0,0,1,0,0,0,1 @ F,0,0,1,0,0,0,1 @ F,0,0,1,0,0,0,1 @ F,0,0,1,0,0,0,1 @ F,0,0,1,0,0,0,1 @ F,0,0,1,0,2.887332,0,1 @ F,0,0,1,0,2.2338043,0,1 @ F,0,0,1,0,6.6878013,0,1 @ F,0,0,1,0,2.8631272,0,1 @ F,0,0,1,0,2.6058554,0,1 @ F,0,0,1,0,2.2914913,0,1 @ F,0,0,1,0,2.5762812,0,1 @ F,0,0,1,0,3.6780498,0,1 @ F,0,0,1,0,4.0467612,0,1 @ F,0,0,1,0,5.822219,0,1 @ F,0,0,1,0,4.9412445,0,1 @ F,0,0,1,0,3.4077031,0,1 @ F,0,0,1,0,0,0,1"
       radius="0"
       unit="px"
       method="auto"
       mode="F"
       chamfer_steps="1"
       flexible="false"
       use_knot_distance="true"
       apply_no_radius="true"
       apply_with_radius="true"
       only_selected="false"
       hide_knots="false" />
    <inkscape:path-effect
       effect="fillet_chamfer"
       id="path-effect26"
       is_visible="true"
       lpeversion="1"
       nodesatellites_param="F,0,0,1,0,0,0,1 @ F,0,0,1,0,2.0430385,0,1 @ F,0,0,1,0,0,0,1 @ F,0,0,1,0,0,0,1 @ F,0,0,1,0,1.4303181,0,1 @ F,0,0,1,0,3.2639479,0,1 @ F,0,0,1,0,2.4039034,0,1 @ F,0,0,1,0,3.675057,0,1 @ F,0,0,1,0,0,0,1 @ F,0,0,1,0,0,0,1 @ F,0,0,1,0,1.9478243,0,1 @ F,0,0,1,0,0,0,1 @ F,0,0,1,0,0,0,1"
       radius="0"
       unit="px"
       method="auto"
       mode="F"
       chamfer_steps="1"
       flexible="false"
       use_knot_distance="true"
       apply_no_radius="true"
       apply_with_radius="true"
       only_selected="false"
       hide_knots="false" />
    <inkscape:path-effect
       effect="fillet_chamfer"
       id="path-effect25"
       is_visible="true"
       lpeversion="1"
       nodesatellites_param="F,0,0,1,0,0,0,1 @ F,0,0,1,0,0,0,1 @ F,0,0,1,0,4.2799658,0,1 @ F,0,0,1,0,4.6275873,0,1 @ F,0,0,1,0,2.6343502,0,1 @ F,0,0,1,0,2.6422456,0,1 @ F,0,0,1,0,3.4048967,0,1 @ F,0,0,1,0,2.992577,0,1 @ F,0,0,1,0,0,0,1 @ F,0,0,1,0,0,0,1 @ F,0,0,1,0,0,0,1 @ F,0,0,1,0,0,0,1 @ F,0,0,1,0,3.9111804,0,1 @ F,0,0,1,0,2.78333,0,1 @ F,0,0,1,0,2.787327,0,1 @ F,0,0,1,0,0,0,1 @ F,0,0,1,0,2.1734057,0,1 @ F,0,0,1,0,2.162509,0,1 @ F,0,0,1,0,1.5842368,0,1 @ F,0,0,1,0,2.3806752,0,1 @ F,0,0,1,0,0,0,1"
       radius="0"
       unit="px"
       method="auto"
       mode="F"
       chamfer_steps="1"
       flexible="false"
       use_knot_distance="true"
       apply_no_radius="true"
       apply_with_radius="true"
       only_selected="false"
       hide_knots="false" />
    <inkscape:path-effect
       effect="fillet_chamfer"
       id="path-effect24"
       is_visible="true"
       lpeversion="1"
       nodesatellites_param="F,0,0,1,0,0,0,1 @ F,0,0,1,0,2.7087153,0,1 @ F,0,0,1,0,2.5463008,0,1 @ F,0,0,1,0,3.9691045,0,1 @ F,0,0,1,0,2.8880618,0,1 @ F,0,0,1,0,4.0345886,0,1 @ F,0,0,1,0,0,0,1 @ F,0,0,1,0,0,0,1 @ F,0,0,1,0,0,0,1 @ F,0,0,1,0,0,0,1 @ F,0,0,1,0,0,0,1 @ F,0,0,1,0,0,0,1 @ F,0,0,1,0,0,0,1 @ F,0,0,1,0,0,0,1 @ F,0,0,1,0,0,0,1 @ F,0,0,1,0,0,0,1 @ F,0,0,1,0,0,0,1 @ F,0,0,1,0,0,0,1 @ F,0,0,1,0,0,0,1 @ F,0,0,1,0,2.1863702,0,1 @ F,0,0,1,0,2.5813033,0,1 @ F,0,1,1,0,2.8880618,0,1 @ F,0,1,1,0,2.8880618,0,1 @ F,0,0,1,0,2.8487063,0,1 @ F,0,0,1,0,3.2220536,0,1 @ F,0,0,1,0,2.4182278,0,1 @ F,0,0,1,0,1.3003208,0,1"
       radius="0"
       unit="px"
       method="auto"
       mode="F"
       chamfer_steps="1"
       flexible="false"
       use_knot_distance="true"
       apply_no_radius="true"
       apply_with_radius="true"
       only_selected="false"
       hide_knots="false" />
    <inkscape:path-effect
       effect="fillet_chamfer"
       id="path-effect23"
       is_visible="true"
       lpeversion="1"
       nodesatellites_param="F,0,0,1,0,0,0,1 @ F,0,0,1,0,2.8570544,0,1 @ F,0,0,1,0,3.0006889,0,1 @ F,0,1,1,0,3.5659119,0,1 @ F,0,0,1,0,1.1770433,0,1 @ F,0,0,1,0,1.9856746,0,1 @ F,0,0,1,0,1.203861,0,1 @ F,0,0,1,0,2.7630525,0,1 @ F,0,0,1,0,0,0,1 @ F,0,0,1,0,1.7363257,0,1 @ F,0,0,1,0,1.725876,0,1 @ F,0,0,1,0,1.4661984,0,1 @ F,0,0,1,0,0.85014052,0,1 @ F,0,0,1,0,1.959504,0,1 @ F,0,0,1,0,1.3855314,0,1 @ F,0,0,1,0,1.5726715,0,1"
       radius="0"
       unit="px"
       method="auto"
       mode="F"
       chamfer_steps="1"
       flexible="false"
       use_knot_distance="true"
       apply_no_radius="true"
       apply_with_radius="true"
       only_selected="false"
       hide_knots="false" />
    <inkscape:path-effect
       effect="fillet_chamfer"
       id="path-effect22"
       is_visible="true"
       lpeversion="1"
       nodesatellites_param="F,0,0,1,0,0,0,1 @ F,0,0,1,0,0.84438324,0,1 @ F,0,1,1,0,1.3122131,0,1 @ F,0,0,1,0,0,0,1 @ F,0,0,1,0,0,0,1 @ F,0,0,1,0,0,0,1 @ F,0,0,1,0,0,0,1 @ F,0,0,1,0,0,0,1 @ F,0,0,1,0,1.3122131,0,1 @ F,0,0,1,0,1.2597049,0,1 @ F,0,0,1,0,0,0,1 @ F,0,0,1,0,0,0,1"
       radius="0"
       unit="px"
       method="auto"
       mode="F"
       chamfer_steps="1"
       flexible="false"
       use_knot_distance="true"
       apply_no_radius="true"
       apply_with_radius="true"
       only_selected="false"
       hide_knots="false" />
    <inkscape:path-effect
       effect="fillet_chamfer"
       id="path-effect21"
       is_visible="true"
       lpeversion="1"
       nodesatellites_param="F,0,0,1,0,0,0,1 @ F,0,0,1,0,0,0,1 @ F,0,0,1,0,0,0,1 @ F,0,0,1,0,3.1289727,0,1 @ F,0,1,1,0,3.1289727,0,1 @ F,0,1,1,0,3.1289727,0,1 @ F,0,0,1,0,0,0,1 @ F,0,0,1,0,0,0,1 @ F,0,0,1,0,0,0,1 @ F,0,0,1,0,0,0,1 @ F,0,0,1,0,0,0,1 @ F,0,0,1,0,0,0,1 @ F,0,0,1,0,0,0,1 @ F,0,0,1,0,0,0,1 @ F,0,0,1,0,0,0,1 @ F,0,0,1,0,0,0,1 @ F,0,0,1,0,0,0,1 @ F,0,0,1,0,0,0,1"
       radius="0"
       unit="px"
       method="auto"
       mode="F"
       chamfer_steps="1"
       flexible="false"
       use_knot_distance="true"
       apply_no_radius="true"
       apply_with_radius="true"
       only_selected="false"
       hide_knots="false" />
  </defs>
  <sodipodi:namedview
     id="namedview1"
     pagecolor="#ffffff"
     bordercolor="#000000"
     borderopacity="0.25"
     inkscape:showpageshadow="2"
     inkscape:pageopacity="0.0"
     inkscape:pagecheckerboard="0"
     inkscape:deskcolor="#d1d1d1" />
  <g
     inkscape:groupmode="layer"
     inkscape:label="Image"
     id="g1">
    <path
       style="fill:#303030;fill-opacity:0;stroke:#000000;stroke-width:10.6667;stroke-opacity:1"
       d="M 18.005083,199.99492 H 5.5400254 V 60.663278 l 57.8932656,0.277001"
       id="path1" />
    <path
       style="fill:#303030;fill-opacity:0;stroke:#000000;stroke-width:10.6667;stroke-opacity:1"
       d="M 65.84517,133.20977 65.291168,4.9581829 165.84263,5.5121854 l 0.277,127.9745846"
       id="path2" />
    <path
       style="fill:#303030;fill-opacity:0;stroke:#000000;stroke-width:10.6667;stroke-opacity:1"
       d="m 169.51901,60.778016 56.50826,-0.277001 V 199.83265 l -19.66709,-0.277"
       id="path3" />
    <path
       style="fill:#303030;fill-opacity:0;stroke:#000000;stroke-width:11.2122;stroke-opacity:1"
       d="M 18.974322,88.68258 50.50547,88.64864"
       id="path4"
       sodipodi:nodetypes="cc" />
    <path
       style="fill:#303030;fill-opacity:0;stroke:#000000;stroke-width:12.4685;stroke-opacity:1"
       d="m 19.268203,108.72891 28.026782,-0.12759 3.464846,-0.0158"
       id="path5"
       sodipodi:nodetypes="ccc" />
    <path
       style="fill:#303030;fill-opacity:0;stroke:#000000;stroke-width:13.2683;stroke-opacity:1"
       d="M 19.571544,129.25877 H 50.859262"
       id="path6" />
    <path
       style="fill:#303030;fill-opacity:0;stroke:#000000;stroke-width:10.6667;stroke-opacity:1"
       d="m 183.09784,89.471411 26.59212,-0.277002"
       id="path7" />
    <path
       style="fill:#303030;fill-opacity:0;stroke:#000000;stroke-width:11.1959;stroke-opacity:1"
       d="m 183.07075,111.3537 26.0923,-0.27538"
       id="path8" />
    <path
       style="fill:#303030;fill-opacity:0;stroke:#000000;stroke-width:11.8122;stroke-opacity:1"
       d="m 183.30887,132.40847 26.17006,0.27327"
       id="path9" />
    <rect
       style="fill:#303030;fill-opacity:0;stroke:#000000;stroke-width:10.6667;stroke-opacity:1"
       id="rect9"
       width="10.526049"
       height="9.9720459"
       x="83.37738"
       y="63.987297" />
    <rect
       style="fill:#303030;fill-opacity:0;stroke:#000000;stroke-width:10.6667;stroke-opacity:1"
       id="rect10"
       width="9.9720459"
       height="9.6950445"
       x="110.80339"
       y="64.183167" />
    <rect
       style="fill:#303030;fill-opacity:0;stroke:#000000;stroke-width:10.7774;stroke-opacity:1"
       id="rect11"
       width="10.41537"
       height="9.1451006"
       x="137.67744"
       y="64.190979" />
    <rect
       style="fill:#303030;fill-opacity:0;stroke:#000000;stroke-width:10.6667;stroke-opacity:1"
       id="rect12"
       width="10.526049"
       height="9.9720459"
       x="82.823387"
       y="94.180435" />
    <rect
       style="fill:#303030;fill-opacity:0;stroke:#000000;stroke-width:11.0041;stroke-opacity:1"
       id="rect13"
       width="9.9620934"
       height="8.918417"
       x="110.20539"
       y="95.03466" />
    <rect
       style="fill:#000000;fill-opacity:1;stroke:#000000;stroke-width:10.0024;stroke-opacity:1"
       id="rect14"
       width="10.748172"
       height="10.552302"
       x="137.16132"
       y="93.901596" />
    <path
       style="fill:#000000;fill-opacity:1;stroke:#000000;stroke-width:0.8;stroke-dasharray:none;stroke-opacity:1"
       d="m 64.832797,213.30186 -35.452375,-0.19587 -1.175217,-1.56695 -0.140004,-7.84023 a 14.864742,14.864742 100.86398 0 1 1.154192,-6.01399 l 0.126187,-0.30091 a 6.8955277,6.8955277 137.15803 0 1 4.178463,-3.87499 l 1.114492,-0.37149 a 575.72086,575.72086 161.25369 0 0 5.925879,-2.01114 l 7.815347,-2.69985 5.092606,13.51499 3.238806,-7.38567 -1.485824,-2.71943 0.597452,-1.84294 4.735492,0.0465 0.391739,2.20005 -1.67185,2.16746 2.224834,6.75054 5.092606,-12.92738 2.546303,3.13391 -2.154564,2.74217 z"
       id="path14"
       inkscape:path-effect="#path-effect21"
       inkscape:original-d="m 64.832797,213.30186 -35.452375,-0.19587 -1.175217,-1.56695 -0.19587,-10.9687 2.546303,-6.07195 7.051302,-2.35043 10.772821,-3.72152 5.092606,13.51499 3.238806,-7.38567 -1.485824,-2.71943 0.597452,-1.84294 4.735492,0.0465 0.391739,2.20005 -1.67185,2.16746 2.224834,6.75054 5.092606,-12.92738 2.546303,3.13391 -2.154564,2.74217 z"
       sodipodi:nodetypes="ccccccccccccccccccc" />
    <path
       style="fill:#000000;fill-opacity:1;stroke:#000000;stroke-width:0.8;stroke-dasharray:none;stroke-opacity:1"
       d="m 46.812805,167.66427 -0.586307,-4.22141 a 10.201062,10.201062 97.739029 0 1 0.740957,-5.45226 l 0.808907,-1.8706 a 7.8000367,7.8000367 134.42705 0 1 3.920841,-4.00005 l 1.952901,-0.89127 a 11.872663,11.872663 172.18633 0 1 6.766979,-0.9286 l 0.90242,0.14137 a 8.2203151,8.2203151 17.052412 0 1 2.227872,0.68336 l 0.468092,0.22028 a 11.377971,11.377971 35.100558 0 1 3.200759,2.24958 l 0.878573,0.87857 a 8.5957083,8.5957083 52.972703 0 1 1.435905,1.90362 6.9682601,6.9682601 83.517215 0 1 0.394699,3.47351 v 4.09238 l -1.799944,0.19999 a 12.816441,12.816441 1.3750455 0 1 -3.440224,-0.0826 l -1.478019,-0.23649 a 11.2297,11.2297 17.82764 0 1 -3.247871,-1.0445 l -0.670571,-0.33529 a 47.938763,47.938763 28.316815 0 1 -2.580295,-1.39032 l -1.716901,-0.994 a 4.0395568,4.0395568 18.183964 0 0 -1.580741,-0.51923 8.8003986,8.8003986 173.67389 0 0 -3.335611,0.36979 3.2456976,3.2456976 140.88802 0 0 -1.834009,1.4911 l -0.01657,0.0269 a 7.1634536,7.1634536 109.22511 0 0 -1.011608,2.90085 z"
       id="path15"
       inkscape:path-effect="#path-effect23"
       inkscape:original-d="m 46.812805,167.66427 -0.979347,-7.0513 3.133911,-7.24717 7.926773,-3.61764 5.588221,0.87547 3.329781,1.56695 3.133912,3.13392 0.979347,1.76282 v 6.85543 l -3.52565,0.39174 -4.896737,-0.78348 -3.525651,-1.76282 -3.72152,-2.15457 -2.294084,-0.25324 -2.994392,0.84085 -1.566956,2.54631 z"
       sodipodi:nodetypes="ccccccccccccccccc" />
    <path
       style="fill:#303030;fill-opacity:0;stroke:#000000;stroke-width:0.8;stroke-dasharray:none;stroke-opacity:1"
       d="m 46.985931,167.84826 -1.783173,0.0302 a 0.87236533,0.87236533 134.9635 0 0 -0.857485,0.85858 l -0.01172,0.7481 a 4.4300047,4.4300047 74.397477 0 0 0.676804,2.42363 l 6.307441,10.054 3.72152,1.76283 5.092606,0.19587 4.113259,-1.17522 4.918462,-8.95262 1.245141,-1.9677 a 3.1293262,3.1293262 99.575619 0 0 0.402607,-2.38653 l -0.09344,-0.39919 a 1.2323625,1.2323625 31.197355 0 0 -1.507057,-0.91261 l -1.244195,0.32018 2.039827,-4.47139"
       id="path16"
       inkscape:path-effect="#path-effect22"
       inkscape:original-d="m 46.985931,167.84826 -2.627435,0.0445 -0.04549,2.90443 7.004795,11.16558 3.72152,1.76283 5.092606,0.19587 4.113259,-1.17522 4.918462,-8.95262 1.946814,-3.07655 -0.679603,-2.90342 -2.464153,0.63412 2.039827,-4.47139"
       sodipodi:nodetypes="cccccccccccc" />
    <path
       style="fill:#000000;fill-opacity:1;stroke:#000000;stroke-width:0.8;stroke-dasharray:none;stroke-opacity:1"
       d="m 74.430401,217.41512 75.834979,0.37823 a 7.6607178,7.6607178 160.81293 0 0 4.82383,-1.67861 7.0705936,7.0705936 120.92165 0 0 1.80224,-3.00875 l -3.2547,-19.87078 a 9.3585033,9.3585033 63.547565 0 0 -2.45859,-4.94144 13.445457,13.445457 29.489774 0 0 -5.76537,-3.26053 l -8.30416,-2.67876 -10.77282,-3.91739 -5.87608,20.76217 -4.84777,-11.1156 -0.049,-2.8401 1.95869,-3.42771 -1.61592,-2.1056 -4.45603,-0.0979 -1.32212,1.95869 1.90973,3.52566 0.049,3.13391 -4.3581,10.77282 -7.24717,-20.76217 -0.867463,0.93976 a 8.0382104,8.0382104 147.92547 0 1 -3.575379,2.24061 l -1.900912,0.57603 a 30.316865,30.316865 168.0083 0 1 -5.031741,1.06877 l -2.407649,0.30096 a 20.454374,20.454374 164.8382 0 0 -5.520308,1.49588 l -1.546336,0.66272 a 10.002922,10.002922 140.69684 0 0 -4.294195,3.51515 l -0.660439,0.95764 a 12.17763,12.17763 111.42585 0 0 -2.026536,5.16425 l -0.890726,6.13611 a 44.625358,44.625358 94.129721 0 0 -0.462866,6.41068 v 4.54494 a 5.4297883,5.4297883 65.993569 0 0 1.797457,4.03594 39.827419,39.827419 40.116502 0 0 1.160187,0.97754 z"
       id="path17"
       inkscape:path-effect="#path-effect24"
       inkscape:original-d="m 74.430401,217.41512 78.543659,0.39174 2.93804,-2.35044 0.97935,-2.35043 -3.72152,-22.72086 -3.91739,-4.11326 -12.14391,-3.91739 -10.77282,-3.91739 -5.87608,20.76217 -4.84777,-11.1156 -0.049,-2.8401 1.95869,-3.42771 -1.61592,-2.1056 -4.45603,-0.0979 -1.32212,1.95869 1.90973,3.52566 0.049,3.13391 -4.3581,10.77282 -7.24717,-20.76217 -2.350432,2.54631 -6.463693,1.95869 -7.834779,0.97935 -6.855432,2.93804 -3.917389,5.68022 -1.762825,12.1439 v 10.18522 l 1.958694,1.76282 z"
       sodipodi:nodetypes="cccccccccccccccccccccccccccc" />
    <path
       style="fill:#000000;fill-opacity:1;stroke:#000000;stroke-width:0.8;stroke-dasharray:none;stroke-opacity:1"
       d="m 96.401388,147.42047 -0.0336,-14.4251 2.206285,-3.91114 a 16.928662,16.928662 133.61586 0 1 5.724687,-6.00818 13.96114,13.96114 166.61862 0 1 6.27298,-1.49228 l 2.95661,-0.28429 a 24.242816,24.242816 0.70943802 0 1 5.23747,0.0648 l 1.22543,0.14854 a 10.878257,10.878257 20.563486 0 1 4.80799,1.80371 40.707701,40.707701 38.997656 0 1 5.1774,4.19222 7.6004836,7.6004836 65.440848 0 1 2.07087,4.53169 l 0.36026,2.52184 -0.0238,13.05053 -4.87298,0.46446 3.13391,-6.07195 -2.94584,0.0842 a 43.048377,43.048377 3.5547975 0 1 -7.77528,-0.48302 10.974441,10.974441 23.190559 0 1 -3.64753,-1.56263 l -2.40245,-1.36355 a 470.70847,470.70847 29.917123 0 1 -4.83174,-2.78029 l -2.29323,-1.33772 a 3.4295444,3.4295444 179.57468 0 0 -3.19317,0.0237 l -0.87094,0.34838 a 7.5553378,7.5553378 142.22623 0 0 -3.286671,2.547 3.9073652,3.9073652 104.07813 0 0 -0.694146,2.76798 l 0.133135,1.15383 a 62.263532,62.263532 85.607729 0 1 0.364379,4.7439 l 0.104373,2.71368 z"
       id="path18"
       sodipodi:nodetypes="cccccccccccccccccccccc"
       inkscape:path-effect="#path-effect25"
       inkscape:original-d="m 96.401388,147.42047 -0.0336,-14.4251 4.309122,-7.6389 5.28849,-3.32979 10.18521,-0.97934 6.46369,0.78347 4.89673,3.32979 4.11326,3.91739 0.78348,5.48434 -0.0238,13.05053 -4.87298,0.46446 3.13391,-6.07195 -6.85542,0.19587 -5.09261,-0.78348 -7.24717,-4.11326 -4.70087,-2.74217 -1.17521,-0.78348 -4.89674,1.9587 -2.154568,2.93804 0.587608,5.09261 0.19587,5.0926 z" />
    <path
       style="fill:#303030;fill-opacity:0;stroke:#000000;stroke-width:0.8;stroke-dasharray:none;stroke-opacity:1"
       d="m 96.69231,147.61634 -1.046359,0.15729 a 2.840914,2.840914 135.72968 0 0 -2.37539,2.31564 l -0.232559,1.31784 6.463692,10.57695 6.157796,7.69723 a 4.5156469,4.5156469 33.764704 0 0 2.26711,1.51568 l 1.56383,0.45402 a 14.554594,14.554594 3.5494808 0 0 6.35747,0.39435 20.843861,20.843861 164.31903 0 0 3.92805,-1.10272 10.522226,10.522226 140.2973 0 0 5.05247,-4.19505 l 6.99174,-10.6396 2.74217,-3.52565 -0.0878,-1.58082 a 3.5818277,3.5818277 58.282487 0 0 -1.79924,-2.91122 l -1.05098,-0.60056 -3.13391,0.24483"
       id="path19"
       sodipodi:nodetypes="ccccccccccccc"
       inkscape:path-effect="#path-effect26"
       inkscape:original-d="m 96.69231,147.61634 -3.0667,0.46098 -0.587608,3.32979 6.463692,10.57695 7.051306,8.81412 6.07195,1.76283 4.89674,-0.78348 5.28847,-1.95869 9.01,-13.71087 2.74217,-3.52565 -0.19587,-3.52565 -2.74217,-1.56695 -3.13391,0.24483" />
    <path
       style="fill:#000000;fill-opacity:1;stroke:#000000;stroke-width:0.8;stroke-dasharray:none;stroke-opacity:1"
       d="m 153.56167,180.78753 -1.02895,-3.08686 a 39.243832,39.243832 75.849641 0 1 -1.4335,-5.68585 15.803638,15.803638 92.895268 0 1 0.25816,-5.10461 24.922228,24.922228 104.7324 0 1 1.07046,-4.07095 l 0.35897,-1.07691 a 18.916476,18.916476 117.6524 0 1 2.81256,-5.36798 l 3.44665,-4.59553 0.87664,2.80526 a 13.474958,13.474958 57.578237 0 0 3.75622,5.91389 l 1.31487,1.2053 a 9.9549748,9.9549748 36.969981 0 0 1.5358,1.15605 l 0.63545,0.38833 a 174.03503,174.03503 32.226676 0 1 4.09653,2.58238 l 0.0451,0.0293 a 13.256852,13.256852 42.433367 0 1 3.1993,2.92479 l 0.79726,1.01469 1.37109,0.19587 -1.76283,-3.32979 -1.76282,-0.78347 3.91739,1.76282 0.97934,3.32978 0.39174,4.30913 -1.76282,5.28848 h 5.48434 l 1.49518,-2.59165 a 9.4656332,9.4656332 103.01824 0 0 1.24421,-5.38145 l -0.0394,-0.57121 a 879.02537,879.02537 85.909199 0 0 -0.31871,-4.45621 37.358132,37.358132 75.538957 0 0 -2.4188,-9.37912 l -0.19924,-0.5743 a 15.371125,15.371125 60.314983 0 0 -2.78788,-4.89063 l -2.93105,-3.46397 a 12.69558,12.69558 38.164361 0 0 -4.01398,-3.15465 10.231953,10.231953 13.876102 0 0 -3.87231,-0.95658 l -0.62894,-0.0449 a 72.227504,72.227504 2.0428158 0 0 -5.14601,-0.18355 16.720372,16.720372 167.55021 0 0 -6.4913,1.43312 14.603176,14.603176 141.30826 0 0 -4.52497,3.62411 26.936808,26.936808 121.95858 0 0 -5.87024,9.40948 26.424448,26.424448 99.75862 0 0 -1.35875,7.90033 l -0.15634,3.02263 a 20.067944,20.067944 83.323525 0 0 0.7812,6.67365 l 1.39321,4.76014 z"
       id="path20"
       inkscape:path-effect="#path-effect27"
       inkscape:original-d="m 153.56167,180.78753 -1.95869,-5.87609 -0.78348,-4.505 0.78348,-5.0926 2.15456,-6.46369 5.28848,-7.05131 1.95869,6.26783 4.70087,4.30913 3.52565,2.15456 3.91739,2.5463 2.15456,2.74218 1.37109,0.19587 -1.76283,-3.32979 -1.76282,-0.78347 3.91739,1.76282 0.97934,3.32978 0.39174,4.30913 -1.76282,5.28848 h 5.48434 l 2.93805,-5.09261 -0.39174,-5.68021 -0.39174,-5.28848 -3.32978,-9.5976 -6.4637,-7.63891 -3.91739,-1.9587 -5.48434,-0.39174 h -5.68022 l -5.0926,2.15457 -6.65956,6.85543 -3.13392,8.42239 -0.5876,11.36043 2.35043,8.03064 z" />
    <path
       style="fill:#000000;fill-opacity:1;stroke:#000000;stroke-width:0.8;stroke-dasharray:none;stroke-opacity:1"
       d="m 176.28253,188.0347 15.27782,6.65956 3.91739,2.93804 3.72152,8.03065 0.39174,7.24717 -37.80281,-0.19587 -0.19587,-5.0926 2.5463,1.95869 12.92739,-11.94804 5.87608,0.58761 z"
       id="path21" />
    <rect
       style="fill:#000000;fill-opacity:1;stroke:#000000;stroke-width:0.8;stroke-dasharray:none;stroke-opacity:1"
       id="rect21"
       width="74.513344"
       height="25.207115"
       x="78.668358"
       y="20.221092" />
  </g>
</svg>
