<?xml version="1.0" encoding="UTF-8" standalone="no"?>
<!-- Uploaded to: SVG Repo, www.svgrepo.com, Generator: SVG Repo Mixer Tools -->

<svg
   fill="#000000"
   height="300"
   width="300"
   version="1.1"
   id="Layer_1"
   viewBox="0 0 191.94225 191.94225"
   xml:space="preserve"
   sodipodi:docname="price-tag.svg"
   xmlns:inkscape="http://www.inkscape.org/namespaces/inkscape"
   xmlns:sodipodi="http://sodipodi.sourceforge.net/DTD/sodipodi-0.dtd"
   xmlns="http://www.w3.org/2000/svg"
   xmlns:svg="http://www.w3.org/2000/svg"><defs
   id="defs5"><inkscape:path-effect
     effect="fillet_chamfer"
     id="path-effect13"
     is_visible="true"
     lpeversion="1"
     nodesatellites_param="F,0,0,1,0,0,0,1 @ F,0,0,1,0,0,0,1 @ F,0,0,1,0,6.4016066,0,1 @ F,0,0,1,0,3.9227386,0,1 @ F,0,0,1,0,4.404626,0,1 @ F,0,0,1,0,2.968228,0,1 @ F,0,0,1,0,0,0,1 @ F,0,0,1,0,2.7062181,0,1 @ F,0,1,1,0,2.7062181,0,1 @ F,0,0,1,0,3.6412098,0,1 @ F,0,0,1,0,1.5215164,0,1"
     radius="0"
     unit="px"
     method="auto"
     mode="F"
     chamfer_steps="1"
     flexible="false"
     use_knot_distance="true"
     apply_no_radius="true"
     apply_with_radius="true"
     only_selected="false"
     hide_knots="false" /><inkscape:path-effect
     effect="fillet_chamfer"
     id="path-effect12"
     is_visible="true"
     lpeversion="1"
     nodesatellites_param="F,0,1,1,0,0,0,1 @ F,0,0,1,0,6.6243139,0,1 @ F,0,0,1,0,0,0,1 @ F,0,0,1,0,0,0,1 @ F,0,0,1,0,0,0,1 @ F,0,0,1,0,0,0,1"
     radius="0"
     unit="px"
     method="auto"
     mode="F"
     chamfer_steps="1"
     flexible="false"
     use_knot_distance="true"
     apply_no_radius="true"
     apply_with_radius="true"
     only_selected="false"
     hide_knots="false" /><inkscape:path-effect
     effect="fillet_chamfer"
     id="path-effect11"
     is_visible="true"
     lpeversion="1"
     nodesatellites_param="F,0,0,1,0,0,0,1 @ F,0,0,1,0,6.9457452,0,1 @ F,0,0,1,0,8.676587,0,1 @ F,0,0,1,0,0,0,1 @ F,0,0,1,0,0,0,1"
     radius="0"
     unit="px"
     method="auto"
     mode="F"
     chamfer_steps="1"
     flexible="false"
     use_knot_distance="true"
     apply_no_radius="true"
     apply_with_radius="true"
     only_selected="false"
     hide_knots="false" /><inkscape:path-effect
     effect="fillet_chamfer"
     id="path-effect10"
     is_visible="true"
     lpeversion="1"
     nodesatellites_param="F,0,0,1,0,0,0,1 @ F,0,0,1,0,9.7386502,0,1 @ F,0,0,1,0,6.9926773,0,1 @ F,0,0,1,0,5.7977624,0,1 @ F,0,0,1,0,4.9781307,0,1 @ F,0,0,1,0,6.5458314,0,1 @ F,0,0,1,0,8.2667227,0,1 @ F,0,0,1,0,5.4998812,0,1 @ F,0,0,1,0,0,0,1"
     radius="0"
     unit="px"
     method="auto"
     mode="F"
     chamfer_steps="1"
     flexible="false"
     use_knot_distance="true"
     apply_no_radius="true"
     apply_with_radius="true"
     only_selected="false"
     hide_knots="false" /><inkscape:path-effect
     effect="fillet_chamfer"
     id="path-effect9"
     is_visible="true"
     lpeversion="1"
     nodesatellites_param="F,0,0,1,0,0,0,1 @ F,0,0,1,0,4.1370302,0,1 @ F,0,0,1,0,4.6639269,0,1 @ F,0,0,1,0,5.3486319,0,1 @ F,0,0,1,0,0,0,1 @ F,0,0,1,0,4.7205695,0,1 @ F,0,0,1,0,7.3492499,0,1 @ F,0,0,1,0,0,0,1 @ F,0,0,1,0,9.2050687,0,1 @ F,0,0,1,0,0,0,1 @ F,0,0,1,0,6.2603327,0,1 @ F,0,0,1,0,6.9184176,0,1 @ F,0,0,1,0,4.0270009,0,1 @ F,0,0,1,0,7.8891577,0,1 @ F,0,0,1,0,0,0,1"
     radius="0"
     unit="px"
     method="auto"
     mode="F"
     chamfer_steps="1"
     flexible="false"
     use_knot_distance="true"
     apply_no_radius="true"
     apply_with_radius="true"
     only_selected="false"
     hide_knots="false" /><inkscape:path-effect
     effect="fillet_chamfer"
     id="path-effect8"
     is_visible="true"
     lpeversion="1"
     nodesatellites_param="F,0,0,1,0,0,0,1 @ F,0,0,1,0,0,0,1 @ F,0,0,1,0,4.9637799,0,1 @ F,0,0,1,0,0,0,1 @ F,0,0,1,0,0,0,1 @ F,0,0,1,0,0,0,1 @ F,0,0,1,0,0,0,1 @ F,0,0,1,0,6.803372,0,1 @ F,0,0,1,0,0,0,1 @ F,0,0,1,0,3.4214486,0,1 @ F,0,0,1,0,0,0,1"
     radius="0"
     unit="px"
     method="auto"
     mode="F"
     chamfer_steps="1"
     flexible="false"
     use_knot_distance="true"
     apply_no_radius="true"
     apply_with_radius="true"
     only_selected="false"
     hide_knots="false" /></defs><sodipodi:namedview
   id="namedview5"
   pagecolor="#ffffff"
   bordercolor="#000000"
   borderopacity="0.25"
   inkscape:showpageshadow="2"
   inkscape:pageopacity="0.0"
   inkscape:pagecheckerboard="0"
   inkscape:deskcolor="#d1d1d1"
   showgrid="false" />

<path
   style="fill:#000000;fill-opacity:0;stroke:#000000;stroke-width:6.82461;stroke-dasharray:none;stroke-opacity:1"
   d="m 69.265055,39.672943 -17.234966,-8.45489 0,0 a 4.4581125,4.4581125 106.46457 0 1 1.880096,-6.36154 l 2.347349,-1.117785 11.056396,0.325188 27.966171,4.877821 18.535719,6.178573 14.9793,4.766142 a 72.987439,72.987439 22.975444 0 1 12.47328,5.288285 l 6.69216,3.603471 0.47519,1.330514 a 2.8889968,2.8889968 120.16905 0 1 -2.21863,3.816716 l -2.15881,0.380967"
   id="path5"
   inkscape:path-effect="#path-effect8"
   inkscape:original-d="m 69.265055,39.672943 -17.234966,-8.45489 -2.601505,-4.227444 6.82895,-3.251881 11.056396,0.325188 27.966171,4.877821 18.535719,6.178573 21.46241,6.828949 12.68233,6.828949 1.62595,4.552633 -5.5282,0.975564" /><path
   style="fill:#000000;fill-opacity:0;stroke:#000000;stroke-width:6.7756;stroke-dasharray:none;stroke-opacity:1"
   d="m 88.754603,171.91297 8.140282,4.97932 a 23.117425,23.117425 14.730501 0 0 12.866705,3.38284 13.456604,13.456604 141.48681 0 0 8.10521,-6.45023 l 39.05149,-66.1901"
   id="path6"
   inkscape:path-effect="#path-effect11"
   inkscape:original-d="m 88.754603,171.91297 14.065437,8.60367 9.15889,-0.31866 5.88787,-6.37308 39.05149,-66.1901"
   sodipodi:nodetypes="ccccc" /><path
   style="fill:#000000;fill-opacity:0;stroke:#000000;stroke-width:6.82464;stroke-dasharray:none;stroke-opacity:1"
   d="M 86.500025,34.144746 9.1697415,108.03116 a 17.149105,17.149105 122.74182 0 0 -4.3502677,6.76537 20.238235,20.238235 96.141395 0 0 -0.8846984,8.22211 11.967541,11.967541 60.939002 0 0 4.1647332,7.49455 l 51.4099064,48.99061 4.371363,3.32224 a 10.935484,10.935484 13.886244 0 0 8.414677,2.08028 21.713746,21.713746 151.34009 0 0 9.027572,-4.93425 l 9.729628,-7.29721 78.953325,-77.452319 a 35.042277,35.042277 120.83164 0 0 9.1259,-15.289643 l 1.67268,-5.790021 0.56403,-40.892531 a 44.417071,44.417071 82.767562 0 0 -1.56086,-12.29948 12.527281,12.527281 44.780187 0 0 -7.58854,-7.530538 10.194596,10.194596 1.4941299 0 0 -4.22165,-0.110115 l -46.2927,-0.258618 a 32.343421,32.343421 166.61226 0 0 -14.91234,3.54925 l -6.959765,3.560814"
   id="path7"
   inkscape:path-effect="#path-effect9"
   inkscape:original-d="m 86.500025,34.144746 -80.3214524,76.744374 -2.601504,7.47933 0.650376,8.45489 55.2819704,52.68046 8.1297,6.17858 7.80451,-1.30076 15.60903,-11.70676 85.524455,-83.898523 4.22745,-14.63346 0.65037,-47.152268 -2.92669,-10.731206 -6.50376,-2.926693 -58.20867,-0.325188 -13.983075,7.154137" /><path
   style="fill:#000000;fill-opacity:0;stroke:#000000;stroke-width:6.82464;stroke-dasharray:none;stroke-opacity:1"
   d="m 137.06676,43.087418 5.9125,-2.034406 a 13.914494,13.914494 16.000281 0 1 15.33905,4.398484 12.577717,12.577717 80.167644 0 1 2.06444,11.911675 14.235407,14.235407 131.2557 0 1 -5.72947,6.53189 13.991263,13.991263 163.96828 0 1 -7.4316,2.135432 15.278485,15.278485 19.815495 0 1 -9.77299,-3.521477 13.568599,13.568599 66.791587 0 1 -4.77196,-11.129303 l 1.62593,-6.828949"
   id="path8"
   inkscape:path-effect="#path-effect10"
   inkscape:original-d="m 137.06676,43.087418 15.12126,-5.203009 10.40601,12.844928 -3.25189,9.755642 -7.15413,5.203008 -9.43046,0.650377 -9.91822,-7.154138 -0.1626,-7.804513 1.62593,-6.828949"
   sodipodi:nodetypes="ccccccccc" /><path
   style="fill:#000000;fill-opacity:0;stroke:#000000;stroke-width:6.82464;stroke-dasharray:none;stroke-opacity:1"
   d="m 43.677214,103.29483 5.313462,1.57715 A 13.771155,13.771155 170.84313 0 0 60.777677,102.972 l 4.759269,-3.313413 12.508187,-12.182999 8.45489,8.45489 -26.990609,26.015042"
   id="path11"
   inkscape:path-effect="#path-effect12"
   inkscape:original-d="m 43.677214,103.29483 11.663933,3.4621 10.195799,-7.098343 12.508187,-12.182999 8.45489,8.45489 -26.990609,26.015042"
   sodipodi:nodetypes="cccccc" /><path
   style="fill:#000000;fill-opacity:0;stroke:#000000;stroke-width:6.82464;stroke-dasharray:none;stroke-opacity:1"
   d="m 94.110662,103.088 -25.821173,25.36128 5.513328,4.65187 a 14.40165,14.40165 16.190609 0 0 11.235453,3.2622 8.0428547,8.0428547 145.22557 0 0 4.829253,-3.35322 9.2813706,9.2813706 102.55952 0 0 1.26364,-5.67202 8.5575561,8.5575561 73.707693 0 0 -1.5565,-5.32547 l -0.354779,-0.50727 5.532835,1.51762 a 6.2191086,6.2191086 171.8225 0 0 4.912462,-0.70593 l 0.288889,-0.17838 a 5.9753057,5.9753057 123.94065 0 0 2.75278,-4.0903 10.957195,10.957195 81.18521 0 0 -1.0553,-6.80519 l -0.68997,-1.35088 a 8.0362488,8.0362488 52.223152 0 0 -1.831581,-2.36324 z"
   id="path12"
   sodipodi:nodetypes="cccccccccccc"
   inkscape:path-effect="#path-effect13"
   inkscape:original-d="m 94.110662,103.088 -25.821173,25.36128 10.406021,8.78008 8.684833,-1.18578 3.530847,-4.30634 0.364639,-7.29223 -2.055945,-2.93964 8.142657,2.23347 4.894169,-3.02194 1.05108,-6.23098 -3.03828,-5.94862 z" /></svg>
