<?xml version="1.0" encoding="UTF-8" standalone="no"?>
<svg
   version="1.1"
   width="300"
   height="300"
   id="svg163"
   sodipodi:docname="credit.svg"
   inkscape:version="1.3.2 (091e20e, 2023-11-25, custom)"
   inkscape:export-filename="credit.svg"
   inkscape:export-xdpi="96"
   inkscape:export-ydpi="96"
   xmlns:inkscape="http://www.inkscape.org/namespaces/inkscape"
   xmlns:sodipodi="http://sodipodi.sourceforge.net/DTD/sodipodi-0.dtd"
   xmlns="http://www.w3.org/2000/svg"
   xmlns:svg="http://www.w3.org/2000/svg">
  <defs
     id="defs163">
    <inkscape:path-effect
       effect="fillet_chamfer"
       id="path-effect2"
       is_visible="true"
       lpeversion="1"
       nodesatellites_param="F,0,0,1,0,0,0,1 @ F,0,0,1,0,4.1092492,0,1 @ F,0,0,1,0,5.378556,0,1"
       radius="0"
       unit="px"
       method="auto"
       mode="F"
       chamfer_steps="1"
       flexible="false"
       use_knot_distance="true"
       apply_no_radius="true"
       apply_with_radius="true"
       only_selected="false"
       hide_knots="false" />
    <inkscape:path-effect
       effect="fillet_chamfer"
       id="path-effect1"
       is_visible="true"
       lpeversion="1"
       nodesatellites_param="F,0,0,1,0,0,0,1 @ F,0,0,1,0,0,0,1 @ F,0,0,1,0,0,0,1"
       radius="0"
       unit="px"
       method="auto"
       mode="F"
       chamfer_steps="1"
       flexible="false"
       use_knot_distance="true"
       apply_no_radius="true"
       apply_with_radius="true"
       only_selected="false"
       hide_knots="false" />
    <inkscape:path-effect
       effect="fillet_chamfer"
       id="path-effect193"
       is_visible="true"
       lpeversion="1"
       nodesatellites_param="F,0,0,1,0,0,0,1 @ F,0,0,1,0,1.6544076,0,1 @ F,0,0,1,0,1.4635474,0,1 @ F,0,0,1,0,1.7889668,0,1 @ F,0,0,1,0,1.4028767,0,1 @ F,0,0,1,0,1.3130209,0,1 @ F,0,0,1,0,0,0,1"
       radius="0"
       unit="px"
       method="auto"
       mode="F"
       chamfer_steps="1"
       flexible="false"
       use_knot_distance="true"
       apply_no_radius="true"
       apply_with_radius="true"
       only_selected="false"
       hide_knots="false" />
    <inkscape:path-effect
       effect="fillet_chamfer"
       id="path-effect192"
       is_visible="true"
       lpeversion="1"
       nodesatellites_param="F,0,0,1,0,0,0,1 @ F,0,0,1,0,0,0,1 @ F,0,0,1,0,2.1623731,0,1 @ F,0,1,1,0,2.1623731,0,1 @ F,0,0,1,0,1.263138,0,1 @ F,0,0,1,0,1.0781185,0,1 @ F,0,0,1,0,1.0781185,0,1 @ F,0,0,1,0,0.84252082,0,1 @ F,0,0,1,0,1.9248381,0,1 @ F,0,0,1,0,0,0,1"
       radius="0"
       unit="px"
       method="auto"
       mode="F"
       chamfer_steps="1"
       flexible="false"
       use_knot_distance="true"
       apply_no_radius="true"
       apply_with_radius="true"
       only_selected="false"
       hide_knots="false" />
    <inkscape:path-effect
       effect="fillet_chamfer"
       id="path-effect191"
       is_visible="true"
       lpeversion="1"
       nodesatellites_param="F,0,0,1,0,0,0,1 @ F,0,0,1,0,1.0596057,0,1 @ F,0,0,1,0,0.76329881,0,1 @ F,0,0,1,0,2.0874965,0,1 @ F,0,0,1,0,0,0,1 @ F,0,0,1,0,0,0,1 @ F,0,0,1,0,0,0,1 @ F,0,0,1,0,0,0,1 @ F,0,0,1,0,0,0,1"
       radius="0"
       unit="px"
       method="auto"
       mode="F"
       chamfer_steps="1"
       flexible="false"
       use_knot_distance="true"
       apply_no_radius="true"
       apply_with_radius="true"
       only_selected="false"
       hide_knots="false" />
    <inkscape:path-effect
       effect="fillet_chamfer"
       id="path-effect190"
       is_visible="true"
       lpeversion="1"
       nodesatellites_param="F,0,0,1,0,0,0,1 @ F,0,0,1,0,2.0323456,0,1 @ F,0,0,1,0,2.3023483,0,1 @ F,0,0,1,0,0,0,1 @ F,0,0,1,0,2.9992101,0,1 @ F,0,0,1,0,1.8910914,0,1 @ F,0,0,1,0,0,0,1"
       radius="0"
       unit="px"
       method="auto"
       mode="F"
       chamfer_steps="1"
       flexible="false"
       use_knot_distance="true"
       apply_no_radius="true"
       apply_with_radius="true"
       only_selected="false"
       hide_knots="false" />
    <inkscape:path-effect
       effect="fillet_chamfer"
       id="path-effect189"
       is_visible="true"
       lpeversion="1"
       nodesatellites_param="F,0,0,1,0,0,0,1 @ F,0,0,1,0,1.5499146,0,1 @ F,0,0,1,0,1.0532837,0,1 @ F,0,0,1,0,1.2612582,0,1 @ F,0,0,1,0,1.4719288,0,1 @ F,0,0,1,0,1.9433687,0,1 @ F,0,0,1,0,0,0,1"
       radius="0"
       unit="px"
       method="auto"
       mode="F"
       chamfer_steps="1"
       flexible="false"
       use_knot_distance="true"
       apply_no_radius="true"
       apply_with_radius="true"
       only_selected="false"
       hide_knots="false" />
    <inkscape:path-effect
       effect="fillet_chamfer"
       id="path-effect188"
       is_visible="true"
       lpeversion="1"
       nodesatellites_param="F,0,0,1,0,0,0,1 @ F,0,0,1,0,0,0,1 @ F,0,0,1,0,0,0,1 @ F,0,0,1,0,0,0,1 @ F,0,0,1,0,0,0,1 @ F,0,0,1,0,0,0,1 @ F,0,0,1,0,0,0,1"
       radius="0"
       unit="px"
       method="auto"
       mode="F"
       chamfer_steps="1"
       flexible="false"
       use_knot_distance="true"
       apply_no_radius="true"
       apply_with_radius="true"
       only_selected="false"
       hide_knots="false" />
    <inkscape:path-effect
       effect="fillet_chamfer"
       id="path-effect187"
       is_visible="true"
       lpeversion="1"
       nodesatellites_param="F,0,0,1,0,0,0,1 @ F,0,0,1,0,0.6645725,0,1 @ F,0,1,1,0,0.6645725,0,1 @ F,0,0,1,0,1.3049531,0,1 @ F,0,0,1,0,1.4622155,0,1 @ F,0,0,1,0,0,0,1"
       radius="0"
       unit="px"
       method="auto"
       mode="F"
       chamfer_steps="1"
       flexible="false"
       use_knot_distance="true"
       apply_no_radius="true"
       apply_with_radius="true"
       only_selected="false"
       hide_knots="false" />
    <inkscape:path-effect
       effect="fillet_chamfer"
       id="path-effect186"
       is_visible="true"
       lpeversion="1"
       nodesatellites_param="F,0,0,1,0,0,0,1 @ F,0,0,1,0,1.1645874,0,1 @ F,0,0,1,0,0.91921435,0,1 @ F,0,0,1,0,0.91327231,0,1 @ F,0,0,1,0,1.1645874,0,1 @ F,0,0,1,0,0,0,1 @ F,0,0,1,0,1.0394315,0,1 @ F,0,0,1,0,1.0735832,0,1 @ F,0,0,1,0,1.5944794,0,1 @ F,0,0,1,0,0,0,1 @ F,0,0,1,0,0,0,1 @ F,0,0,1,0,1.4374901,0,1 @ F,0,0,1,0,1.1970825,0,1 @ F,0,0,1,0,1.0733496,0,1 @ F,0,0,1,0,1.2852244,0,1 @ F,0,0,1,0,0,0,1 @ F,0,0,1,0,1.5227707,0,1 @ F,0,0,1,0,0.9835372,0,1 @ F,0,0,1,0,1.8433138,0,1 @ F,0,0,1,0,1.1805245,0,1 @ F,0,0,1,0,1.2031083,0,1 @ F,0,1,1,0,1.0394315,0,1 @ F,0,0,1,0,0,0,1"
       radius="0"
       unit="px"
       method="auto"
       mode="F"
       chamfer_steps="1"
       flexible="false"
       use_knot_distance="true"
       apply_no_radius="true"
       apply_with_radius="true"
       only_selected="false"
       hide_knots="false" />
    <inkscape:path-effect
       effect="fillet_chamfer"
       id="path-effect185"
       is_visible="true"
       lpeversion="1"
       nodesatellites_param="F,0,0,1,0,0,0,1 @ F,0,0,1,0,0,0,1 @ F,0,0,1,0,3.3312474,0,1 @ F,0,0,1,0,2.9484229,0,1 @ F,0,0,1,0,3.6694687,0,1 @ F,0,0,1,0,0,0,1 @ F,0,0,1,0,3.3587353,0,1 @ F,0,0,1,0,2.0238732,0,1 @ F,0,0,1,0,2.213932,0,1 @ F,0,0,1,0,2.7333526,0,1 @ F,0,0,1,0,3.3772166,0,1 @ F,0,0,1,0,0,0,1 @ F,0,0,1,0,0,0,1 @ F,0,0,1,0,2.7152699,0,1 @ F,0,0,1,0,2.0802149,0,1 @ F,0,0,1,0,2.4692949,0,1 @ F,0,0,1,0,2.4756313,0,1 @ F,0,0,1,0,0,0,1 @ F,0,0,1,0,0,0,1 @ F,0,0,1,0,1.9556812,0,1 @ F,0,0,1,0,1.8257371,0,1 @ F,0,0,1,0,3.2336502,0,1 @ F,0,1,1,0,2.4756313,0,1"
       radius="0"
       unit="px"
       method="auto"
       mode="F"
       chamfer_steps="1"
       flexible="false"
       use_knot_distance="true"
       apply_no_radius="true"
       apply_with_radius="true"
       only_selected="false"
       hide_knots="false" />
    <inkscape:path-effect
       effect="fillet_chamfer"
       id="path-effect184"
       is_visible="true"
       lpeversion="1"
       nodesatellites_param="F,0,0,1,0,0,0,1 @ F,0,0,1,0,0,0,1 @ F,0,0,1,0,0,0,1 @ F,0,0,1,0,0,0,1 @ F,0,0,1,0,0,0,1 @ F,0,0,1,0,0,0,1 @ F,0,0,1,0,0,0,1 @ F,0,0,1,0,0,0,1 @ F,0,0,1,0,0,0,1 @ F,0,0,1,0,0,0,1 @ F,0,0,1,0,0,0,1 @ F,0,0,1,0,0,0,1 @ F,0,0,1,0,0,0,1 @ F,0,0,1,0,0,0,1 @ F,0,0,1,0,0,0,1 @ F,0,0,1,0,0,0,1 @ F,0,0,1,0,0,0,1 @ F,0,0,1,0,0,0,1 @ F,0,0,1,0,0,0,1 @ F,0,0,1,0,0,0,1 @ F,0,0,1,0,0,0,1 @ F,0,0,1,0,0,0,1 @ F,0,0,1,0,0,0,1 @ F,0,0,1,0,0,0,1 @ F,0,0,1,0,0,0,1 @ F,0,0,1,0,0,0,1 @ F,0,0,1,0,0,0,1 @ F,0,0,1,0,0,0,1 @ F,0,0,1,0,0,0,1 @ F,0,0,1,0,0,0,1 @ F,0,0,1,0,0,0,1 @ F,0,0,1,0,0,0,1 @ F,0,0,1,0,0,0,1 @ F,0,0,1,0,0,0,1 @ F,0,0,1,0,0,0,1 @ F,0,0,1,0,0,0,1 @ F,0,0,1,0,0,0,1 @ F,0,0,1,0,0,0,1 @ F,0,0,1,0,0,0,1 @ F,0,0,1,0,0,0,1 @ F,0,0,1,0,0,0,1 @ F,0,0,1,0,0,0,1 @ F,0,0,1,0,0,0,1 @ F,0,0,1,0,0,0,1 @ F,0,0,1,0,0,0,1 @ F,0,0,1,0,0,0,1 @ F,0,0,1,0,0,0,1 @ F,0,0,1,0,0,0,1 @ F,0,0,1,0,0,0,1 @ F,0,0,1,0,0,0,1 @ F,0,0,1,0,0,0,1 @ F,0,0,1,0,0,0,1 @ F,0,0,1,0,0,0,1 @ F,0,0,1,0,0,0,1 @ F,0,0,1,0,0,0,1 @ F,0,0,1,0,0,0,1 @ F,0,0,1,0,0,0,1 @ F,0,0,1,0,0,0,1 @ F,0,0,1,0,0,0,1 @ F,0,0,1,0,0,0,1 @ F,0,0,1,0,0,0,1 @ F,0,0,1,0,0,0,1 @ F,0,0,1,0,0,0,1 @ F,0,0,1,0,0,0,1 @ F,0,0,1,0,0,0,1 @ F,0,0,1,0,0,0,1 @ F,0,0,1,0,0,0,1 @ F,0,0,1,0,0,0,1 @ F,0,0,1,0,0,0,1 @ F,0,0,1,0,0.9644361,0,1 @ F,0,0,1,0,6.1076862,0,1 @ F,0,0,1,0,6.4562987,0,1 @ F,0,0,1,0,0,0,1"
       radius="0"
       unit="px"
       method="auto"
       mode="F"
       chamfer_steps="1"
       flexible="false"
       use_knot_distance="true"
       apply_no_radius="true"
       apply_with_radius="true"
       only_selected="false"
       hide_knots="false" />
    <inkscape:path-effect
       effect="fillet_chamfer"
       id="path-effect183"
       is_visible="true"
       lpeversion="1"
       nodesatellites_param="F,0,0,1,0,0,0,1 @ F,0,0,1,0,0,0,1 @ F,0,0,1,0,0,0,1 @ F,0,0,1,0,3.8766402,0,1 @ F,0,0,1,0,3.5155078,0,1 @ F,0,0,1,0,4.239546,0,1 @ F,0,0,1,0,0,0,1 @ F,0,0,1,0,0,0,1 @ F,0,0,1,0,0,0,1"
       radius="0"
       unit="px"
       method="auto"
       mode="F"
       chamfer_steps="1"
       flexible="false"
       use_knot_distance="true"
       apply_no_radius="true"
       apply_with_radius="true"
       only_selected="false"
       hide_knots="false" />
    <inkscape:path-effect
       effect="fillet_chamfer"
       id="path-effect189-8"
       is_visible="true"
       lpeversion="1"
       nodesatellites_param="F,0,0,1,0,0,0,1 @ F,0,0,1,0,1.5499146,0,1 @ F,0,0,1,0,1.0532837,0,1 @ F,0,0,1,0,1.2612582,0,1 @ F,0,0,1,0,1.4719288,0,1 @ F,0,0,1,0,1.9433687,0,1 @ F,0,0,1,0,0,0,1"
       radius="0"
       unit="px"
       method="auto"
       mode="F"
       chamfer_steps="1"
       flexible="false"
       use_knot_distance="true"
       apply_no_radius="true"
       apply_with_radius="true"
       only_selected="false"
       hide_knots="false" />
  </defs>
  <sodipodi:namedview
     id="namedview163"
     pagecolor="#2a2a2a"
     bordercolor="#000000"
     borderopacity="0.25"
     inkscape:showpageshadow="2"
     inkscape:pageopacity="0.0"
     inkscape:pagecheckerboard="0"
     inkscape:deskcolor="#d1d1d1"
     showgrid="false"
     inkscape:zoom="2.0610853"
     inkscape:cx="82.238227"
     inkscape:cy="161.80796"
     inkscape:window-width="1920"
     inkscape:window-height="1001"
     inkscape:window-x="-9"
     inkscape:window-y="-9"
     inkscape:window-maximized="1"
     inkscape:current-layer="svg163" />
  <rect
     style="fill:#ffffff;fill-opacity:1;stroke:none;stroke-width:1.39358;stroke-opacity:1"
     id="rect168-9"
     width="37.358959"
     height="10.673988"
     x="80.858658"
     y="249.71596"
     ry="2.3423741" />
  <rect
     style="fill:#ffffff;fill-opacity:1;stroke:none;stroke-width:0.98812;stroke-opacity:1"
     id="rect168-7"
     width="19.2969"
     height="10.389395"
     x="129.3168"
     y="249.74098"
     ry="2.0875072" />
  <path
     d="m 176.65624,178.64671 c 0.79434,0.0116 1.58757,0.007 2.38193,3.4e-4 0.51138,0.003 1.02276,0.006 1.53413,0.01 0.23399,-0.002 0.46798,-0.004 0.70905,-0.006 1.94849,0.0464 3.6636,0.66304 5.08547,2.1411 0.16685,0.2833 0.16685,0.2833 0.33709,0.57233 0.11611,0.18801 0.23222,0.376 0.35186,0.5697 1.12243,2.24831 1.07532,4.40345 1.08132,6.89573 0.004,0.73248 0.0192,1.46397 0.0351,2.19625 0.0349,3.22173 -0.31516,5.87224 -2.49188,8.27246 -2.50504,1.60204 -4.63751,1.71262 -7.49973,1.69479 -0.70582,-0.004 -1.41083,0.007 -2.11659,0.0175 -2.72333,0.0149 -4.92405,-0.031 -6.97617,-2.21071 -0.21497,-0.33958 -0.21497,-0.33958 -0.43428,-0.68601 -0.22349,-0.34088 -0.22349,-0.34088 -0.4515,-0.68866 -1.11026,-2.01012 -0.76589,-4.66361 -0.78076,-6.93587 -0.005,-0.58186 -0.0139,-1.1637 -0.0258,-1.74544 -0.1235,-5.99641 -0.1235,-5.99641 1.21979,-7.71408 0.16205,-0.16189 0.32408,-0.32377 0.49103,-0.49055 0.15189,-0.17323 0.30378,-0.34646 0.46027,-0.52493 1.95589,-1.75269 4.68933,-1.40788 7.08966,-1.36896 z"
     fill="#fcfcfc"
     id="path15"
     style="stroke-width:0.326452" />
  <path
     d="m 166.58674,243.81764 c 18.70779,0 37.41557,0 56.69027,0 0,1.89831 0,3.79662 0,5.75245 -18.70779,0 -37.41558,0 -56.69027,0 0,-1.89831 0,-3.79662 0,-5.75245 z"
     fill="#f3f3f3"
     id="path17"
     style="stroke-width:0.326452" />
  <path
     d="m 225.79657,213.70182 c 8.73031,0 17.46061,0 26.45546,0 0,3.68496 0,7.36992 0,11.16654 -8.7303,0 -17.4606,0 -26.45546,0 0,-3.68495 0,-7.36991 0,-11.16654 z"
     fill="#f8f8f8"
     id="path20"
     style="stroke-width:0.326452" />
  <path
     d="m 196.19166,213.70182 c 8.7303,0 17.4606,0 26.45546,0 0,3.68496 0,7.36992 0,11.16654 -8.73031,0 -17.46061,0 -26.45546,0 0,-3.68495 0,-7.36991 0,-11.16654 z"
     fill="#f8f8f8"
     id="path21"
     style="stroke-width:0.326452" />
  <path
     d="m 166.58674,213.70182 c 8.73029,0 17.4606,0 26.45546,0 0,3.68496 0,7.36992 0,11.16654 -8.7303,0 -17.46061,0 -26.45546,0 0,-3.68495 0,-7.36991 0,-11.16654 z"
     fill="#f8f8f8"
     id="path22"
     style="stroke-width:0.326452" />
  <path
     d="m 255.4015,213.70182 c 8.62636,0 17.25274,0 26.14051,0 0,3.68496 0,7.36992 0,11.16654 -8.62636,0 -17.25274,0 -26.14051,0 0,-3.68495 0,-7.36991 0,-11.16654 z"
     fill="#fafafa"
     id="path23"
     style="stroke-width:0.326452" />
  <path
     d="m 259.18086,184.26278 c 1.9747,0 3.94941,0 5.98396,0 1.56664,1.6832 1.62582,2.59879 1.63871,4.8391 0.002,0.24159 0.004,0.4832 0.005,0.73211 0.003,0.51112 0.005,1.02223 0.006,1.53336 0.003,0.77758 0.0129,1.55487 0.0227,2.33239 0.002,0.49765 0.004,0.99531 0.005,1.49297 0.004,0.2306 0.008,0.46118 0.0118,0.69876 -0.008,1.88884 -0.43913,3.26976 -1.68985,4.61354 -1.97471,0 -3.94943,0 -5.98398,0 0,-5.35994 0,-10.71987 0,-16.24223 z"
     fill="#fafafa"
     id="path28"
     style="stroke-width:0.326452" />
  <path
     d="m 240.28409,184.26278 c 2.07864,0 4.15729,0 6.29892,0 1.23853,1.33068 1.31783,2.18199 1.35821,3.9971 -0.006,1.83773 -0.22841,2.75841 -1.35821,4.12401 0.20787,0 0.41573,0 0.62989,0 0.4027,0.86531 0.35065,1.47783 0.3457,2.44532 -9e-4,0.34896 -0.002,0.69792 -0.003,1.05744 -0.003,0.36553 -0.005,0.73106 -0.008,1.10767 -0.002,0.36815 -0.003,0.73629 -0.005,1.11559 -0.004,0.91118 -0.009,1.82232 -0.0154,2.73348 -1.03932,0 -2.07865,0 -3.14946,0 0,-2.45664 0,-4.91327 0,-7.44436 -0.3118,0 -0.6236,0 -0.94484,0 0,2.45664 0,4.91328 0,7.44436 -1.03932,0 -2.07865,0 -3.14946,0 0,-5.4716 0,-10.9432 0,-16.58061 z"
     fill="#f4f4f4"
     id="path29"
     style="stroke-width:0.326452" />
  <path
     d="m 235.24496,183.92439 c 1.18044,0.55143 1.86284,1.18538 2.51956,2.36867 0.0923,1.09444 0.0923,1.09444 0.0591,2.28406 -0.008,0.39606 -0.017,0.79213 -0.0258,1.20019 -0.011,0.30185 -0.0219,0.60369 -0.0332,0.91468 -1.03932,0 -2.07865,0 -3.14946,0 0,-1.22832 0,-2.45664 0,-3.72218 -0.41573,0 -0.83145,0 -1.25978,0 0,3.57329 0,7.14659 0,10.82816 0.46769,-0.1675 0.46769,-0.1675 0.94483,-0.33838 0.10393,-1.33998 0.20787,-2.67997 0.31495,-4.06056 1.03932,0 2.07865,0 3.14946,0 0.0256,0.81093 0.0443,1.62093 0.0591,2.4321 0.008,0.22792 0.0159,0.45583 0.024,0.69065 0.0206,1.51595 -0.15357,2.44711 -1.02788,3.64486 -1.40389,1.00556 -2.76337,0.93153 -4.40924,0.67675 -1.00017,-0.55912 -1.69345,-1.27026 -2.20462,-2.36866 -0.0426,-0.86484 -0.0669,-1.72004 -0.0751,-2.58544 -0.003,-0.2571 -0.005,-0.5142 -0.008,-0.77909 -0.005,-0.54499 -0.008,-1.09 -0.0102,-1.635 -0.005,-0.82967 -0.0192,-1.65889 -0.0332,-2.48845 -0.003,-0.53004 -0.006,-1.06007 -0.008,-1.59012 -0.008,-0.36968 -0.008,-0.36968 -0.0167,-0.74684 0.007,-1.73878 0.38486,-2.71537 1.41059,-4.04864 1.27375,-0.91233 2.28441,-0.86056 3.77935,-0.67676 z"
     fill="#f3f2f3"
     id="path30"
     style="stroke-width:0.326452" />
  <path
     d="m 244.69333,233.32786 c 2.3677,1.09961 3.38557,3.74758 4.38464,6.1556 0.87279,2.44286 1.07569,4.55472 1.06787,7.14696 0.005,0.33216 0.0101,0.66432 0.0153,1.00655 0.002,3.20357 -0.69363,5.82227 -2.12157,8.63728 -0.17783,0.35811 -0.35565,0.71622 -0.53886,1.08518 -0.62942,1.05303 -1.32656,1.85053 -2.17755,2.70044 -0.90843,-0.43753 -1.53448,-0.89989 -2.20462,-1.6919 0.46331,-1.03606 0.99221,-2.0049 1.55503,-2.98197 2.19492,-3.91693 2.75299,-8.02075 2.07915,-12.54253 -0.64212,-2.52829 -1.80085,-5.37067 -3.63418,-7.14695 0.40723,-0.97602 0.83758,-1.64865 1.57474,-2.36866 z"
     fill="#f6f6f6"
     id="path31"
     style="stroke-width:0.326452" />
  <path
     d="m 250.36236,184.26278 c 1.97471,0 3.94942,0 5.98397,0 0,1.00499 0,2.00997 0,3.04541 -0.93538,0 -1.87077,0 -2.83451,0 0,1.11666 0,2.23331 0,3.3838 0.9354,0 1.87078,0 2.83451,0 0,1.00499 0,2.00998 0,3.04543 -0.93538,0 -1.87077,0 -2.83451,0 0,1.22831 0,2.45663 0,3.72217 1.03932,0 2.07864,0 3.14946,0 0,1.11666 0,2.23331 0,3.3838 -2.07864,0 -4.15728,0 -6.29892,0 0,-5.4716 0,-10.9432 0,-16.58061 z"
     fill="#f5f5f5"
     id="path32"
     style="stroke-width:0.326452" />
  <path
     d="m 274.29826,183.92439 c 2.28651,0 4.57301,0 6.92881,0 0,1.11665 0,2.23332 0,3.3838 -0.62359,0 -1.24719,0 -1.88968,0 0,4.46662 0,8.93323 0,13.5352 -1.03932,0 -2.07864,0 -3.14946,0 0,-4.46661 0,-8.93323 0,-13.5352 -0.62359,0 -1.24718,0 -1.88967,0 0,-1.11665 0,-2.2333 0,-3.3838 z"
     fill="#f1f1f1"
     id="path33"
     style="stroke-width:0.326452" />
  <path
     d="m 241.54388,236.71165 c 2.19838,2.23075 3.75234,4.73857 3.9159,8.04314 0.007,0.56876 0.007,1.13767 9e-4,1.70643 -0.003,0.29829 -0.005,0.59656 -0.008,0.90387 -0.0932,3.86569 -1.22831,6.41908 -3.59428,9.31099 -0.72752,-0.67 -1.45505,-1.34 -2.20462,-2.03029 0.24034,-0.39082 0.48069,-0.78166 0.72831,-1.18433 1.80662,-3.16522 2.29953,-6.12655 1.63255,-9.85399 -0.5104,-1.80808 -1.3836,-3.30476 -2.36086,-4.86554 0.62358,-0.66999 1.24719,-1.33997 1.88967,-2.03028 z"
     fill="#f6f6f6"
     id="path34"
     style="stroke-width:0.326452" />
  <path
     d="m 269.25912,184.26278 c 0.93539,0 1.87078,0 2.83452,0 0,5.47159 0,10.9432 0,16.58061 -0.9354,0 -1.87079,0 -2.83452,0 0,-5.4716 0,-10.9432 0,-16.58061 z"
     fill="#fdfdfd"
     id="path38"
     style="stroke-width:0.326452" />
  <path
     d="m 238.07947,240.43383 c 1.06305,0.46452 1.46868,0.87225 1.94873,1.98799 0.15285,0.34416 0.15285,0.34416 0.3088,0.69526 0.90767,2.42659 0.74067,4.67286 -0.0738,7.0888 -0.41668,1.01714 -0.93727,1.85717 -1.55381,2.74802 -0.90842,-0.43753 -1.53447,-0.8999 -2.20462,-1.69191 0.59052,-1.94568 0.59052,-1.94568 0.94484,-2.70703 0.0467,-0.6543 0.0697,-1.31069 0.0787,-1.96684 0.008,-0.35113 0.0163,-0.70227 0.0246,-1.06404 -0.11597,-1.15545 -0.47048,-1.757 -1.04818,-2.72158 0.28271,-1.03272 0.84236,-1.65335 1.57473,-2.36867 z"
     fill="#f4f4f4"
     id="path40"
     style="stroke-width:0.326452" />
  <path
     d="m 240.59904,239.75708 c 0.25747,0.53489 0.51298,1.07087 0.76767,1.6073 0.21376,0.44753 0.21376,0.44753 0.43183,0.90411 1.04638,2.43278 1.04591,5.38662 0.4638,7.96647 -0.5969,1.71966 -1.29673,2.89829 -2.60814,4.07245 -0.3118,-0.55833 -0.62359,-1.11666 -0.94484,-1.6919 0.11003,-0.20021 0.22004,-0.40042 0.3334,-0.60671 0.14331,-0.26738 0.28663,-0.53476 0.43428,-0.81026 0.1425,-0.26301 0.285,-0.52604 0.43183,-0.79703 0.81409,-1.80384 1.03012,-3.98756 0.50071,-5.92297 -0.16159,-0.45244 -0.32929,-0.90242 -0.50318,-1.34957 -0.37541,-0.98967 -0.62225,-2.00273 -0.8821,-3.03351 0.6299,-0.33838 0.6299,-0.33838 1.57474,-0.33838 z"
     fill="#212121"
     id="path42"
     style="stroke-width:0.326452" />
  <path
     d="m 130.053,81.056905 c 1.55899,0 3.11797,0 4.72419,0 0,8.821562 0,17.643133 0,26.732015 -1.66291,0 -3.32583,0 -5.03913,0 0,-0.55832 0,-1.11665 0,-1.6919 0.10393,0.335 0.20786,0.67 0.31494,1.01514 1.35112,0 2.70224,0 4.0943,0 0,-8.486566 0,-16.973131 0,-25.716864 -3.20229,-0.0877 -3.20229,-0.0877 -4.0943,1.015135 0,-0.446661 0,-0.893323 0,-1.353526 z"
     fill="#383838"
     id="path45"
     style="stroke-width:0.326452" />
  <path
     d="m 233.35528,244.15602 c 0.78736,0.54987 0.78736,0.54987 1.25978,1.35351 0.20049,1.2655 0.0806,1.86436 -0.47242,3.00312 -0.95338,0.87067 -1.48169,0.97256 -2.70533,0.88164 -0.60159,-0.16258 -0.60159,-0.16258 -1.40865,-0.86048 -0.59013,-1.29565 -0.49356,-1.98657 -0.13779,-3.36266 0.71829,-1.40729 2.13402,-1.2711 3.46441,-1.01513 z"
     fill="#f6f6f6"
     id="path47"
     style="stroke-width:0.326452" />
  <path
     d="m 262.01537,186.96981 c 0.77948,0.16751 0.77948,0.16751 1.57472,0.33838 0,3.34997 0,6.69993 0,10.1514 -0.51965,0.11167 -1.03932,0.22333 -1.57472,0.33838 0,-3.5733 0,-7.14659 0,-10.82816 z"
     fill="#141414"
     id="path53"
     style="stroke-width:0.326452" />
  <path
     d="m 246.58301,242.12574 c 0.10393,0 0.20787,0 0.31495,0 0.33395,1.46084 0.36207,2.88254 0.35432,4.37779 9e-4,0.23358 0.003,0.46716 0.004,0.70782 -0.003,1.38559 -0.10858,2.69157 -0.358,4.05064 -0.10393,-0.33499 -0.20787,-0.66999 -0.31495,-1.01513 -0.20786,0 -0.41572,0 -0.62989,0 -0.10394,0.22332 -0.20787,0.44666 -0.31495,0.67675 -0.20786,0 -0.41573,0 -0.62989,0 0.0346,-1.1634 0.0757,-2.32643 0.1181,-3.48954 0.01,-0.33041 0.0195,-0.66083 0.0295,-1.00126 0.0122,-0.31733 0.0244,-0.63466 0.0369,-0.96161 0.01,-0.29239 0.0197,-0.58477 0.03,-0.88601 0.10043,-0.76755 0.10043,-0.76755 0.73033,-1.78269 0.20786,0 0.41572,0 0.6299,0 0,-0.22334 0,-0.44667 0,-0.67676 z"
     fill="#262626"
     id="path56"
     style="stroke-width:0.326452" />
  <path
     d="m 262.01537,186.96981 c 0.10392,0 0.20786,0 0.31494,0 0.10393,3.12663 0.20786,6.25326 0.31494,9.47465 0.10394,0 0.20787,0 0.31495,0 0.10393,-3.01498 0.20786,-6.02994 0.31495,-9.13627 0.10393,0 0.20786,0 0.31494,0 0,3.34997 0,6.69993 0,10.1514 -0.51965,0.11167 -1.03932,0.22333 -1.57472,0.33838 0,-3.5733 0,-7.14659 0,-10.82816 z"
     fill="#4a4a4a"
     id="path78"
     style="stroke-width:0.326452" />
  <path
     d="m 240.59904,247.8782 c 0.10393,0 0.20786,0 0.31494,0 -0.011,0.31209 -0.011,0.31209 -0.0222,0.63048 -0.005,0.2735 -0.0113,0.547 -0.0172,0.82878 -0.011,0.4063 -0.011,0.4063 -0.0222,0.82083 0.0117,0.86139 0.0117,0.86139 0.6914,1.78047 -0.51966,0.78164 -1.03931,1.56331 -1.57472,2.36865 -0.41573,-0.44665 -0.83146,-0.89332 -1.25979,-1.35351 0.11003,-0.22465 0.22005,-0.44928 0.3334,-0.68073 0.14332,-0.2988 0.28663,-0.59759 0.43428,-0.90543 0.1425,-0.29443 0.28501,-0.58887 0.43183,-0.89221 0.3626,-0.87498 0.5526,-1.65446 0.69017,-2.59733 z"
     fill="#242424"
     id="path82"
     style="stroke-width:0.326452" />
  <path
     d="m 113.99076,104.06674 c 0.10394,0 0.20786,0 0.31495,0 0,1.00499 0,2.00998 0,3.04542 1.24717,0 2.49437,0 3.77935,0 0,-0.89332 0,-1.78665 0,-2.70703 0.20786,0 0.41572,0 0.62989,0 0,1.11665 0,2.2333 0,3.38379 -1.55899,0 -3.11796,0 -4.72419,0 0,-1.22832 0,-2.45664 0,-3.72218 z"
     fill="#2f2f2f"
     id="path91"
     style="stroke-width:0.326452;fill:#ffffff;fill-opacity:1;stroke:none;stroke-opacity:1" />
  <path
     d="m 246.58301,250.24686 c -0.27558,2.62243 -0.27558,2.62243 -0.62989,3.38379 -0.41573,-0.11166 -0.83146,-0.22333 -1.25979,-0.33838 -0.25589,-0.57102 -0.25589,-0.57102 -0.31494,-1.35351 1.3242,-1.6919 1.3242,-1.6919 2.20462,-1.6919 z"
     fill="#1c1c1c"
     id="path101"
     style="stroke-width:0.326452" />
  <path
     d="m 240.91398,244.83277 c 0.10393,0 0.20787,0 0.31495,0 0.0232,0.36052 0.0232,0.36052 0.0467,0.72831 0.0236,0.31102 0.0471,0.62201 0.0714,0.94245 0.0219,0.31013 0.0438,0.62026 0.0665,0.93979 0.043,0.25518 0.0861,0.51036 0.13041,0.77326 0.20786,0.11165 0.41573,0.22332 0.62988,0.33838 -0.2362,2.28406 -0.2362,2.28406 -0.94483,3.04541 -0.20787,-0.11166 -0.41573,-0.22333 -0.62989,-0.33838 0.10392,-2.12164 0.20786,-4.24328 0.31495,-6.42922 z"
     fill="#141414"
     id="path105"
     style="stroke-width:0.326452" />
  <path
     d="m 243.43355,187.30819 c 0.41572,0 0.83146,0 1.25978,0 0,0.89333 0,1.78665 0,2.70705 -0.41573,0.11166 -0.83146,0.22332 -1.25978,0.33837 0,-1.00499 0,-2.00998 0,-3.04542 z"
     fill="#1d1d1d"
     id="path109"
     style="stroke-width:0.326452" />
  <path
     d="m 244.06345,236.71165 c 0.31179,0.44666 0.62358,0.89334 0.94483,1.35353 -0.41573,0.44666 -0.83146,0.89332 -1.25978,1.35352 -0.43325,-0.4364 -0.85277,-0.88889 -1.25979,-1.35352 0,-0.22333 0,-0.44666 0,-0.67676 0.77949,0.1675 0.77949,0.1675 1.57474,0.33838 0,-0.335 0,-0.66999 0,-1.01515 z"
     fill="#2a2a2a"
     id="path121"
     style="stroke-width:0.326452" />
  <path
     d="m 240.59904,239.75708 c 0.10393,0.33499 0.20786,0.66999 0.31494,1.01514 -0.61021,0.90939 -0.61021,0.90939 -1.25978,1.69189 -0.20786,-0.78165 -0.41573,-1.5633 -0.6299,-2.36865 0.6299,-0.33838 0.6299,-0.33838 1.57474,-0.33838 z"
     fill="#282828"
     id="path138"
     style="stroke-width:0.326452" />
  <path
     d="m 240.59904,247.8782 c 0.10393,0 0.20786,0 0.31494,0 0.19381,2.45715 0.19381,2.45715 -0.78736,3.72217 -0.25984,0.22333 -0.51966,0.44667 -0.78737,0.67677 0.0909,-0.28615 0.18189,-0.5723 0.27558,-0.8671 0.35675,-1.17118 0.675,-2.3454 0.98421,-3.53184 z"
     fill="#303030"
     id="path149"
     style="stroke-width:0.326452" />
  <path
     d="m 244.37839,254.64579 c 0.20786,0.335 0.41573,0.66999 0.62989,1.01514 -0.3118,0.335 -0.6236,0.67 -0.94483,1.01515 -0.10394,-0.44667 -0.20787,-0.89333 -0.31495,-1.35353 -0.31179,0.11167 -0.62359,0.22333 -0.94484,0.33838 0,-0.22333 0,-0.44667 0,-0.67676 0.51966,-0.11166 1.03932,-0.22333 1.57473,-0.33838 z"
     fill="#282828"
     id="path161"
     style="stroke-width:0.326452" />
  <rect
     style="fill:#ffffff;fill-opacity:1;stroke:none;stroke-width:1.6;stroke-opacity:1"
     id="rect163"
     width="222.69821"
     height="5.8221679"
     x="8.4906721"
     y="279.46442"
     ry="2.9110839" />
  <rect
     style="fill:#ffffff;fill-opacity:1;stroke:#ffffff;stroke-width:1.6;stroke-opacity:1"
     id="rect164"
     width="121.29533"
     height="4.3666272"
     x="26.442381"
     y="267.82007"
     ry="2.1833136" />
  <rect
     style="fill:#ffffff;fill-opacity:1;stroke:none;stroke-width:1.67462;stroke-opacity:1"
     id="rect165"
     width="22.515585"
     height="104.79543"
     x="44.324894"
     y="137.90602"
     ry="0" />
  <rect
     style="fill:#ffffff;fill-opacity:1;stroke:none;stroke-width:1.57509;stroke-opacity:1"
     id="rect166"
     width="20.350538"
     height="104.3422"
     x="89.784264"
     y="138.27652" />
  <rect
     style="fill:#ffffff;fill-opacity:1;stroke:none;stroke-width:1.36867;stroke-opacity:1"
     id="rect168"
     width="36.873779"
     height="10.431397"
     x="35.903412"
     y="249.50449"
     ry="2.1619639" />
  <path
     style="fill:#ffffff;fill-opacity:0.98987341;stroke:#ffffff;stroke-width:10.6667;stroke-dasharray:none;stroke-opacity:1"
     d="M 119.47589,39.178388 25.84558,102.37885 a 1.2514812,1.2514812 72.918884 0 0 0.70329,2.28876 l 185.06992,-0.46152 a 1.6358197,1.6358197 106.77359 0 0 0.90331,-2.9969 z"
     id="path168"
     inkscape:path-effect="#path-effect2"
     inkscape:original-d="M 119.47589,39.178388 22.439634,104.67786 216.99733,104.19268 Z" />
  <path
     style="fill:#ffffff;fill-opacity:1;stroke:none;stroke-width:1.6;stroke-opacity:1"
     d="m 133.11309,138.43075 26.75985,0.17154 0.17153,17.32528 -4.79456,3.06036 a 16.897532,16.897532 134.52874 0 0 -5.29944,5.38734 l -0.24269,0.39438 a 20.445444,20.445444 111.85115 0 0 -2.57907,6.43148 35.190787,35.190787 95.22088 0 0 -0.73154,8.00597 l 0.0958,5.36723 -0.34307,44.08514 -13.55146,-0.17154 z"
     id="path169"
     inkscape:path-effect="#path-effect183"
     inkscape:original-d="m 133.11309,138.43075 26.75985,0.17154 0.17153,17.32528 -8.06226,5.14613 -4.1169,6.68996 -1.54384,7.20457 0.17154,9.6061 -0.34307,44.08514 -13.55146,-0.17154 z"
     transform="matrix(0.84090093,0,0,1.1559399,21.096295,-21.465581)" />
  <rect
     style="fill:#ffffff;fill-opacity:1;stroke:#ffffff;stroke-width:1.30918;stroke-opacity:1"
     id="rect168-6"
     width="21.890633"
     height="16.076464"
     x="178.78082"
     y="139.53267" />
  <path
     style="fill:#a8cdf6;fill-opacity:1;stroke:#61a4ee;stroke-width:1.6;stroke-opacity:1"
     d="m 166.74932,163.7634 114.0176,-0.48518 h 2.73352 a 10.327943,10.327943 17.876952 0 1 6.03467,1.94646 l 0.96859,0.69739 a 15.189254,15.189254 46.739114 0 1 3.96719,4.21564 13.187135,13.187135 73.443709 0 1 1.71423,5.76635 l 0.35019,3.38514 -0.46392,73.29997 a 190.20451,190.20451 91.374281 0 1 -0.16109,6.71449 l -0.0185,0.44424 a 15.406038,15.406038 99.869959 0 1 -0.68792,3.95387 10.20561,10.20561 119.6149 0 1 -2.05925,3.62274 19.733982,19.733982 138.80382 0 1 -3.978,3.48201 12.32224,12.32224 161.88736 0 1 -4.68394,1.53209 l -0.56208,0.10539 -114.98796,-0.24259 -0.6879,-0.0491 a 9.9859833,9.9859833 19.297029 0 1 -4.94587,-1.73173 98.861705,98.861705 35.713886 0 1 -3.30812,-2.37834 l -0.24184,-0.18138 a 8.5852568,8.5852568 52.916236 0 1 -2.86186,-3.78629 18.583494,18.583494 76.586259 0 1 -0.78277,-3.2822 l -0.27154,-1.44822 0.24259,-83.45118 v -0.95541 c 0,-1.08009 0.42227,-2.72432 0.85545,-3.71303 0.32696,-0.74626 0.65121,-1.49329 1.11397,-2.20075 0.54951,-0.84009 1.72732,-1.98983 2.39721,-2.74346 a 10.625659,10.625659 148.97945 0 1 3.6531,-2.19679 5.9126377,5.9126377 173.1236 0 1 2.65426,-0.32009 z"
     id="path170"
     sodipodi:nodetypes="cccccccccccccccccccccccc"
     inkscape:path-effect="#path-effect185"
     inkscape:original-d="m 166.74932,163.7634 114.0176,-0.48518 h 6.06477 l 6.06476,4.36663 2.91109,4.60922 0.72777,7.03513 -0.48518,76.65864 -0.24259,5.82218 -1.21295,3.88145 -3.15368,3.63886 -3.63886,2.4259 -3.88145,0.72777 -114.98796,-0.24259 -3.39627,-0.24259 -3.88145,-2.66849 -3.88145,-2.91109 -1.21295,-3.15368 -0.72778,-3.88145 0.24259,-83.45118 v -2.91109 c 1.04116,-1.78187 1.37753,-3.76512 3.15368,-5.33699 l 1.94073,-2.18332 3.66918,-1.72845 z"
     transform="translate(-0.57893901,-1.1364358)" />
  <path
     style="fill:#ffffff;fill-opacity:0;stroke:#ffffff;stroke-width:1.6;stroke-opacity:1"
     d="m 241.13509,238.28465 0.91107,1.54557 a 17.783142,17.783142 64.462848 0 1 1.33128,2.78643 6.1798616,6.1798616 79.177506 0 1 0.29382,1.53699 l 3e-4,0.003 a 17.913195,17.913195 88.018525 0 1 0.087,2.51478 34.072241,34.072241 94.519975 0 1 -0.21729,2.74868 l -0.0573,0.48937 a 8.0552611,8.0552611 110.24758 0 1 -1.30759,3.54486 l -1.13224,1.69059"
     id="path174-7"
     inkscape:path-effect="#path-effect189-8"
     inkscape:original-d="m 241.13509,238.28465 1.69814,2.88077 0.72777,1.94072 0.24259,2.30461 -0.091,2.54721 -0.45486,3.88145 -2.21364,3.30529"
     transform="matrix(0.77268731,0,0,0.59095152,51.41356,100.6112)" />
  <rect
     style="fill:#ffffff;fill-opacity:1;stroke:#ffffff;stroke-width:1.6;stroke-opacity:1"
     id="rect172-5"
     width="25.108131"
     height="8.9758539"
     x="229.70834"
     y="215.22316" />
  <rect
     style="fill:#ffffff;fill-opacity:1;stroke:#ffffff;stroke-width:1.6;stroke-opacity:1"
     id="rect172-75"
     width="25.108131"
     height="8.9758539"
     x="260.34171"
     y="215.28519" />
  <rect
     style="fill:#ffffff;fill-opacity:1;stroke:#ffffff;stroke-width:1.6;stroke-opacity:1"
     id="rect172-7"
     width="25.108131"
     height="8.9758539"
     x="198.62218"
     y="215.1584" />
  <path
     style="fill:#ffffff;fill-opacity:1;stroke:#ffffff;stroke-width:1.6;stroke-opacity:1"
     d="m 174.48332,178.60736 -1.44452,0.0672 a 6.2400275,6.2400275 166.76552 0 0 -2.22883,0.52419 l -0.15552,0.0686 a 4.1271794,4.1271794 143.63783 0 0 -1.44505,1.06391 l -0.85783,0.98398 a 3.5587262,3.5587262 116.68858 0 0 -0.79462,1.58072 l -0.073,0.33506 a 10.659586,10.659586 96.06044 0 0 -0.24445,2.30245 l 0.0267,8.78164 0.32092,1.12323 a 16.801867,16.801867 70.514495 0 0 0.69212,1.95606 l 0.20453,0.48123 a 3.4081888,3.4081888 49.489974 0 0 1.33032,1.55705 l 0.1634,0.10213 a 10.084637,10.084637 23.020843 0 0 2.89898,1.23179 l 1.36422,0.34105 h 4.66986 l 2.87754,-0.32423 a 8.0960761,8.0960761 163.50311 0 0 2.71418,-0.80382 l 0.19077,-0.0954 a 4.2197805,4.2197805 137.59718 0 0 1.70079,-1.55319 l 0.38179,-0.61674 a 7.6476242,7.6476242 113.77009 0 0 0.85687,-1.94552 l 0.14698,-0.52012 a 8.7902321,8.7902321 97.462469 0 0 0.33033,-2.52186 l -0.0415,-2.77831 0.0357,-2.17694 a 15.608952,15.608952 85.367999 0 0 -0.24478,-3.02126 l -0.10183,-0.56571 a 7.8057166,7.8057166 72.614451 0 0 -0.58315,-1.86248 7.3531142,7.3531142 51.252941 0 0 -1.95442,-2.43541 6.0358807,6.0358807 29.753331 0 0 -1.50117,-0.85811 8.4356442,8.4356442 16.276481 0 0 -1.42513,-0.4161 4.8940212,4.8940212 2.1754872 0 0 -1.17772,-0.0447 l -2.32656,-0.0209 z"
     id="path171"
     inkscape:path-effect="#path-effect186"
     inkscape:original-d="m 174.48332,178.60736 -2.60785,0.12129 -2.06202,0.90972 -2.06202,2.36526 -0.51551,2.36525 0.0303,9.94622 0.60648,2.12267 1.03101,2.4259 2.42591,1.5162 2.91109,0.72777 h 4.66986 l 4.30599,-0.48518 2.5472,-1.2736 1.57684,-2.54721 0.78842,-2.78979 -0.0607,-4.06339 0.0607,-3.69951 -0.54583,-3.03238 -0.97036,-2.12267 -1.81943,-1.57684 -1.33425,-0.60648 -1.30392,-0.33351 -3.36595,-0.0303 z"
     sodipodi:nodetypes="cccccccccccccccccccccccc" />
  <rect
     style="fill:#ffffff;fill-opacity:1;stroke:#ffffff;stroke-width:1.51892;stroke-opacity:1"
     id="rect171"
     width="54.6287"
     height="4.2305455"
     x="167.34093"
     y="244.45808" />
  <rect
     style="fill:#ffffff;fill-opacity:1;stroke:#ffffff;stroke-width:1.6;stroke-opacity:1"
     id="rect172"
     width="25.108131"
     height="8.9758539"
     x="167.33704"
     y="214.96474" />
  <ellipse
     style="fill:#ffffff;fill-opacity:1;stroke:#ffffff;stroke-width:1.6;stroke-opacity:1"
     id="path172"
     cx="231.71954"
     cy="246.72984"
     rx="1.955887"
     ry="1.9255632" />
  <path
     style="fill:#ffffff;fill-opacity:0;stroke:#ffffff;stroke-width:1.6;stroke-opacity:1"
     d="m 241.13509,238.28465 0.91107,1.54557 a 17.783142,17.783142 64.462848 0 1 1.33128,2.78643 6.1798616,6.1798616 79.177506 0 1 0.29382,1.53699 l 3e-4,0.003 a 17.913195,17.913195 88.018525 0 1 0.087,2.51478 34.072241,34.072241 94.519975 0 1 -0.21729,2.74868 l -0.0573,0.48937 a 8.0552611,8.0552611 110.24758 0 1 -1.30759,3.54486 l -1.13224,1.69059"
     id="path174"
     inkscape:path-effect="#path-effect189"
     inkscape:original-d="m 241.13509,238.28465 1.69814,2.88077 0.72777,1.94072 0.24259,2.30461 -0.091,2.54721 -0.45486,3.88145 -2.21364,3.30529" />
  <path
     style="fill:#ffffff;fill-opacity:0;stroke:#ffffff;stroke-width:1.6;stroke-opacity:1"
     d="m 244.44039,235.04 2.08746,2.89926 a 10.097905,10.097905 65.625732 0 1 1.64451,3.62962 17.174361,17.174361 84.659619 0 1 0.36175,3.86994 v 1.85201 l -0.10244,1.04809 a 24.680416,24.680416 102.51132 0 1 -1.28997,5.81321 l -0.19184,0.54354 a 13.311814,13.311814 117.52544 0 1 -1.73053,3.32072 l -0.50602,0.70652"
     id="path175"
     inkscape:path-effect="#path-effect190"
     inkscape:original-d="m 244.44039,235.04 3.27497,4.54858 0.81875,3.54789 v 4.15436 l -0.39421,4.03307 -1.81943,5.15505 -1.60716,2.24396" />
  <path
     style="fill:#ffffff;fill-opacity:0;stroke:#ffffff;stroke-width:1.6;stroke-opacity:1"
     d="m 236.28328,189.52394 -0.0385,-1.85171 a 2.6869988,2.6869988 67.285879 0 0 -0.76124,-1.81856 1.597826,1.597826 19.547298 0 0 -1.14596,-0.40687 l -0.51562,-0.009 a 2.0420063,2.0420063 135.40029 0 0 -2.07875,2.0499 l 0.0219,5.43283 -0.0303,5.15505 c 0,0 -0.37817,2.18774 2.7898,2.00137 1.03101,-0.0606 1.78911,-1.84975 1.78911,-1.84975 l 0.0303,-3.85113"
     id="path176"
     sodipodi:nodetypes="ccccccscc"
     inkscape:path-effect="#path-effect191"
     inkscape:original-d="m 236.28328,189.52394 -0.0606,-2.91109 -1.12197,-1.15231 -3.36596,-0.0606 0.0303,7.52031 -0.0303,5.15505 c 0,0 -0.37817,2.18774 2.7898,2.00137 1.03101,-0.0606 1.78911,-1.84975 1.78911,-1.84975 l 0.0303,-3.85113"
     transform="matrix(1.0056068,0,0,0.96244202,-1.130232,6.800048)" />
  <path
     style="fill:#ffffff;fill-opacity:0;stroke:#ffffff;stroke-width:1.6;stroke-opacity:1"
     d="m 241.83254,200.25857 0.091,-14.70706 1.71908,0 a 3.0268522,3.0268522 35.541887 0 1 2.86338,2.04559 3.7825278,3.7825278 102.02655 0 1 -0.54939,2.5788 21.752975,21.752975 155.10517 0 0 -2.72308,1.19475 l -0.0728,0.0364 a 0.42567049,0.42567049 84.980403 0 0 0.0693,0.78882 l 0.91818,0.27243 a 4.1433743,4.1433743 28.019773 0 1 1.4577,0.77571 3.1888508,3.1888508 72.583863 0 1 0.81614,2.60172 l -0.0106,4.44318"
     id="path177"
     sodipodi:nodetypes="cccccccccc"
     inkscape:path-effect="#path-effect192"
     inkscape:original-d="m 241.83254,200.25857 0.091,-14.70706 h 3.88145 l 0.92487,2.69883 -0.77325,1.92556 -1.75878,0.7126 -2.00138,1.00069 2.75948,0.81875 1.47071,1.21295 -0.0152,6.36801" />
  <path
     style="fill:#ffffff;fill-opacity:0;stroke:#ffffff;stroke-width:1.6;stroke-opacity:1"
     d="m 255.50859,185.76378 h -3.69951 l 0.0152,13.70637 3.72982,0.0151"
     id="path178"
     sodipodi:nodetypes="cccc" />
  <path
     style="fill:#ffffff;fill-opacity:0;stroke:#ffffff;stroke-width:1.6;stroke-opacity:1"
     d="m 252.14264,192.08629 3.32047,-0.0151"
     id="path179"
     sodipodi:nodetypes="cc" />
  <path
     style="fill:#ffffff;fill-opacity:0;stroke:#ffffff;stroke-width:1.6;stroke-opacity:1"
     d="m 260.45137,185.58184 1.25749,0.0393 a 4.6965507,4.6965507 21.195799 0 1 2.90972,1.12836 2.9364181,2.9364181 68.641194 0 1 0.71078,1.81753 14.403072,14.403072 86.511409 0 1 0.18952,3.10886 l -0.1405,4.39075 a 4.0026985,4.0026985 111.14752 0 1 -0.95526,2.46952 2.8394705,2.8394705 155.28895 0 1 -2.16141,0.99464 l -1.81034,-3e-5 z"
     id="path180"
     sodipodi:nodetypes="cccccccc"
     inkscape:path-effect="#path-effect193"
     inkscape:original-d="m 260.45137,185.58184 2.91109,0.091 1.69814,1.45554 0.5155,2.75947 -0.24259,7.58096 -1.75878,2.06202 -3.12336,-5e-5 z" />
  <path
     style="fill:#ffffff;fill-opacity:0;stroke:#ffffff;stroke-width:1.6;stroke-opacity:1"
     d="m 270.60986,185.06633 -0.0607,15.28321"
     id="path181"
     sodipodi:nodetypes="cc" />
  <path
     style="fill:#ffffff;fill-opacity:0;stroke:#ffffff;stroke-width:1.6;stroke-opacity:1"
     d="m 275.21908,185.52119 h 4.91246"
     id="path182" />
  <path
     style="fill:#ffffff;fill-opacity:0;stroke:#ffffff;stroke-width:1.6;stroke-opacity:1"
     d="m 277.76628,200.44051 v -14.79802 0"
     id="path183"
     sodipodi:nodetypes="ccc" />
  <rect
     style="fill:#ffffff;fill-opacity:1;stroke:none;stroke-width:3.32413;stroke-dasharray:none;stroke-opacity:1"
     id="rect168-6-7"
     width="37.992535"
     height="10.830389"
     x="37.32592"
     y="122.21836"
     ry="1.8954662" />
  <rect
     style="fill:#ffffff;fill-opacity:1;stroke:none;stroke-width:1.39938;stroke-opacity:1"
     id="rect168-6-7-0"
     width="38.942829"
     height="10.32514"
     x="80.818947"
     y="122.35577"
     ry="2.0355256" />
  <rect
     style="fill:#ffffff;fill-opacity:1;stroke:none;stroke-width:1.38284;stroke-opacity:1"
     id="rect168-6-7-6"
     width="38.942829"
     height="10.082549"
     x="126.93751"
     y="122.6869"
     ry="2.0981286" />
  <rect
     style="fill:#ffffff;fill-opacity:1;stroke:none;stroke-width:1.31066;stroke-opacity:1"
     id="rect168-6-7-6-1"
     width="35.584282"
     height="9.9121618"
     x="172.19754"
     y="122.91166"
     ry="2.0532062" />
</svg>
