<?xml version="1.0" encoding="UTF-8" standalone="no"?>
<!-- Created with Inkscape (http://www.inkscape.org/) -->

<svg
   version="1.1"
   id="svg1"
   width="300"
   height="300"
   viewBox="0 0 300 300"
   sodipodi:docname="franchise.svg"
   inkscape:version="1.3.2 (091e20e, 2023-11-25, custom)"
   xmlns:inkscape="http://www.inkscape.org/namespaces/inkscape"
   xmlns:sodipodi="http://sodipodi.sourceforge.net/DTD/sodipodi-0.dtd"
   xmlns="http://www.w3.org/2000/svg"
   xmlns:svg="http://www.w3.org/2000/svg">
  <defs
     id="defs1">
    <inkscape:path-effect
       effect="fillet_chamfer"
       id="path-effect3"
       is_visible="true"
       lpeversion="1"
       nodesatellites_param="F,0,0,1,0,0,0,1 @ F,0,0,1,0,0,0,1 @ F,0,0,1,0,3.1224995,0,1 @ F,0,0,1,0,3.7546047,0,1 @ F,0,0,1,0,3.145795,0,1 @ F,0,0,1,0,2.9045878,0,1 @ F,0,0,1,0,2.4102296,0,1 @ F,0,0,1,0,0,0,1 @ F,0,0,1,0,2.7817244,0,1 @ F,0,0,1,0,4.3680379,0,1 @ F,0,0,1,0,3.4682176,0,1 @ F,0,0,1,0,2.4981178,0,1 @ F,0,0,1,0,0,0,1 @ F,0,0,1,0,2.8300729,0,1 @ F,0,0,1,0,2.8748097,0,1 @ F,0,0,1,0,3.2002006,0,1 @ F,0,0,1,0,4.9044706,0,1 @ F,0,0,1,0,0,0,1 @ F,0,0,1,0,3.2523031,0,1 @ F,0,0,1,0,3.6831212,0,1 @ F,0,0,1,0,4.9044706,0,1 @ F,0,1,1,0,4.0667895,0,1 @ F,0,0,1,0,0,0,1 @ F,0,0,1,0,3.9296711,0,1 @ F,0,0,1,0,3.0572036,0,1 @ F,0,0,1,0,4.0667895,0,1 @ F,0,0,1,0,0,0,1 @ F,0,0,1,0,0,0,1 @ F,0,0,1,0,0,0,1 @ F,0,0,1,0,0,0,1"
       radius="0"
       unit="px"
       method="auto"
       mode="F"
       chamfer_steps="1"
       flexible="false"
       use_knot_distance="true"
       apply_no_radius="true"
       apply_with_radius="true"
       only_selected="false"
       hide_knots="false" />
    <inkscape:path-effect
       effect="fillet_chamfer"
       id="path-effect2"
       is_visible="true"
       lpeversion="1"
       nodesatellites_param="F,0,0,1,0,3.0005092,0,1 @ F,0,0,1,0,1.6190697,0,1 @ F,0,0,1,0,2.3855152,0,1 @ F,0,0,1,0,0,0,1 @ F,0,0,1,0,2.2236334,0,1 @ F,0,0,1,0,4.6819623,0,1 @ F,0,0,1,0,4.8678894,0,1 @ F,0,1,1,0,4.8678894,0,1 @ F,0,0,1,0,3.220187,0,1"
       radius="0"
       unit="px"
       method="auto"
       mode="F"
       chamfer_steps="1"
       flexible="false"
       use_knot_distance="true"
       apply_no_radius="true"
       apply_with_radius="true"
       only_selected="false"
       hide_knots="false" />
    <inkscape:path-effect
       effect="fillet_chamfer"
       id="path-effect1"
       is_visible="true"
       lpeversion="1"
       nodesatellites_param="F,0,0,1,0,2.6234902,0,1 @ F,0,0,1,0,1.8622616,0,1 @ F,0,0,1,0,3.3833255,0,1 @ F,0,0,1,0,3.2953679,0,1 @ F,0,0,1,0,4.2124524,0,1 @ F,0,0,1,0,0,0,1 @ F,0,0,1,0,4.2124524,0,1 @ F,0,1,1,0,1.8541294,0,1 @ F,0,0,1,0,1.8541294,0,1"
       radius="0"
       unit="px"
       method="auto"
       mode="F"
       chamfer_steps="1"
       flexible="false"
       use_knot_distance="true"
       apply_no_radius="true"
       apply_with_radius="true"
       only_selected="false"
       hide_knots="false" />
    <inkscape:path-effect
       effect="fillet_chamfer"
       id="path-effect22"
       is_visible="true"
       lpeversion="1"
       nodesatellites_param="F,0,0,1,0,0,0,1 @ F,0,0,1,0,1.3876712,0,1 @ F,0,0,1,0,0,0,1 @ F,0,0,1,0,6.3950153,0,1 @ F,0,0,1,0,0,0,1 @ F,0,0,1,0,0,0,1 @ F,0,0,1,0,0,0,1"
       radius="0"
       unit="px"
       method="auto"
       mode="F"
       chamfer_steps="1"
       flexible="false"
       use_knot_distance="true"
       apply_no_radius="true"
       apply_with_radius="true"
       only_selected="false"
       hide_knots="false" />
    <inkscape:path-effect
       effect="fillet_chamfer"
       id="path-effect3-2"
       is_visible="true"
       lpeversion="1"
       nodesatellites_param="F,0,0,1,0,0,0,1 @ F,0,0,1,0,0,0,1 @ F,0,0,1,0,3.1224995,0,1 @ F,0,0,1,0,3.7546047,0,1 @ F,0,0,1,0,3.145795,0,1 @ F,0,0,1,0,2.9045878,0,1 @ F,0,0,1,0,2.4102296,0,1 @ F,0,0,1,0,0,0,1 @ F,0,0,1,0,2.7817244,0,1 @ F,0,0,1,0,4.3680379,0,1 @ F,0,0,1,0,3.4682176,0,1 @ F,0,0,1,0,2.4981178,0,1 @ F,0,0,1,0,0,0,1 @ F,0,0,1,0,2.8300729,0,1 @ F,0,0,1,0,2.8748097,0,1 @ F,0,0,1,0,3.2002006,0,1 @ F,0,0,1,0,4.9044706,0,1 @ F,0,0,1,0,0,0,1 @ F,0,0,1,0,3.2523031,0,1 @ F,0,0,1,0,3.6831212,0,1 @ F,0,0,1,0,4.9044706,0,1 @ F,0,1,1,0,4.0667895,0,1 @ F,0,0,1,0,0,0,1 @ F,0,0,1,0,3.9296711,0,1 @ F,0,0,1,0,3.0572036,0,1 @ F,0,0,1,0,4.0667895,0,1 @ F,0,0,1,0,0,0,1 @ F,0,0,1,0,0,0,1 @ F,0,0,1,0,0,0,1 @ F,0,0,1,0,0,0,1"
       radius="0"
       unit="px"
       method="auto"
       mode="F"
       chamfer_steps="1"
       flexible="false"
       use_knot_distance="true"
       apply_no_radius="true"
       apply_with_radius="true"
       only_selected="false"
       hide_knots="false" />
    <inkscape:path-effect
       effect="fillet_chamfer"
       id="path-effect1-7"
       is_visible="true"
       lpeversion="1"
       nodesatellites_param="F,0,0,1,0,2.6234902,0,1 @ F,0,0,1,0,1.8622616,0,1 @ F,0,0,1,0,3.3833255,0,1 @ F,0,0,1,0,3.2953679,0,1 @ F,0,0,1,0,4.2124524,0,1 @ F,0,0,1,0,0,0,1 @ F,0,0,1,0,4.2124524,0,1 @ F,0,1,1,0,1.8541294,0,1 @ F,0,0,1,0,1.8541294,0,1"
       radius="0"
       unit="px"
       method="auto"
       mode="F"
       chamfer_steps="1"
       flexible="false"
       use_knot_distance="true"
       apply_no_radius="true"
       apply_with_radius="true"
       only_selected="false"
       hide_knots="false" />
    <inkscape:path-effect
       effect="fillet_chamfer"
       id="path-effect22-6"
       is_visible="true"
       lpeversion="1"
       nodesatellites_param="F,0,0,1,0,0,0,1 @ F,0,0,1,0,1.3876712,0,1 @ F,0,0,1,0,0,0,1 @ F,0,0,1,0,6.3950153,0,1 @ F,0,0,1,0,0,0,1 @ F,0,0,1,0,0,0,1 @ F,0,0,1,0,0,0,1"
       radius="0"
       unit="px"
       method="auto"
       mode="F"
       chamfer_steps="1"
       flexible="false"
       use_knot_distance="true"
       apply_no_radius="true"
       apply_with_radius="true"
       only_selected="false"
       hide_knots="false" />
    <inkscape:path-effect
       effect="fillet_chamfer"
       id="path-effect2-3"
       is_visible="true"
       lpeversion="1"
       nodesatellites_param="F,0,0,1,0,3.0005092,0,1 @ F,0,0,1,0,1.6190697,0,1 @ F,0,0,1,0,2.3855152,0,1 @ F,0,0,1,0,0,0,1 @ F,0,0,1,0,2.2236334,0,1 @ F,0,0,1,0,4.6819623,0,1 @ F,0,0,1,0,4.8678894,0,1 @ F,0,1,1,0,4.8678894,0,1 @ F,0,0,1,0,3.220187,0,1"
       radius="0"
       unit="px"
       method="auto"
       mode="F"
       chamfer_steps="1"
       flexible="false"
       use_knot_distance="true"
       apply_no_radius="true"
       apply_with_radius="true"
       only_selected="false"
       hide_knots="false" />
    <inkscape:path-effect
       effect="fillet_chamfer"
       id="path-effect3-2-2"
       is_visible="true"
       lpeversion="1"
       nodesatellites_param="F,0,0,1,0,0,0,1 @ F,0,0,1,0,0,0,1 @ F,0,0,1,0,3.1224995,0,1 @ F,0,0,1,0,3.7546047,0,1 @ F,0,0,1,0,3.145795,0,1 @ F,0,0,1,0,2.9045878,0,1 @ F,0,0,1,0,2.4102296,0,1 @ F,0,0,1,0,0,0,1 @ F,0,0,1,0,2.7817244,0,1 @ F,0,0,1,0,4.3680379,0,1 @ F,0,0,1,0,3.4682176,0,1 @ F,0,0,1,0,2.4981178,0,1 @ F,0,0,1,0,0,0,1 @ F,0,0,1,0,2.8300729,0,1 @ F,0,0,1,0,2.8748097,0,1 @ F,0,0,1,0,3.2002006,0,1 @ F,0,0,1,0,4.9044706,0,1 @ F,0,0,1,0,0,0,1 @ F,0,0,1,0,3.2523031,0,1 @ F,0,0,1,0,3.6831212,0,1 @ F,0,0,1,0,4.9044706,0,1 @ F,0,1,1,0,4.0667895,0,1 @ F,0,0,1,0,0,0,1 @ F,0,0,1,0,3.9296711,0,1 @ F,0,0,1,0,3.0572036,0,1 @ F,0,0,1,0,4.0667895,0,1 @ F,0,0,1,0,0,0,1 @ F,0,0,1,0,0,0,1 @ F,0,0,1,0,0,0,1 @ F,0,0,1,0,0,0,1"
       radius="0"
       unit="px"
       method="auto"
       mode="F"
       chamfer_steps="1"
       flexible="false"
       use_knot_distance="true"
       apply_no_radius="true"
       apply_with_radius="true"
       only_selected="false"
       hide_knots="false" />
    <inkscape:path-effect
       effect="fillet_chamfer"
       id="path-effect1-7-3"
       is_visible="true"
       lpeversion="1"
       nodesatellites_param="F,0,0,1,0,2.6234902,0,1 @ F,0,0,1,0,1.8622616,0,1 @ F,0,0,1,0,3.3833255,0,1 @ F,0,0,1,0,3.2953679,0,1 @ F,0,0,1,0,4.2124524,0,1 @ F,0,0,1,0,0,0,1 @ F,0,0,1,0,4.2124524,0,1 @ F,0,1,1,0,1.8541294,0,1 @ F,0,0,1,0,1.8541294,0,1"
       radius="0"
       unit="px"
       method="auto"
       mode="F"
       chamfer_steps="1"
       flexible="false"
       use_knot_distance="true"
       apply_no_radius="true"
       apply_with_radius="true"
       only_selected="false"
       hide_knots="false" />
    <inkscape:path-effect
       effect="fillet_chamfer"
       id="path-effect22-6-7"
       is_visible="true"
       lpeversion="1"
       nodesatellites_param="F,0,0,1,0,0,0,1 @ F,0,0,1,0,1.3876712,0,1 @ F,0,0,1,0,0,0,1 @ F,0,0,1,0,6.3950153,0,1 @ F,0,0,1,0,0,0,1 @ F,0,0,1,0,0,0,1 @ F,0,0,1,0,0,0,1"
       radius="0"
       unit="px"
       method="auto"
       mode="F"
       chamfer_steps="1"
       flexible="false"
       use_knot_distance="true"
       apply_no_radius="true"
       apply_with_radius="true"
       only_selected="false"
       hide_knots="false" />
    <inkscape:path-effect
       effect="fillet_chamfer"
       id="path-effect2-3-1"
       is_visible="true"
       lpeversion="1"
       nodesatellites_param="F,0,0,1,0,3.0005092,0,1 @ F,0,0,1,0,1.6190697,0,1 @ F,0,0,1,0,2.3855152,0,1 @ F,0,0,1,0,0,0,1 @ F,0,0,1,0,2.2236334,0,1 @ F,0,0,1,0,4.6819623,0,1 @ F,0,0,1,0,4.8678894,0,1 @ F,0,1,1,0,4.8678894,0,1 @ F,0,0,1,0,3.220187,0,1"
       radius="0"
       unit="px"
       method="auto"
       mode="F"
       chamfer_steps="1"
       flexible="false"
       use_knot_distance="true"
       apply_no_radius="true"
       apply_with_radius="true"
       only_selected="false"
       hide_knots="false" />
  </defs>
  <sodipodi:namedview
     id="namedview1"
     pagecolor="#696969"
     bordercolor="#332020"
     borderopacity="0.6627451"
     inkscape:showpageshadow="2"
     inkscape:pageopacity="0.0"
     inkscape:pagecheckerboard="0"
     inkscape:deskcolor="#d1d1d1"
     inkscape:zoom="3.0742187"
     inkscape:cx="227.2122"
     inkscape:cy="105.88056"
     inkscape:window-width="1920"
     inkscape:window-height="1001"
     inkscape:window-x="-9"
     inkscape:window-y="-9"
     inkscape:window-maximized="1"
     inkscape:current-layer="g1"
     showgrid="false" />
  <g
     inkscape:groupmode="layer"
     inkscape:label="Image"
     id="g1">
    <path
       style="fill:#e92727;fill-opacity:1;stroke:#535353;stroke-width:6.4;stroke-opacity:1"
       d="m 111.13277,3.939509 -19.862171,18.830504 -0.151634,12.16618 a 9.6296003,9.6296003 72.748238 0 0 1.761779,5.673239 12.500182,12.500182 38.043605 0 0 5.588801,4.373303 l 0.09886,0.03954 a 11.430854,11.430854 6.4143923 0 0 6.028097,0.677693 l 0.20409,-0.03222 a 13.256362,13.256362 158.66866 0 0 5.2858,-2.064182 l 1.43296,-0.955302 a 15.524134,15.524134 137.48484 0 0 3.51109,-3.219029 l 1.09662,-1.370784 1.29324,2.424826 a 8.4157636,8.4157636 43.636834 0 0 3.823,3.645281 15.43061,15.43061 9.4984427 0 0 8.01658,1.341291 11.084016,11.084016 157.28644 0 0 5.58077,-2.336037 l 0.43151,-0.323632 a 10.582188,10.582188 129.84759 0 0 3.11568,-3.733254 l 0.50924,-1.018475 2.8165,3.621221 a 16.390626,16.390626 42.328697 0 0 4.1235,3.75587 l 0.89265,0.569392 a 6.8604951,6.8604951 9.7968148 0 0 5.22554,0.902307 l 0.24331,-0.0559 a 13.889599,13.889599 154.08659 0 0 5.6099,-2.725644 14.283294,14.283294 121.74475 0 0 3.89826,-6.300801 l 0.28564,-0.742304 2.2531,2.946366 a 36.861897,36.861897 47.55257 0 0 4.37306,4.781156 7.4058631,7.4058631 14.897628 0 0 5.1891,1.380483 18.502772,18.502772 164.86309 0 0 6.13647,-1.659987 7.4539179,7.4539179 129.36853 0 0 3.23052,-3.937315 l 2.23833,-3.835989 2.2951,4.060551 a 10.806058,10.806058 40.540071 0 0 5.61309,4.800825 l 1.26484,0.474317 a 10.292945,10.292945 4.0136121 0 0 5.84695,0.410255 16.689624,16.689624 153.67507 0 0 6.15019,-3.042941 l 3.1902,-2.339552 0.0361,-8.592171 0.0395,-10.849441 -20.20719,-17.7757182 z"
       id="path1"
       sodipodi:nodetypes="ccccccccccccccccccccccccccccccc"
       inkscape:path-effect="#path-effect3"
       inkscape:original-d="m 111.13277,3.939509 -19.862171,18.830504 -0.190548,15.288437 3.903431,5.52986 6.505718,2.602287 6.18043,-0.975857 5.85515,-3.903431 2.60228,-3.252859 2.60229,4.879288 6.18043,2.927573 7.15629,-0.650571 5.20458,-3.903431 1.62643,-3.252859 4.554,5.855146 5.70237,3.63734 6.16408,-1.416149 4.62785,-3.732615 2.047,-5.31958 4.22871,5.52986 3.90343,3.578145 h 5.20458 l 5.79594,-2.084761 4.28792,-7.34853 4.22872,7.481576 7.80686,2.927573 5.85514,-1.301144 6.46965,-4.74455 0.0361,-8.592171 0.0395,-10.849441 -20.20719,-17.7757182 z" />
    <path
       style="fill:#ffffff;fill-opacity:0;stroke:#535353;stroke-width:6.44818;stroke-opacity:1"
       d="M 91.970218,23.74569 207.69025,23.095479"
       id="path2"
       sodipodi:nodetypes="cc" />
    <path
       style="fill:#ffffff;fill-opacity:0;stroke:#535353;stroke-width:6.77118;stroke-opacity:1"
       d="M 129.5594,4.6578782 116.35537,22.382627 c -0.0681,2.665363 -0.0947,6.964081 0,16.020446"
       id="path3"
       sodipodi:nodetypes="ccc" />
    <path
       style="fill:#ffffff;fill-opacity:0;stroke:#535353;stroke-width:6.72342;stroke-opacity:1"
       d="M 143.7252,5.8778196 138.91061,25.523908 V 38.985116"
       id="path4" />
    <path
       style="fill:#ffffff;fill-opacity:0;stroke:#535353;stroke-width:6.59297;stroke-opacity:1"
       d="m 157.78121,5.8660476 4.19443,17.7490044 V 37.18782"
       id="path5" />
    <path
       style="fill:#ffffff;fill-opacity:0;stroke:#535353;stroke-width:6.83905;stroke-opacity:1"
       d="m 169.99991,4.3563175 14.77148,18.8951235 1.05511,14.772552"
       id="path6" />
    <path
       style="fill:#ffffff;fill-opacity:1;stroke:#ffffff;stroke-width:6.4;stroke-opacity:0.663291"
       d="m 91.983931,109.01389 a 3.6679372,3.6679372 113.13895 0 0 -1.229166,2.87632 123.02613,123.02613 88.424512 0 0 0.151341,5.50243 3.5901092,3.5901092 40.437022 0 0 3.302505,2.81433 l 0.73777,0.1714 a 36.746495,36.746495 6.5395832 0 0 8.315629,0.95327 h 101.6681 l 1.01058,-0.64966 a 7.3242473,7.3242473 117.36 0 0 3.35639,-6.48621 l -0.0559,-1.25833 a 3.6882938,3.6882938 60.766187 0 0 -1.61807,-2.89119 l -2.45838,-1.66301 a 6.050001,6.050001 17.038606 0 0 -3.38987,-1.03889 H 96.631114 a 7.3025086,7.3025086 160.23873 0 0 -4.647183,1.66954 z"
       id="path8"
       inkscape:path-effect="#path-effect1"
       inkscape:original-d="m 94.007624,107.34435 -3.252859,2.6836 v 3.98475 l 0.243965,5.44854 8.050825,1.8704 H 204.93011 l 4.55401,-2.92757 -0.32529,-7.31893 -5.52986,-3.74079 z"
       sodipodi:nodetypes="cccccccccc" />
    <path
       style="fill:#ffffff;fill-opacity:0;stroke:#535353;stroke-width:6.4;stroke-opacity:1"
       d="m 31.878018,121.65693 48.792884,-0.32529"
       id="path9" />
    <path
       style="fill:#ffffff;fill-opacity:0;stroke:#535353;stroke-width:6.4;stroke-opacity:1"
       d="m 25.965369,121.56334 -4.011661,0.0222 -3.347932,0.0185"
       id="path10"
       sodipodi:nodetypes="ccc" />
    <path
       style="fill:#ffffff;fill-opacity:0;stroke:#535353;stroke-width:6.4;stroke-opacity:1"
       d="m 220.86912,120.68107 46.1906,0.65057"
       id="path11" />
    <path
       style="fill:#ffffff;fill-opacity:0;stroke:#535353;stroke-width:6.4;stroke-opacity:1"
       d="m 276.49301,121.33164 6.50572,-0.65057"
       id="path12" />
    <path
       style="fill:#ffffff;fill-opacity:0;stroke:#535353;stroke-width:6.4;stroke-opacity:1"
       d="m 244.28971,48.386277 -0.0813,19.557814"
       id="path13"
       sodipodi:nodetypes="cc" />
    <path
       style="fill:#ffffff;fill-opacity:0;stroke:#535353;stroke-width:6.4;stroke-opacity:1"
       d="m 255.0648,57.697585 -22.1601,0.203304"
       id="path14"
       sodipodi:nodetypes="cc" />
    <path
       style="fill:#ffffff;fill-opacity:0;stroke:#535353;stroke-width:6.4;stroke-opacity:1"
       d="m 268.03558,22.405263 -0.0575,21.033656"
       id="path15"
       sodipodi:nodetypes="cc" />
    <path
       style="fill:#ffffff;fill-opacity:0;stroke:#535353;stroke-width:6.4;stroke-opacity:1"
       d="m 278.23445,32.508857 -21.14527,-0.09697"
       id="path16"
       sodipodi:nodetypes="cc" />
    <path
       style="fill:#ffffff;fill-opacity:0;stroke:#000000;stroke-width:6.4;stroke-opacity:0.663291"
       d="m 112.79697,97.260483 0.0733,-26.261635 a 90.038131,90.038131 89.277001 0 0 -0.035,-2.774792 l -0.0831,-2.963573 a 344.95969,344.95969 0.00860823 0 0 9.09837,0.0014 l 17.17195,-0.132017 -0.12547,6.433065 0.26948,25.447842"
       id="path17"
       inkscape:path-effect="#path-effect22"
       inkscape:original-d="m 112.79697,97.260483 0.0772,-27.649301 -0.12198,-4.350699 2.70354,0.05053 23.56678,-0.18118 -0.12547,6.433065 0.26948,25.447842"
       sodipodi:nodetypes="ccccccc" />
    <path
       style="fill:#7cb0f1;fill-opacity:1;stroke:none;stroke-width:6.4;stroke-opacity:0.663291"
       d="m 179.5424,65.142136 -23.08725,-0.07939 a 6.3344937,6.3344937 165.85941 0 0 -3.04222,0.766444 l -0.0779,0.04223 a 3.9896065,3.9896065 120.64524 0 0 -2.08723,3.522967 l 0.0101,2.493792 0.1044,7.650157 a 3.8338539,3.8338539 59.104449 0 0 1.97535,3.30115 13.255133,13.255133 8.9318291 0 0 6.258,0.98354 l 18.24976,0.427124 a 13.184659,13.184659 161.76784 0 0 8.54168,-2.813674 l 0.29274,-10.461119 a 5.5810648,5.5810648 61.618664 0 0 -2.65163,-4.907906 8.4533276,8.4533276 11.655364 0 0 -4.48581,-0.925323 z"
       id="path18"
       sodipodi:nodetypes="cccccccccc"
       inkscape:path-effect="#path-effect2"
       inkscape:original-d="m 182.54289,65.152453 -27.7068,-0.09527 -3.59788,1.951716 0.0197,4.879288 0.13474,9.873583 3.52233,1.951715 27.797,0.650572 3.67512,-2.927573 0.38282,-13.680046 z" />
    <path
       style="fill:#ffffff;fill-opacity:0;stroke:#535353;stroke-width:6.4;stroke-opacity:1"
       d="m 150.60737,132.71665 -0.32529,28.29987 -26.99873,16.91487"
       id="path19" />
    <path
       style="fill:#ffffff;fill-opacity:0;stroke:#535353;stroke-width:6.4;stroke-opacity:1"
       d="m 178.58196,177.93139 -26.99873,-16.2643"
       id="path20" />
    <path
       style="fill:#e92727;fill-opacity:1;stroke:#535353;stroke-width:6.4;stroke-opacity:1"
       d="m 111.13277,3.939509 -19.862171,18.830504 -0.151634,12.16618 a 9.6296003,9.6296003 72.748238 0 0 1.761779,5.673239 12.500182,12.500182 38.043605 0 0 5.588801,4.373303 l 0.09886,0.03954 a 11.430854,11.430854 6.4143923 0 0 6.028097,0.677693 l 0.20409,-0.03222 a 13.256362,13.256362 158.66866 0 0 5.2858,-2.064182 l 1.43296,-0.955302 a 15.524134,15.524134 137.48484 0 0 3.51109,-3.219029 l 1.09662,-1.370784 1.29324,2.424826 a 8.4157636,8.4157636 43.636834 0 0 3.823,3.645281 15.43061,15.43061 9.4984427 0 0 8.01658,1.341291 11.084016,11.084016 157.28644 0 0 5.58077,-2.336037 l 0.43151,-0.323632 a 10.582188,10.582188 129.84759 0 0 3.11568,-3.733254 l 0.50924,-1.018475 2.8165,3.621221 a 16.390626,16.390626 42.328697 0 0 4.1235,3.75587 l 0.89265,0.569392 a 6.8604951,6.8604951 9.7968148 0 0 5.22554,0.902307 l 0.24331,-0.0559 a 13.889599,13.889599 154.08659 0 0 5.6099,-2.725644 14.283294,14.283294 121.74475 0 0 3.89826,-6.300801 l 0.28564,-0.742304 2.2531,2.946366 a 36.861897,36.861897 47.55257 0 0 4.37306,4.781156 7.4058631,7.4058631 14.897628 0 0 5.1891,1.380483 18.502772,18.502772 164.86309 0 0 6.13647,-1.659987 7.4539179,7.4539179 129.36853 0 0 3.23052,-3.937315 l 2.23833,-3.835989 2.2951,4.060551 a 10.806058,10.806058 40.540071 0 0 5.61309,4.800825 l 1.26484,0.474317 a 10.292945,10.292945 4.0136121 0 0 5.84695,0.410255 16.689624,16.689624 153.67507 0 0 6.15019,-3.042941 l 3.1902,-2.339552 0.0361,-8.592171 0.0395,-10.849441 -20.20719,-17.7757182 z"
       id="path1-3"
       sodipodi:nodetypes="ccccccccccccccccccccccccccccccc"
       inkscape:path-effect="#path-effect3-2"
       inkscape:original-d="m 111.13277,3.939509 -19.862171,18.830504 -0.190548,15.288437 3.903431,5.52986 6.505718,2.602287 6.18043,-0.975857 5.85515,-3.903431 2.60228,-3.252859 2.60229,4.879288 6.18043,2.927573 7.15629,-0.650571 5.20458,-3.903431 1.62643,-3.252859 4.554,5.855146 5.70237,3.63734 6.16408,-1.416149 4.62785,-3.732615 2.047,-5.31958 4.22871,5.52986 3.90343,3.578145 h 5.20458 l 5.79594,-2.084761 4.28792,-7.34853 4.22872,7.481576 7.80686,2.927573 5.85514,-1.301144 6.46965,-4.74455 0.0361,-8.592171 0.0395,-10.849441 -20.20719,-17.7757182 z"
       transform="matrix(0.87808471,0,0,0.88188789,-63.161972,179.9992)" />
    <path
       style="fill:#ffffff;fill-opacity:0;stroke:#535353;stroke-width:5.6743;stroke-opacity:1"
       d="m 17.59567,200.94024 101.61199,-0.57341"
       id="path2-5"
       sodipodi:nodetypes="cc" />
    <path
       style="fill:#ffffff;fill-opacity:0;stroke:#535353;stroke-width:5.95853;stroke-opacity:1"
       d="m 50.602156,184.10693 -11.594257,15.63124 c -0.0598,2.35055 -0.08316,6.14154 0,14.12824"
       id="path3-4"
       sodipodi:nodetypes="ccc" />
    <path
       style="fill:#ffffff;fill-opacity:0;stroke:#535353;stroke-width:5.9165;stroke-opacity:1"
       d="m 63.040928,185.18278 -4.227618,17.32565 v 11.87128"
       id="path4-4" />
    <path
       style="fill:#ffffff;fill-opacity:0;stroke:#535353;stroke-width:5.80171;stroke-opacity:1"
       d="m 75.383295,185.1724 3.683065,15.65263 v 11.96966"
       id="path5-7" />
    <path
       style="fill:#ffffff;fill-opacity:0;stroke:#535353;stroke-width:6.4;stroke-opacity:1"
       d="m 97.911055,46.841169 0.325286,59.202031 103.440919,0.32529 0.97585,-58.876749"
       id="path7" />
    <path
       style="fill:#ffffff;fill-opacity:0;stroke:#535353;stroke-width:6.01826;stroke-opacity:1"
       d="m 86.112349,183.84099 12.970612,16.66338 0.926479,13.02773"
       id="path6-4" />
    <path
       style="fill:#ffffff;fill-opacity:1;stroke:#ffffff;stroke-width:6.4;stroke-opacity:0.663291"
       d="m 91.983931,109.01389 a 3.6679372,3.6679372 113.13895 0 0 -1.229166,2.87632 123.02613,123.02613 88.424512 0 0 0.151341,5.50243 3.5901092,3.5901092 40.437022 0 0 3.302505,2.81433 l 0.73777,0.1714 a 36.746495,36.746495 6.5395832 0 0 8.315629,0.95327 h 101.6681 l 1.01058,-0.64966 a 7.3242473,7.3242473 117.36 0 0 3.35639,-6.48621 l -0.0559,-1.25833 a 3.6882938,3.6882938 60.766187 0 0 -1.61807,-2.89119 l -2.45838,-1.66301 a 6.050001,6.050001 17.038606 0 0 -3.38987,-1.03889 H 96.631114 a 7.3025086,7.3025086 160.23873 0 0 -4.647183,1.66954 z"
       id="path8-6"
       inkscape:path-effect="#path-effect1-7"
       inkscape:original-d="m 94.007624,107.34435 -3.252859,2.6836 v 3.98475 l 0.243965,5.44854 8.050825,1.8704 H 204.93011 l 4.55401,-2.92757 -0.32529,-7.31893 -5.52986,-3.74079 z"
       sodipodi:nodetypes="cccccccccc"
       transform="matrix(0.87808471,0,0,0.88188789,-63.161972,179.9992)" />
    <path
       style="fill:#ffffff;fill-opacity:0;stroke:#000000;stroke-width:6.4;stroke-opacity:0.663291"
       d="m 112.79697,97.260483 0.0733,-26.261635 a 90.038131,90.038131 89.277001 0 0 -0.035,-2.774792 l -0.0831,-2.963573 a 344.95969,344.95969 0.00860823 0 0 9.09837,0.0014 l 17.17195,-0.132017 -0.12547,6.433065 0.26948,25.447842"
       id="path17-0"
       inkscape:path-effect="#path-effect22-6"
       inkscape:original-d="m 112.79697,97.260483 0.0772,-27.649301 -0.12198,-4.350699 2.70354,0.05053 23.56678,-0.18118 -0.12547,6.433065 0.26948,25.447842"
       sodipodi:nodetypes="ccccccc"
       transform="matrix(0.87808471,0,0,0.88188789,-63.161972,179.9992)" />
    <path
       style="fill:#7cb0f1;fill-opacity:1;stroke:none;stroke-width:6.40011;stroke-dasharray:none;stroke-opacity:0.663291"
       d="m 179.5424,65.142136 -23.08725,-0.07939 a 6.3344937,6.3344937 165.85941 0 0 -3.04222,0.766444 l -0.0779,0.04223 a 3.9896065,3.9896065 120.64524 0 0 -2.08723,3.522967 l 0.0101,2.493792 0.1044,7.650157 a 3.8338539,3.8338539 59.104449 0 0 1.97535,3.30115 13.255133,13.255133 8.9318291 0 0 6.258,0.98354 l 18.24976,0.427124 a 13.184659,13.184659 161.76784 0 0 8.54168,-2.813674 l 0.29274,-10.461119 a 5.5810648,5.5810648 61.618664 0 0 -2.65163,-4.907906 8.4533276,8.4533276 11.655364 0 0 -4.48581,-0.925323 z"
       id="path18-5"
       sodipodi:nodetypes="cccccccccc"
       inkscape:path-effect="#path-effect2-3"
       inkscape:original-d="m 182.54289,65.152453 -27.7068,-0.09527 -3.59788,1.951716 0.0197,4.879288 0.13474,9.873583 3.52233,1.951715 27.797,0.650572 3.67512,-2.927573 0.38282,-13.680046 z"
       transform="matrix(0.87808471,0,0,0.88188789,-63.161972,179.9992)" />
    <path
       style="fill:#e92727;fill-opacity:1;stroke:#535353;stroke-width:6.4;stroke-opacity:1"
       d="m 111.13277,3.939509 -19.862171,18.830504 -0.151634,12.16618 a 9.6296003,9.6296003 72.748238 0 0 1.761779,5.673239 12.500182,12.500182 38.043605 0 0 5.588801,4.373303 l 0.09886,0.03954 a 11.430854,11.430854 6.4143923 0 0 6.028097,0.677693 l 0.20409,-0.03222 a 13.256362,13.256362 158.66866 0 0 5.2858,-2.064182 l 1.43296,-0.955302 a 15.524134,15.524134 137.48484 0 0 3.51109,-3.219029 l 1.09662,-1.370784 1.29324,2.424826 a 8.4157636,8.4157636 43.636834 0 0 3.823,3.645281 15.43061,15.43061 9.4984427 0 0 8.01658,1.341291 11.084016,11.084016 157.28644 0 0 5.58077,-2.336037 l 0.43151,-0.323632 a 10.582188,10.582188 129.84759 0 0 3.11568,-3.733254 l 0.50924,-1.018475 2.8165,3.621221 a 16.390626,16.390626 42.328697 0 0 4.1235,3.75587 l 0.89265,0.569392 a 6.8604951,6.8604951 9.7968148 0 0 5.22554,0.902307 l 0.24331,-0.0559 a 13.889599,13.889599 154.08659 0 0 5.6099,-2.725644 14.283294,14.283294 121.74475 0 0 3.89826,-6.300801 l 0.28564,-0.742304 2.2531,2.946366 a 36.861897,36.861897 47.55257 0 0 4.37306,4.781156 7.4058631,7.4058631 14.897628 0 0 5.1891,1.380483 18.502772,18.502772 164.86309 0 0 6.13647,-1.659987 7.4539179,7.4539179 129.36853 0 0 3.23052,-3.937315 l 2.23833,-3.835989 2.2951,4.060551 a 10.806058,10.806058 40.540071 0 0 5.61309,4.800825 l 1.26484,0.474317 a 10.292945,10.292945 4.0136121 0 0 5.84695,0.410255 16.689624,16.689624 153.67507 0 0 6.15019,-3.042941 l 3.1902,-2.339552 0.0361,-8.592171 0.0395,-10.849441 -20.20719,-17.7757182 z"
       id="path1-3-2"
       sodipodi:nodetypes="ccccccccccccccccccccccccccccccc"
       inkscape:path-effect="#path-effect3-2-2"
       inkscape:original-d="m 111.13277,3.939509 -19.862171,18.830504 -0.190548,15.288437 3.903431,5.52986 6.505718,2.602287 6.18043,-0.975857 5.85515,-3.903431 2.60228,-3.252859 2.60229,4.879288 6.18043,2.927573 7.15629,-0.650571 5.20458,-3.903431 1.62643,-3.252859 4.554,5.855146 5.70237,3.63734 6.16408,-1.416149 4.62785,-3.732615 2.047,-5.31958 4.22871,5.52986 3.90343,3.578145 h 5.20458 l 5.79594,-2.084761 4.28792,-7.34853 4.22872,7.481576 7.80686,2.927573 5.85514,-1.301144 6.46965,-4.74455 0.0361,-8.592171 0.0395,-10.849441 -20.20719,-17.7757182 z"
       transform="matrix(0.87808471,0,0,0.88188789,100.39866,178.23529)" />
    <path
       style="fill:#ff5757;fill-opacity:1;stroke:#535353;stroke-width:5.6743;stroke-opacity:1"
       d="m 181.1563,199.17633 101.61199,-0.57341"
       id="path2-5-2"
       sodipodi:nodetypes="cc" />
    <path
       style="fill:#ffffff;fill-opacity:0;stroke:#535353;stroke-width:5.95853;stroke-opacity:1"
       d="m 214.16279,182.34302 -11.59426,15.63124 c -0.0598,2.35055 -0.0832,6.14154 0,14.12824"
       id="path3-4-1"
       sodipodi:nodetypes="ccc" />
    <path
       style="fill:#ffffff;fill-opacity:0;stroke:#535353;stroke-width:5.9165;stroke-opacity:1"
       d="m 226.60156,183.41887 -4.22762,17.32565 v 11.87128"
       id="path4-4-4" />
    <path
       style="fill:#ffffff;fill-opacity:0;stroke:#535353;stroke-width:5.80171;stroke-opacity:1"
       d="m 238.94392,183.40849 3.68307,15.65263 v 11.96966"
       id="path5-7-3" />
    <path
       style="fill:#ffffff;fill-opacity:0;stroke:#535353;stroke-width:6.01826;stroke-opacity:1"
       d="m 249.67298,182.07708 12.97061,16.66338 0.92648,13.02773"
       id="path6-4-2" />
    <path
       style="fill:#ffffff;fill-opacity:1;stroke:#ffffff;stroke-width:6.4;stroke-opacity:0.663291"
       d="m 91.983931,109.01389 a 3.6679372,3.6679372 113.13895 0 0 -1.229166,2.87632 123.02613,123.02613 88.424512 0 0 0.151341,5.50243 3.5901092,3.5901092 40.437022 0 0 3.302505,2.81433 l 0.73777,0.1714 a 36.746495,36.746495 6.5395832 0 0 8.315629,0.95327 h 101.6681 l 1.01058,-0.64966 a 7.3242473,7.3242473 117.36 0 0 3.35639,-6.48621 l -0.0559,-1.25833 a 3.6882938,3.6882938 60.766187 0 0 -1.61807,-2.89119 l -2.45838,-1.66301 a 6.050001,6.050001 17.038606 0 0 -3.38987,-1.03889 H 96.631114 a 7.3025086,7.3025086 160.23873 0 0 -4.647183,1.66954 z"
       id="path8-6-3"
       inkscape:path-effect="#path-effect1-7-3"
       inkscape:original-d="m 94.007624,107.34435 -3.252859,2.6836 v 3.98475 l 0.243965,5.44854 8.050825,1.8704 H 204.93011 l 4.55401,-2.92757 -0.32529,-7.31893 -5.52986,-3.74079 z"
       sodipodi:nodetypes="cccccccccc"
       transform="matrix(0.87808471,0,0,0.88188789,100.39866,178.23529)" />
    <path
       style="fill:#000000;fill-opacity:0;stroke:#030303;stroke-width:6.4;stroke-opacity:0.663291"
       d="m 112.79697,97.260483 0.0733,-26.261635 a 90.038131,90.038131 89.277001 0 0 -0.035,-2.774792 l -0.0831,-2.963573 a 344.95969,344.95969 0.00860823 0 0 9.09837,0.0014 l 17.17195,-0.132017 -0.12547,6.433065 0.26948,25.447842"
       id="path17-0-2"
       inkscape:path-effect="#path-effect22-6-7"
       inkscape:original-d="m 112.79697,97.260483 0.0772,-27.649301 -0.12198,-4.350699 2.70354,0.05053 23.56678,-0.18118 -0.12547,6.433065 0.26948,25.447842"
       sodipodi:nodetypes="ccccccc"
       transform="matrix(0.87808471,0,0,0.88188789,100.39866,178.23529)" />
    <path
       style="fill:#ffffff;fill-opacity:0;stroke:#535353;stroke-width:5.6319;stroke-opacity:1"
       d="m 22.812228,221.30786 0.285629,52.20956 90.829883,0.28687 0.85688,-51.9227"
       id="path7-0" />
    <path
       style="fill:#ffffff;fill-opacity:0;stroke:#535353;stroke-width:5.6319;stroke-opacity:1"
       d="m 186.37286,219.54395 0.28563,52.20956 90.82988,0.28687 0.85688,-51.9227"
       id="path7-0-6" />
    <path
       style="fill:#7cb0f1;fill-opacity:1;stroke:none;stroke-width:6.4;stroke-opacity:1"
       d="m 179.5424,65.142136 -23.08725,-0.07939 a 6.3344937,6.3344937 165.85941 0 0 -3.04222,0.766444 l -0.0779,0.04223 a 3.9896065,3.9896065 120.64524 0 0 -2.08723,3.522967 l 0.0101,2.493792 0.1044,7.650157 a 3.8338539,3.8338539 59.104449 0 0 1.97535,3.30115 13.255133,13.255133 8.9318291 0 0 6.258,0.98354 l 18.24976,0.427124 a 13.184659,13.184659 161.76784 0 0 8.54168,-2.813674 l 0.29274,-10.461119 a 5.5810648,5.5810648 61.618664 0 0 -2.65163,-4.907906 8.4533276,8.4533276 11.655364 0 0 -4.48581,-0.925323 z"
       id="path18-5-3"
       sodipodi:nodetypes="cccccccccc"
       inkscape:path-effect="#path-effect2-3-1"
       inkscape:original-d="m 182.54289,65.152453 -27.7068,-0.09527 -3.59788,1.951716 0.0197,4.879288 0.13474,9.873583 3.52233,1.951715 27.797,0.650572 3.67512,-2.927573 0.38282,-13.680046 z"
       transform="matrix(0.87808471,0,0,0.88188789,100.39866,178.23529)" />
  </g>
</svg>
