<?xml version="1.0" encoding="UTF-8" standalone="no"?>
<!-- Created with Inkscape (http://www.inkscape.org/) -->

<svg
   version="1.1"
   id="svg1"
   width="100"
   height="100"
   viewBox="0 0 100 100"
   sodipodi:docname="icon.ico.svg"
   inkscape:export-filename="icon.ico.svg"
   inkscape:export-xdpi="96"
   inkscape:export-ydpi="96"
   inkscape:version="1.3.2 (091e20e, 2023-11-25, custom)"
   xmlns:inkscape="http://www.inkscape.org/namespaces/inkscape"
   xmlns:sodipodi="http://sodipodi.sourceforge.net/DTD/sodipodi-0.dtd"
   xmlns:xlink="http://www.w3.org/1999/xlink"
   xmlns="http://www.w3.org/2000/svg"
   xmlns:svg="http://www.w3.org/2000/svg">
  <sodipodi:namedview
     id="namedview1"
     pagecolor="#ffffff"
     bordercolor="#000000"
     borderopacity="0.25"
     inkscape:showpageshadow="2"
     inkscape:pageopacity="0.0"
     inkscape:pagecheckerboard="0"
     inkscape:deskcolor="#d1d1d1"
     inkscape:zoom="7.87"
     inkscape:cx="50"
     inkscape:cy="50"
     inkscape:window-width="1920"
     inkscape:window-height="1001"
     inkscape:window-x="-9"
     inkscape:window-y="-9"
     inkscape:window-maximized="1"
     inkscape:current-layer="svg1" />
  <defs
     id="defs1">
    <linearGradient
       id="linearGradient41">
      <stop
         style="stop-color:#5f59d9;stop-opacity:1;"
         offset="0"
         id="stop40" />
      <stop
         style="stop-color:#7acbee;stop-opacity:1;"
         offset="1"
         id="stop41" />
    </linearGradient>
    <linearGradient
       id="linearGradient37">
      <stop
         style="stop-color:#6d66cc;stop-opacity:1;"
         offset="0"
         id="stop37" />
      <stop
         style="stop-color:#7acbee;stop-opacity:1;"
         offset="1"
         id="stop38" />
    </linearGradient>
    <linearGradient
       id="linearGradient27">
      <stop
         style="stop-color:#7ccaec;stop-opacity:1;"
         offset="0"
         id="stop27" />
      <stop
         style="stop-color:#6286ef;stop-opacity:1;"
         offset="0.5"
         id="stop39" />
      <stop
         style="stop-color:#5b52e0;stop-opacity:1;"
         offset="1"
         id="stop28" />
    </linearGradient>
    <linearGradient
       xlink:href="#linearGradient27"
       id="linearGradient28"
       x1="-83.435837"
       y1="23.599945"
       x2="-51.557816"
       y2="59.706676"
       gradientUnits="userSpaceOnUse"
       gradientTransform="translate(-15.939009,1.3011436)" />
    <linearGradient
       xlink:href="#linearGradient41"
       id="linearGradient38"
       x1="-97.160225"
       y1="30.041325"
       x2="-37.973557"
       y2="55.802654"
       gradientUnits="userSpaceOnUse"
       gradientTransform="translate(-3.090216,-4.1214966)" />
    <linearGradient
       xlink:href="#linearGradient37"
       id="linearGradient39"
       gradientUnits="userSpaceOnUse"
       gradientTransform="matrix(-1,0,0,1,-126.05149,-41.973344)"
       x1="-97.160225"
       y1="30.041325"
       x2="-51.659264"
       y2="32.341446" />
  </defs>
  <g
     id="g1"
     transform="matrix(1,0,0,0.95294058,0,0.11924081)">
    <g
       id="g19"
       transform="translate(104.57942,25.534943)">
      <g
         id="g24">
        <g
           id="g39"
           transform="matrix(1,0,0,0.96351862,11.385006,0.25785438)">
          <path
             style="fill:#ffffff;fill-opacity:1;fill-rule:nonzero;stroke:none;stroke-width:3.01467;stroke-linecap:round;stroke-linejoin:bevel;stroke-opacity:0.58926"
             d="m 45.082325,40.942112 8.740451,8.740451"
             id="path16"
             transform="translate(-104.57942,-25.534943)" />
          <path
             style="fill:#ffffff;fill-opacity:1;fill-rule:nonzero;stroke:none;stroke-width:3.01467;stroke-linecap:round;stroke-linejoin:bevel;stroke-opacity:0.58926"
             d="m 20.241044,16.215836 c 0.03834,5.48195 0.07667,10.963899 0.115006,16.445849"
             id="path17"
             transform="translate(-104.57942,-25.534943)" />
          <path
             style="fill:url(#linearGradient28);fill-opacity:1;fill-rule:nonzero;stroke:none;stroke-width:3.01467;stroke-linecap:round;stroke-linejoin:bevel;stroke-opacity:1"
             d="m -98.583659,-14.809983 c 1.230485,-2.860768 4.113417,-7.535423 10.105891,-8.773244 4.938832,-1.020178 15.125794,-0.325286 15.125794,-0.325286 l 0.162643,86.851334 c -1.959913,8.279226 -7.875148,10.743114 -12.523208,10.982677 -3.303543,0.170266 -7.501498,-0.956639 -10.827633,-5.155427 -1.168455,-1.475013 -2.436845,-2.737154 -2.834674,-5.989893 v -72.879286 c 0,-1.338959 0.263197,-3.48334 0.791187,-4.710875 z"
             id="path26"
             transform="matrix(0.92546584,0,0,1,-5.4551053,0)" />
          <path
             style="fill:url(#linearGradient38);stroke-width:3.80465;stroke-linecap:round;stroke-linejoin:bevel"
             d="m -85.680361,13.954977 c 18.726715,0.01793 20.127927,0.02127 34.922214,-0.118373 14.794287,-0.139646 15.630479,24.092664 0.833965,24.166415 -14.796514,0.07375 -18.455892,0.06596 -35.041094,-0.01972 -16.585184,-0.08568 -16.681654,-24.046256 -0.715085,-24.028319 15.966573,0.01794 0,-3e-6 0,-3e-6 z"
             id="path36" />
          <path
             style="fill:url(#linearGradient39);stroke-width:3.80465;stroke-linecap:round;stroke-linejoin:bevel"
             d="m -43.461352,-23.896871 c -18.726715,0.01793 -20.127927,0.02127 -34.922214,-0.118373 -14.79429,-0.139646 -15.63048,24.09266443 -0.833965,24.16641543 14.796514,0.07375 18.455892,0.06596 35.041094,-0.01972 16.585191,-0.08568 16.681661,-24.04625643 0.715085,-24.02831943 -15.966573,0.01794 0,-3e-6 0,-3e-6 z"
             id="path36-3" />
          <path
             style="fill:#ffffff;fill-opacity:0;fill-rule:nonzero;stroke:#ffffff;stroke-width:3.01467;stroke-linecap:round;stroke-linejoin:bevel;stroke-opacity:1"
             d="m 30.706584,20.816074 c 0,3.680189 0,7.360379 0,11.040569"
             id="path18-9"
             transform="matrix(0,-1,0.84453393,0,-73.74952,18.912492)" />
          <path
             style="fill:#ffffff;fill-opacity:0;fill-rule:nonzero;stroke:#ffffff;stroke-width:3.01467;stroke-linecap:round;stroke-linejoin:bevel;stroke-opacity:1"
             d="m 30.706584,20.816074 c 0,3.680189 0,7.360379 0,11.040569"
             id="path18-9-4"
             transform="matrix(0,-1,0.84453393,0,-105.21335,19.241784)" />
          <path
             style="fill:#ffffff;fill-opacity:0;fill-rule:nonzero;stroke:#ffffff;stroke-width:3.01467;stroke-linecap:round;stroke-linejoin:bevel;stroke-opacity:1"
             d="m 30.706584,20.816074 c 0,3.680189 0,7.360379 0,11.040569"
             id="path18-9-1"
             transform="matrix(-1,0,0,-0.84453393,-52.304201,10.927248)" />
          <g
             id="g36"
             transform="translate(-21.694093,-0.51206109)">
            <path
               style="fill:#ffffff;fill-opacity:0;fill-rule:nonzero;stroke:#ffffff;stroke-width:3.01467;stroke-linecap:round;stroke-linejoin:bevel;stroke-opacity:1"
               d="m 30.706584,20.816074 c 0,3.680189 0,7.360379 0,11.040569"
               id="path18-9-6"
               transform="matrix(0,-1,0.84453393,0,-51.757965,60.221445)" />
            <path
               style="fill:#ffffff;fill-opacity:0;fill-rule:nonzero;stroke:#ffffff;stroke-width:3.01467;stroke-linecap:round;stroke-linejoin:bevel;stroke-opacity:1"
               d="m 30.706584,20.816074 c 0,3.680189 0,7.360379 0,11.040569"
               id="path18-9-5"
               transform="matrix(0,-1,0.84453393,0,-51.920608,55.036602)" />
          </g>
          <g
             id="g38"
             transform="translate(-28.846757,-28.25438)">
            <path
               style="fill:#ffffff;fill-opacity:0;fill-rule:nonzero;stroke:#ffffff;stroke-width:3.01467;stroke-linecap:round;stroke-linejoin:bevel;stroke-opacity:1"
               d="m 30.706584,20.816074 c 0,3.680189 0,7.360379 0,11.040569"
               id="path18-9-12"
               transform="matrix(-0.73071039,-0.68268757,0.57655282,-0.61710972,-47.019832,91.373333)" />
            <path
               style="fill:#ffffff;fill-opacity:0;fill-rule:nonzero;stroke:#ffffff;stroke-width:3.01467;stroke-linecap:round;stroke-linejoin:bevel;stroke-opacity:1"
               d="m 30.821592,21.061569 c 9.33e-4,3.64811 0.0019,7.296221 0.0028,10.944333"
               id="path18-9-12-6"
               transform="matrix(0.73071039,-0.68268757,-0.57655282,-0.61710972,-61.649001,91.562573)" />
          </g>
        </g>
      </g>
    </g>
  </g>
</svg>
