<?xml version="1.0" encoding="UTF-8" standalone="no"?>
<svg
   version="1.1"
   x="0px"
   y="0px"
   viewBox="0 0 65536 65536"
   enable-background="new 0 0 256 256"
   xml:space="preserve"
   id="svg8"
   width="536"
   height="536"
   sodipodi:docname="investments.svg"
   inkscape:version="1.3.2 (091e20e, 2023-11-25, custom)"
   xmlns:inkscape="http://www.inkscape.org/namespaces/inkscape"
   xmlns:sodipodi="http://sodipodi.sourceforge.net/DTD/sodipodi-0.dtd"
   xmlns="http://www.w3.org/2000/svg"
   xmlns:svg="http://www.w3.org/2000/svg"><sodipodi:namedview
   id="namedview1"
   pagecolor="#505050"
   bordercolor="#eeeeee"
   borderopacity="1"
   inkscape:showpageshadow="0"
   inkscape:pageopacity="0"
   inkscape:pagecheckerboard="0"
   inkscape:deskcolor="#505050"
   inkscape:zoom="0.70710678"
   inkscape:cx="207.88939"
   inkscape:cy="222.73864"
   inkscape:window-width="1920"
   inkscape:window-height="1001"
   inkscape:window-x="-9"
   inkscape:window-y="-9"
   inkscape:window-maximized="1"
   inkscape:current-layer="svg8" /><defs
   id="defs8" />
<metadata
   id="metadata1"> Svg Vector Icons : http://www.onlinewebfonts.com/icon </metadata>

<path
   style="fill:#ffffff;fill-opacity:1;stroke:#ffffff;stroke-width:1380.54;stroke-linejoin:round"
   d="m 32423.82,7856.6631 4875.526,87.0272 -363.911,1221.2037 a 38919.405,38903.49 0 0 1 -2139.011,5573.633 l -300.534,633.007 a 23869.095,23859.333 0 0 1 -1992.296,3428.083 l -761.41,1090.222 a 23614.395,23604.739 0 0 1 -2982.883,3491.06 l -449.731,432.895 a 32356.924,32343.693 0 0 1 -5663.418,4356.353 l -2237.022,1356.327 -4531.616,1925.148 a 21905.092,21896.133 0 0 1 -5043.033,1459.09 l -5400.18,880.104 1690.856,56.338 a 27246.61,27235.468 0 0 0 6978.934,-669.625 l 1861.958,-425.414 a 32760.039,32746.641 0 0 0 7350.985,-2633.853 l 2458.464,-1228.732 a 19016.961,19009.185 0 0 0 4345.588,-2989.632 l 654.298,-599.528 A 24006.926,23997.107 0 0 0 33623.4,22187.85 l 509.126,-665.507 a 19052.214,19044.424 0 0 0 2571.94,-4537.438 l 1552.571,-3906.601 1393.009,-5047.5862 4259.898,-174.0547 -5130.528,-7223.26933 z"
   id="path8" /><path
   style="fill:#f0f0f0;fill-opacity:0;stroke:#ffffff;stroke-width:1380.54;stroke-linejoin:round"
   d="m 4650.7343,43363.825 h 8532.1707 l 174.126,12357.887 -8706.2967,87.022 z"
   id="path9" /><path
   style="fill:#f0f0f0;fill-opacity:0;stroke:#ffffff;stroke-width:1380.54;stroke-linejoin:round"
   d="m 15881.857,36488.664 -174.126,19494.128 h 9054.548 l 87.063,-19494.128 z"
   id="path10" /><path
   style="fill:#f0f0f0;fill-opacity:0;stroke:#ffffff;stroke-width:1380.54;stroke-linejoin:round"
   d="m 27896.545,30570.803 87.064,25150.909 h 8445.108 V 30744.859 Z"
   id="path11" /><path
   style="fill:#ffffff;fill-opacity:0;stroke:#ffffff;stroke-width:1380.54;stroke-linejoin:round"
   d="m 39214.73,19953.466 87.065,30720.659 842.993,-1206.95 a 20179.07,20170.817 0 0 1 1838.458,-2264.006 l 235.08,-250.14 a 13779.864,13774.229 0 0 1 2204.007,-1897.014 l 966.851,-668.525 2488.311,-1197.721 217.657,-23236.303 z"
   id="path12" /><path
   style="fill:#ffffff;fill-opacity:1;stroke:#ffffff;stroke-width:1380.54;stroke-linejoin:round"
   d="m 4389.5455,57984.42 34999.3115,-87.026 1915.386,2697.847 H 4650.7343 Z"
   id="path13" /><path
   style="fill:#ffffff;fill-opacity:0;stroke:#ffffff;stroke-width:1380.54;stroke-linejoin:round"
   d="m 45631.172,44277.318 496.229,-313.811 a 5238.9248,5236.7825 0 0 1 1904.818,-734.108 l 1083.562,-188.041 a 10416.102,10411.842 0 0 1 2065.655,-149.581 l 50.307,1.332 a 11470.667,11465.976 0 0 1 2565.988,362.685 12587.932,12582.784 0 0 1 2455.22,965.205 10633.705,10629.356 0 0 1 2915.606,2552.066 9365.4566,9361.6264 0 0 1 1552.276,2322.443 l 253.086,535.729 a 8214.0628,8210.7039 0 0 1 750.648,2739.632 13375.985,13370.516 0 0 1 -128.997,3137.149 l -114.467,800.961 a 7307.8012,7304.8125 0 0 1 -606.115,2043.088 12263.249,12258.234 0 0 1 -1770.349,2750.214 7966.1462,7962.8884 0 0 1 -1992.068,1673.466 17486.062,17478.91 0 0 1 -4800.497,1856.755 11150.49,11145.93 0 0 1 -4826.36,-382.154 11925.714,11920.836 0 0 1 -5063.313,-3074.664 8242.2406,8238.87 0 0 1 -1400.242,-2313.892 l -410.573,-800.293 a 5642.2147,5639.9074 0 0 1 -506.925,-1441.918 l -71.413,-348.535 a 11203.766,11199.185 0 0 1 113.14,-4989.146 12001.756,11996.848 0 0 1 1760.317,-3747.888 l 134.719,-199.3 a 7286.085,7283.1052 0 0 1 1825.693,-1865.697 l 275.399,-194.995 a 34320.534,34306.499 0 0 1 1488.656,-996.741 z"
   id="path14" /><path
   style="fill:#ffffff;fill-opacity:1;stroke:#ffffff;stroke-width:1049.52;stroke-linejoin:round;stroke-dasharray:none;stroke-opacity:0.978723"
   d="m 45822.245,50344.728 3830.555,8.966 46.204,8032.41 -465.325,-15.305 -10.466,-7507.41 -3093.897,8.001 a 141.21995,121.02424 0 0 0 -140.795,120.516 l -29.228,5970.912 a 2237.2201,1917.2777 0 0 1 -239.326,854.78 1509.9709,1294.0314 0 0 1 -615.745,509.262 l -1101.738,-11.612 180.998,-49.66 -274.695,3.584 a 120.44065,103.21656 0 0 1 122.525,-143.734 l 789.074,-8.029 175.689,-69.691 a 1240.9051,1063.4445 0 0 0 717.769,-906.534 l 7.174,-111.8 a 17631.857,15110.343 0 0 0 25.105,-1036.985 l -49.718,-3136.659 -12.608,-2406.158 a 122.80649,105.24407 0 0 1 138.435,-104.861 z"
   id="path18" /><path
   style="fill:#ffffff;fill-opacity:0;stroke:#ffffff;stroke-width:1057.01;stroke-linejoin:round;stroke-dasharray:none;stroke-opacity:1"
   d="m 53049.599,50415.417 -28.12,7992.417 h 2207.672 a 1813.3597,1697.9948 0 0 0 880.594,-213.657 1625.9489,1522.5069 0 0 0 493.851,-469.582 2793.7638,2616.0262 0 0 0 442.328,-900.311 1704.1005,1595.6866 0 0 0 14.958,-413.377 1301.6016,1218.7944 0 0 0 -148.51,-541.08 2831.968,2651.8001 0 0 0 -437.174,-577.986 l -55.109,-56.059 a 1586.7386,1485.7912 0 0 0 -923.848,-461.904 l -926.723,-134.804 633.789,68.528 a 3.3634151,3.1494352 0 0 1 -0.53,6.26 l -1587.975,-129.079 a 14.67954,13.745638 0 0 1 1.605,-27.439 l 25.373,0.531 a 27686.344,25924.957 0 0 0 973.634,2.41 l 216.168,-2.996 a 2070.2406,1938.5333 0 0 0 714.275,-129.638 l 501.365,-181.055 a 1787.2222,1673.5202 0 0 0 589.811,-349.87 1639.4396,1535.1393 0 0 0 409.27,-837.106 l 17.989,-82.829 a 2577.9738,2413.9646 0 0 0 -77.233,-1234.171 1622.2535,1519.0466 0 0 0 -481.91,-671.261 c -330.167,-268.08 -916.938,-656.044 -1330.178,-634.258 -531.244,2.406 -578.109,1.875 -637.026,0.803 -216.538,-4.39 -567.565,-12.764 -784.142,-15.036 z"
   id="path19" /></svg>
