<?xml version="1.0" encoding="UTF-8" standalone="no"?>
<svg
   version="1.1"
   x="0px"
   y="0px"
   viewBox="0 0 36680.597 36680.597"
   enable-background="new 0 0 256 256"
   xml:space="preserve"
   id="svg8"
   width="300"
   height="300"
   sodipodi:docname="investments.svg"
   inkscape:version="1.3.2 (091e20e, 2023-11-25, custom)"
   inkscape:export-filename="investments.svg"
   inkscape:export-xdpi="96"
   inkscape:export-ydpi="96"
   xmlns:inkscape="http://www.inkscape.org/namespaces/inkscape"
   xmlns:sodipodi="http://sodipodi.sourceforge.net/DTD/sodipodi-0.dtd"
   xmlns="http://www.w3.org/2000/svg"
   xmlns:svg="http://www.w3.org/2000/svg"><sodipodi:namedview
   id="namedview1"
   pagecolor="#505050"
   bordercolor="#eeeeee"
   borderopacity="1"
   inkscape:showpageshadow="0"
   inkscape:pageopacity="0"
   inkscape:pagecheckerboard="0"
   inkscape:deskcolor="#505050"
   inkscape:zoom="2"
   inkscape:cx="124.25"
   inkscape:cy="159.25"
   inkscape:window-width="1920"
   inkscape:window-height="1001"
   inkscape:window-x="-9"
   inkscape:window-y="-9"
   inkscape:window-maximized="1"
   inkscape:current-layer="svg8" /><defs
   id="defs8" />
<metadata
   id="metadata1"> Svg Vector Icons : http://www.onlinewebfonts.com/icon </metadata>

<path
   style="fill:#ffffff;fill-opacity:1;stroke:#ffffff;stroke-width:489.07462667;stroke-linejoin:round;stroke-dasharray:none"
   d="m 18436.707,4880.8518 2797.248,46.5501 -208.788,653.2111 A 22329.332,20809.132 0 0 1 19797.947,8561.9 l -172.426,338.5898 a 13694.478,12762.146 0 0 1 -1143.046,1833.6512 l -436.845,583.15 a 13548.348,12625.966 0 0 1 -1711.378,1867.338 l -258.025,231.551 a 18564.223,17300.355 0 0 1 -3249.287,2330.175 l -1283.453,725.487 -2599.9365,1029.745 a 12567.666,11712.047 0 0 1 -2893.352,780.454 l -3098.2594,470.76 970.0992,30.134 a 15632.269,14568.011 0 0 0 4004.0421,-358.176 l 1068.2655,-227.551 a 18795.503,17515.888 0 0 0 4217.5001,-1408.824 l 1410.502,-657.238 a 10910.651,10167.845 0 0 0 2493.205,-1599.127 l 375.392,-320.683 a 13773.556,12835.84 0 0 0 1633.999,-1664.859 l 292.103,-355.974 a 10930.877,10186.694 0 0 0 1475.606,-2427.0353 l 890.761,-2089.6063 799.214,-2699.9092 2444.042,-93.1004 -2943.55,-3863.6628 z"
   id="path8" /><path
   style="fill:#ffffff;fill-opacity:1;stroke:#ffffff;stroke-width:489.07462667;stroke-linejoin:round;stroke-dasharray:none"
   d="m 2352.5288,31693.746 20080.2472,-46.55 1098.918,1443.054 H 2502.3813 Z"
   id="path13" /><path
   style="fill:#ffffff;fill-opacity:0;stroke:#ffffff;stroke-width:764.78;stroke-linejoin:round"
   d="m 26014.195,24361.938 284.703,-167.854 a 3005.742,2801.1087 0 0 1 1092.856,-392.668 l 621.675,-100.583 a 5976.0574,5569.2022 0 0 1 1185.133,-80.009 l 28.864,0.713 a 6581.0957,6133.0491 0 0 1 1472.191,193.996 7222.1071,6730.4198 0 0 1 1408.639,516.28 6100.9033,5685.5485 0 0 1 1672.778,1365.078 5373.2679,5007.4511 0 0 1 890.592,1242.254 l 145.203,286.557 a 4712.6758,4391.8328 0 0 1 430.672,1465.405 7674.2388,7151.7707 0 0 1 -74.01,1678.033 l -65.674,428.427 a 4192.7239,3907.2795 0 0 1 -347.747,1092.829 7035.8259,6556.8209 0 0 1 -1015.708,1471.065 4570.4379,4259.2786 0 0 1 -1142.914,895.123 10032.324,9349.3143 0 0 1 -2754.202,993.162 6397.3998,5961.8593 0 0 1 -2769.04,-204.411 6842.1711,6376.3497 0 0 1 -2904.988,-1644.61 4728.8422,4406.8987 0 0 1 -803.364,-1237.681 l -235.559,-428.07 a 3237.1226,3016.7366 0 0 1 -290.84,-771.269 l -40.972,-186.429 a 6427.966,5990.3449 0 0 1 64.912,-2668.65 6885.7988,6417.0078 0 0 1 1009.952,-2004.711 l 77.292,-106.604 a 4180.2646,3895.6685 0 0 1 1047.46,-997.945 l 158.006,-104.301 a 19690.81,18350.243 0 0 1 854.09,-533.147 z"
   id="path14" /><path
   style="fill:#ffffff;fill-opacity:1;stroke:#ffffff;stroke-width:489.07462667;stroke-linejoin:round;stroke-dasharray:none;stroke-opacity:0.978723"
   d="m 26123.82,27607.342 2197.714,4.795 26.509,4296.466 -266.972,-8.187 -6.005,-4015.647 -1775.069,4.28 a 81.022491,64.734795 0 0 0 -80.779,64.463 l -16.77,3193.788 a 1283.5662,1025.5349 0 0 1 -137.308,457.214 866.31955,692.16595 0 0 1 -353.273,272.4 l -632.104,-6.211 103.845,-26.563 -157.602,1.917 a 69.100729,55.209625 0 0 1 70.297,-76.882 l 452.718,-4.295 100.798,-37.277 a 711.94773,568.82705 0 0 0 411.807,-484.897 l 4.116,-59.801 a 10115.971,8082.3888 0 0 0 14.404,-554.674 l -28.525,-1677.771 -7.234,-1287.033 a 70.458089,56.294121 0 0 1 79.425,-56.089 z"
   id="path18" /><path
   style="fill:#ffffff;fill-opacity:0;stroke:#ffffff;stroke-width:489.075;stroke-linejoin:round;stroke-dasharray:none;stroke-opacity:1"
   d="m 29873.015,27675.72 -16.133,4275.073 h 1266.614 a 1040.3836,908.24239 0 0 0 505.225,-114.283 932.85991,814.37547 0 0 0 283.338,-251.175 1602.8734,1399.2893 0 0 0 253.778,-481.569 977.69804,853.51864 0 0 0 8.583,-221.112 746.77129,651.92234 0 0 0 -85.206,-289.418 1624.7924,1418.4244 0 0 0 -250.821,-309.161 l -31.618,-29.984 a 910.36368,794.73657 0 0 0 -530.041,-247.069 l -531.691,-72.106 363.625,36.656 a 1.9297009,1.684605 0 0 1 -0.304,3.348 l -911.073,-69.043 a 8.4221308,7.3524201 0 0 1 0.921,-14.677 l 14.557,0.284 a 15884.559,13867.03 0 0 0 558.606,1.289 l 124.022,-1.603 a 1187.7646,1036.9044 0 0 0 409.803,-69.342 l 287.65,-96.844 a 1025.3877,895.15114 0 0 0 338.394,-187.143 940.59997,821.13242 0 0 0 234.81,-447.76 l 10.321,-44.305 a 1479.0676,1291.2083 0 0 0 -44.31,-660.147 930.73974,812.52459 0 0 0 -276.487,-359.052 c -189.429,-143.393 -526.078,-350.912 -763.168,-339.259 -304.791,1.287 -331.679,1.003 -365.482,0.43 -124.234,-2.348 -325.63,-6.828 -449.888,-8.043 z"
   id="path19" /><path
   style="fill:#ffffff;fill-opacity:0;stroke:#ffffff;stroke-width:569.353;stroke-dasharray:none;stroke-opacity:1"
   d="m 22658.586,27934.262 665.37,-974.382 c 0,0 1312.832,-1707.181 760.268,-1325.788 l 1434.346,-990.019 2014.055,-722.91 -8.53,-13769.383 -4948.679,-30.451 z"
   id="path1"
   sodipodi:nodetypes="ccsccccc" /><rect
   style="fill:#ffffff;fill-opacity:0;stroke:#ffffff;stroke-width:461.278;stroke-dasharray:none;stroke-opacity:1"
   id="rect1"
   width="4612.8721"
   height="13324.514"
   x="15911.595"
   y="17134.281" /><rect
   style="fill:#ffffff;fill-opacity:0;stroke:#ffffff;stroke-width:367.384;stroke-dasharray:none;stroke-opacity:1"
   id="rect1-3"
   width="4309.3936"
   height="9047.3047"
   x="9231.5742"
   y="21427.871" /><rect
   style="fill:#ffffff;fill-opacity:0;stroke:#ffffff;stroke-width:245.126;stroke-dasharray:none;stroke-opacity:1"
   id="rect1-5"
   width="3484.0679"
   height="4981.8594"
   x="4004.5952"
   y="25493.311" /></svg>
