<?xml version="1.0" encoding="UTF-8" standalone="no"?>
<!-- Created with Inkscape (http://www.inkscape.org/) -->

<svg
   version="1.1"
   id="svg1"
   width="300"
   height="300"
   viewBox="0 0 300 300"
   sodipodi:docname="download (1).png"
   xmlns:inkscape="http://www.inkscape.org/namespaces/inkscape"
   xmlns:sodipodi="http://sodipodi.sourceforge.net/DTD/sodipodi-0.dtd"
   xmlns="http://www.w3.org/2000/svg"
   xmlns:svg="http://www.w3.org/2000/svg">
  <defs
     id="defs1">
    <inkscape:path-effect
       effect="fillet_chamfer"
       id="path-effect6"
       is_visible="true"
       lpeversion="1"
       nodesatellites_param="F,0,0,1,0,0,0,1 @ F,0,0,1,0,0,0,1 @ F,0,0,1,0,4.1393679,0,1 @ F,0,0,1,0,3.704138,0,1 @ F,0,0,1,0,5.3675656,0,1 @ F,0,0,1,0,2.4024544,0,1 @ F,0,0,1,0,0,0,1 @ F,0,0,1,0,4.7414214,0,1 @ F,0,0,1,0,7.0939166,0,1 @ F,0,0,1,0,0,0,1 @ F,0,0,1,0,3.4485392,0,1"
       radius="0"
       unit="px"
       method="auto"
       mode="F"
       chamfer_steps="1"
       flexible="false"
       use_knot_distance="true"
       apply_no_radius="true"
       apply_with_radius="true"
       only_selected="false"
       hide_knots="false" />
    <inkscape:path-effect
       effect="fillet_chamfer"
       id="path-effect5"
       is_visible="true"
       lpeversion="1"
       nodesatellites_param="F,0,1,1,0,0,0,1 @ F,0,0,1,0,7.6250352,0,1 @ F,0,0,1,0,6.1998729,0,1 @ F,0,0,1,0,0,0,1 @ F,0,0,1,0,0,0,1 @ F,0,0,1,0,0,0,1"
       radius="0"
       unit="px"
       method="auto"
       mode="F"
       chamfer_steps="1"
       flexible="false"
       use_knot_distance="true"
       apply_no_radius="true"
       apply_with_radius="true"
       only_selected="false"
       hide_knots="false" />
    <inkscape:path-effect
       effect="fillet_chamfer"
       id="path-effect3"
       is_visible="true"
       lpeversion="1"
       nodesatellites_param="F,0,0,1,0,17.116262,0,1 @ F,0,0,1,0,3.8499987,0,1 @ F,0,0,1,0,4.9474455,0,1 @ F,0,0,1,0,3.3553465,0,1 @ F,0,0,1,0,4.9021081,0,1 @ F,0,0,1,0,4.0482855,0,1 @ F,0,0,1,0,8.5332547,0,1 @ F,0,0,1,0,0,0,1 @ F,0,0,1,0,0,0,1 @ F,0,0,1,0,0,0,1 @ F,0,0,1,0,5.6724841,0,1 @ F,0,0,1,0,1.7730578,0,1 @ F,0,0,1,0,0,0,1 @ F,0,0,1,0,0,0,1 @ F,0,0,1,0,0,0,1 @ F,0,0,1,0,0,0,1 @ F,0,0,1,0,0,0,1 @ F,0,0,1,0,0,0,1 @ F,0,0,1,0,4.61265,0,1 @ F,0,0,1,0,6.1074536,0,1 @ F,0,0,1,0,0,0,1 @ F,0,0,1,0,3.3541346,0,1 @ F,0,0,1,0,0,0,1 @ F,0,0,1,0,0,0,1 @ F,0,0,1,0,0,0,1 @ F,0,0,1,0,0,0,1 @ F,0,0,1,0,0,0,1 @ F,0,0,1,0,9.1238327,0,1 @ F,0,0,1,0,7.0898454,0,1 @ F,0,0,1,0,6.8288246,0,1 @ F,0,0,1,0,7.139027,0,1"
       radius="0"
       unit="px"
       method="auto"
       mode="F"
       chamfer_steps="1"
       flexible="false"
       use_knot_distance="true"
       apply_no_radius="true"
       apply_with_radius="true"
       only_selected="false"
       hide_knots="false" />
  </defs>
  <sodipodi:namedview
     id="namedview1"
     pagecolor="#ffffff"
     bordercolor="#000000"
     borderopacity="0.25"
     inkscape:showpageshadow="2"
     inkscape:pageopacity="0.0"
     inkscape:pagecheckerboard="0"
     inkscape:deskcolor="#d1d1d1" />
  <g
     inkscape:groupmode="layer"
     inkscape:label="Image"
     id="g1">
    <ellipse
       style="fill:#261c91;stroke:#261c91;stroke-width:6.4"
       id="path1"
       cx="147.83736"
       cy="54.576874"
       rx="51.278271"
       ry="49.778908" />
    <circle
       style="fill:#000000;fill-opacity:1;stroke:#000000;stroke-width:6.4;stroke-opacity:1"
       id="path2"
       cx="264.48795"
       cy="90.561623"
       r="20.391359" />
    <path
       style="fill:#000000;fill-opacity:1;stroke:#000000;stroke-width:6.4;stroke-opacity:1"
       d="m 190.34962,107.33818 c -21.7196,7.09198 -42.08964,15.83682 -63.54962,23.94336 -1.98827,0.75107 -4.82233,2.56969 -6.32585,4.07321 a 17.658114,17.658114 119.15732 0 0 -3.87109,6.93863 12.434158,12.434158 96.400945 0 0 -0.50997,4.54583 13.78458,13.78458 16.547455 0 0 9.83876,4.38928 23.20571,23.20571 167.12147 0 0 10.0645,-2.30111 l 32.36515,-10.25179 -20.35605,25.44506 -19.50789,70.39801 -44.099788,39.07087 a 24.940814,24.940814 125.64692 0 0 -6.447074,8.98961 l -0.503379,1.19553 a 4.933923,4.933923 93.067221 0 0 -0.178564,3.33239 l 0.762769,2.54257 30.109986,0.42408 43.25661,-39.43985 2.54451,-7.20943 12.72253,-41.56027 35.199,32.6545 0.77721,50.51887 a 9.3055282,9.3055282 62.751476 0 0 3.7844,7.34832 21.269175,21.269175 20.291736 0 0 10.41686,3.8516 l 5.80167,0.62161 4.3934,-2.84279 a 9.041886,9.041886 126.74213 0 0 3.76245,-5.03998 l 1.174,-3.99159 -0.42408,-55.97914 -3.39268,-8.0576 -8.0576,-8.48169 -27.56549,-26.29323 38.51074,-49.6196 a 34.095347,34.095347 112.83453 0 0 6.8407,-16.24597 17.315997,17.315997 74.77421 0 0 -2.62601,-9.64814 18.154015,18.154015 43.446938 0 0 -8.55278,-8.10125 18.659594,18.659594 4.7401314 0 0 -9.64988,-0.80017 c -5.69741,0.36367 -17.72224,2.64638 -26.70745,5.58027 z"
       id="path3"
       inkscape:path-effect="#path-effect3"
       inkscape:original-d="m 206.74113,102.41638 c -29.36445,7.9937 -55.41369,19.75526 -83.54462,30.21601 l -4.98299,4.98299 -2.22644,6.46728 0.10601,2.75655 5.83116,3.81677 5.93719,0.84817 40.50006,-12.82856 -20.35605,25.44506 -19.50789,70.39801 -48.345614,42.83252 -3.392675,8.0576 1.272253,4.24085 30.109986,0.42408 43.25661,-39.43985 2.54451,-7.20943 12.72253,-41.56027 35.199,32.6545 0.84817,55.13097 8.0576,5.93718 11.87437,1.27225 7.20943,-4.66493 2.12042,-7.20943 -0.42408,-55.97914 -3.39268,-8.0576 -8.0576,-8.48169 -27.56549,-26.29323 44.10478,-56.82731 1.69634,-12.29844 -5.5131,-11.45028 -8.64072,-4.29386 z"
       sodipodi:nodetypes="cccccccccccccccccccccccccccccccc" />
    <rect
       style="fill:#000000;fill-opacity:1;stroke:#000000;stroke-width:6.4;stroke-opacity:1"
       id="rect3"
       width="220.09979"
       height="5.4070706"
       x="-0.42408437"
       y="291.34598" />
    <path
       style="fill:#ffffff;fill-opacity:0;stroke:#fcfcfc;stroke-width:6.4;stroke-opacity:1"
       d="m 117.47521,71.369759 1.91292,-0.493657 a 11.646698,11.646698 132.31714 0 0 8.58971,-9.434297 65.437685,65.437685 93.685151 0 0 0.66764,-10.365947 V 38.008895 l 14.99365,0.07497 -0.29987,36.284625"
       id="path4"
       inkscape:path-effect="#path-effect5"
       inkscape:original-d="m 117.47521,71.369759 9.29607,-2.398985 1.8742,-11.695043 V 38.008895 l 14.99365,0.07497 -0.29987,36.284625"
       sodipodi:nodetypes="cccccc" />
    <path
       style="fill:#000000;fill-opacity:0;stroke:#ffffff;stroke-width:6.4;stroke-opacity:1"
       d="m 156.98348,38.008894 -0.14993,34.185515 5.15723,0.08318 a 16.670391,16.670391 166.97915 0 0 7.82816,-1.810273 l 1.55562,-0.79146 a 6.1513212,6.1513212 121.9792 0 0 3.36116,-5.383325 l 0.004,-0.225538 a 7.7887899,7.7887899 56.351854 0 0 -4.89785,-7.358432 l -1.27478,-0.509348 a 23.673001,23.673001 15.984756 0 0 -4.59552,-1.316422 l -5.03855,-0.905664 6.24781,-0.855864 a 13.298852,13.298852 152.57721 0 0 7.92844,-4.113717 7.047436,7.047436 81.735878 0 0 -1.28172,-8.824574 l -0.64681,-0.390783 a 12.376714,12.376714 15.569503 0 0 -6.4002,-1.783295 z"
       id="path5"
       sodipodi:nodetypes="cccccccccccc"
       inkscape:path-effect="#path-effect6"
       inkscape:original-d="m 156.98348,38.008894 -0.14993,34.185515 9.29606,0.149936 8.54637,-4.348157 0.14995,-9.296061 -8.49016,-3.392312 -7.40311,-1.330687 10.94536,-1.499364 6.07243,-6.522237 -4.12326,-5.772554 -3.59847,-2.174078 z" />
  </g>
</svg>
