<?xml version="1.0" encoding="UTF-8" standalone="no"?>
<svg
   width="300"
   height="300"
   xml:space="preserve"
   enable-background="new 0 0 122.879 118.77"
   version="1.1"
   id="svg1"
   sodipodi:docname="svg (1).svg"
   xmlns:inkscape="http://www.inkscape.org/namespaces/inkscape"
   xmlns:sodipodi="http://sodipodi.sourceforge.net/DTD/sodipodi-0.dtd"
   xmlns="http://www.w3.org/2000/svg"
   xmlns:svg="http://www.w3.org/2000/svg"><defs
   id="defs1" /><sodipodi:namedview
   id="namedview1"
   pagecolor="#505050"
   bordercolor="#eeeeee"
   borderopacity="1"
   inkscape:showpageshadow="0"
   inkscape:pageopacity="0"
   inkscape:pagecheckerboard="0"
   inkscape:deskcolor="#505050"
   showgrid="false" />

 <g
   id="g1">
  <title
   id="title1">Layer 1</title>
  <g
   stroke="null"
   fill="#ffffff"
   id="svg_1">
   <path
   stroke="null"
   id="svg_2"
   d="m 34.42372,266.31419 v -115.3768 c -5.50999,2.19468 -10.66677,2.24345 -14.95231,0.73156 -3.34367,-1.16806 -6.1693,-3.2652 -8.24143,-5.97197 -2.07213,-2.70677 -3.38841,-5.99879 -3.7887,-9.62977 -0.61222,-5.63545 1.01252,-11.99759 5.64891,-17.972 v 0 c 0.23547,-0.29262 0.49449,-0.58281 0.8006,-0.8291 L 148.23792,8.66356 c 1.74247,-1.6582 4.42683,-1.8289 6.35768,-0.26824 l 134.6556,108.40991 v 0 c 0.21192,0.16826 0.4003,0.34139 0.58632,0.55842 6.23994,6.94982 7.7964,14.65559 6.28704,21.16647 -0.75115,3.21643 -2.23461,6.0939 -4.28319,8.48366 -2.04858,2.38732 -4.6623,4.24061 -7.62921,5.33795 -4.70704,1.75574 -10.31121,1.70697 -15.98603,-1.07052 V 266.02155 H 255.03984 V 145.28242 c 0,-2.46292 -92.36763,-78.07698 -102.5611,-86.2924 -10.8057,8.50805 -104.8687,83.51247 -104.8687,86.68257 v 120.68792 l -13.18629,-0.0463 v 0 0 z m 109.35911,-65.64046 c 25.66853,0 46.47933,21.55176 46.47933,48.13422 0,26.58246 -20.8108,48.13178 -46.47933,48.13178 -25.66853,0 -46.47933,-21.54932 -46.47933,-48.13178 0,-26.58246 20.8108,-48.13422 46.47933,-48.13422 z m 18.22534,56.22528 c -1.20796,0 -2.12629,0.36334 -2.76206,1.07295 -0.63577,0.73156 -0.95601,1.7216 -0.95601,3.04817 0,1.30462 0.32259,2.31661 0.95601,3.03841 0.63577,0.70961 1.5541,1.06564 2.76206,1.06564 1.19148,0 2.10745,-0.36334 2.74322,-1.06564 0.63577,-0.72181 0.95601,-1.7338 0.95601,-3.03841 0,-1.32656 -0.32259,-2.32636 -0.95601,-3.04817 -0.61458,-0.71937 -1.54233,-1.07295 -2.74322,-1.07295 z m -36.44833,-21.9151 c -1.20089,0 -2.10745,0.36334 -2.74322,1.06564 -0.63577,0.71937 -0.95601,1.73136 -0.95601,3.03597 0,1.31437 0.32259,2.33855 0.95601,3.04817 0.63342,0.70962 1.54233,1.07539 2.74322,1.07539 1.20796,0 2.12629,-0.36578 2.7597,-1.07539 0.63577,-0.73156 0.93717,-1.7338 0.93717,-3.04817 0,-1.30462 -0.30376,-2.31661 -0.93717,-3.03597 -0.61222,-0.69986 -1.53997,-1.06564 -2.7597,-1.06564 z m 36.44597,13.36804 c 3.89938,0 7.03112,1.16318 9.41172,3.4554 2.36647,2.30929 3.56736,5.36965 3.56736,9.19571 0,3.81631 -1.20089,6.8913 -3.56736,9.1884 -2.3806,2.30929 -5.51234,3.45784 -9.41172,3.45784 -3.90644,0 -7.04525,-1.14855 -9.42584,-3.45784 -2.36647,-2.30929 -3.55088,-5.36965 -3.55088,-9.1884 0,-3.82606 1.18441,-6.88642 3.55088,-9.19571 2.3806,-2.29466 5.51941,-3.4554 9.42584,-3.4554 z m -36.44597,-21.91754 c 3.89938,0 7.04525,1.14855 9.42584,3.45784 2.36411,2.30929 3.55088,5.36965 3.55088,9.19083 0,3.82362 -1.18677,6.88398 -3.55088,9.19571 -2.3806,2.30198 -5.52647,3.45784 -9.42584,3.45784 -3.89937,0 -7.03112,-1.16562 -9.41172,-3.45784 -2.37353,-2.30929 -3.56736,-5.36965 -3.56736,-9.19571 0,-3.81874 1.19383,-6.89374 3.56736,-9.19083 2.3806,-2.30929 5.51234,-3.45784 9.41172,-3.45784 z m 28.47768,1.80452 h 10.56081 l -30.92657,43.56929 h -10.57023 l 30.93598,-43.56929 v 0 0 z m 71.68398,-2.71409 c 1.07374,1.85816 1.64829,3.8285 1.64829,5.86711 0,8.41782 -9.78847,15.60662 -23.51869,18.39142 0.005,-0.32433 0.009,-0.65109 0.009,-0.97541 0,-3.60903 -0.30847,-7.14978 -0.89243,-10.58568 10.82218,-2.01667 19.32734,-6.74742 22.75342,-12.69745 v 0 0 0 0 z m -69.4376,-37.59732 c 4.09717,-8.39343 18.19237,-14.58975 34.94132,-14.58975 v 0 0 0 c 19.95369,0 36.14692,8.79092 36.14692,19.62532 0,10.6442 -15.6493,19.32538 -35.13676,19.61801 -1.6789,-2.32392 -3.51556,-4.5186 -5.49115,-6.56453 -1.82489,-1.88986 -3.77222,-3.65536 -5.82316,-5.2843 3.20945,0.48283 6.68027,0.74863 10.30415,0.74863 16.40752,0 29.70212,-5.39404 29.70212,-12.06587 0,-6.6572 -13.29461,-12.06587 -29.70212,-12.06587 v 0 0 0 0 c -16.40516,0 -29.69977,5.39648 -29.69977,12.06587 0,0.4243 0.0518,0.83886 0.15541,1.25097 -1.88376,-0.5633 -3.80519,-1.03394 -5.76429,-1.39972 0.19073,-0.83398 0.36262,-1.34607 0.36733,-1.33876 z m 40.18994,8.90309 -0.0659,-4.85024 c 1.05726,-0.0439 1.92614,-0.37553 2.59958,-0.9998 0.68286,-0.62426 1.04313,-1.37289 1.12319,-2.25808 0.0824,-1.01687 -0.23782,-1.90206 -0.96307,-2.68239 -0.73466,-0.77545 -1.90024,-1.23146 -3.49201,-1.37289 -1.48817,-0.14387 -2.63961,0.11217 -3.45669,0.75107 -0.80531,0.62183 -1.25976,1.49482 -1.35159,2.60679 -0.12244,1.38509 0.3744,2.6897 1.47404,3.89678 l -0.88537,3.86751 -13.44295,-3.61878 2.04623,-12.78767 4.3656,0.38773 -0.76292,9.12987 4.07362,1.12416 c -0.43326,-1.12416 -0.6028,-2.25077 -0.51097,-3.38712 0.17425,-2.13616 1.08551,-3.89678 2.71732,-5.24041 1.6318,-1.3607 3.65684,-1.92888 6.05157,-1.70697 2.01091,0.18045 3.75338,0.94615 5.21329,2.28734 2.0062,1.83378 2.89157,4.20647 2.64903,7.11808 -0.20015,2.3288 -0.94894,4.17477 -2.28876,5.53303 -1.32805,1.37289 -3.03049,2.10689 -5.09321,2.202 v 0 0 0 0 z m 29.38189,9.22254 c 0.99368,1.78988 1.51642,3.67731 1.51642,5.63301 0,8.96405 -11.0859,16.52838 -26.21718,18.87181 -1.14438,-3.7529 -2.63726,-7.35218 -4.43154,-10.74906 13.89035,-1.15343 25.18111,-6.5938 29.13229,-13.75577 v 0 0 0 0 0 z M 76.60338,193.70685 c 0,-2.15323 0.60987,-4.23086 1.74012,-6.19388 4.12543,7.15954 15.23723,12.66331 28.99336,14.12887 -4.09246,2.80188 -7.73282,6.27923 -10.76096,10.27842 -7.77991,-2.30441 -19.97252,-8.23493 -19.97252,-18.21341 z m 51.93986,-48.99746 -0.44268,5.13799 -18.72924,-1.68503 c 1.54233,2.03618 2.61607,4.36254 3.20709,6.98152 l -4.50924,-0.40967 c -0.70641,-3.13595 -3.03285,-6.82546 -5.92206,-8.19591 l 0.3532,-4.16989 26.04293,2.34099 v 0 0 0 z m 17.56603,4.66979 c 0,7.02542 -14.03398,12.73402 -31.35041,12.73402 -17.31643,0 -31.35277,-5.70861 -31.35277,-12.73402 0,-7.03029 14.03634,-12.7389 31.35277,-12.7389 7.18417,0 31.35041,2.46048 31.35041,12.7389 z m -31.35041,-16.95513 c 21.06275,0 38.15548,9.26887 38.15548,20.71535 0,11.43429 -17.09273,20.71291 -38.15548,20.71291 -21.06039,0 -38.15548,-9.27862 -38.15548,-20.71291 0,-11.44892 17.09509,-20.71535 38.15548,-20.71535 z m 36.55664,34.52233 c 1.04313,1.88499 1.59884,3.87727 1.59884,5.94271 0,6.26703 -5.1403,11.89029 -13.25222,15.69197 -6.09866,0.61695 -11.92182,2.20687 -17.32585,4.61614 -2.44888,0.26824 -4.98253,0.40967 -7.57505,0.40967 -21.06039,0 -38.15548,-9.2835 -38.15548,-20.71535 0,-2.06544 0.56513,-4.05528 1.59884,-5.94271 4.70704,8.53487 19.29673,14.7702 36.55664,14.7702 17.25992,-0.002 31.84725,-6.23777 36.55429,-14.77264 v 0 0 0 0 0 z M 76.60338,236.3056 c 0,-2.29954 0.69228,-4.52104 1.9803,-6.58892 1.77779,2.88722 4.69055,5.47695 8.45336,7.62773 -0.08477,1.19976 -0.12715,2.41659 -0.12715,3.64805 -0.0047,1.41435 0.04945,2.8287 0.16718,4.24061 -0.06593,1.18025 -0.10125,2.37513 -0.10125,3.57489 0,0.56574 0.0071,1.13148 0.02355,1.69478 -5.09321,-2.93356 -10.39598,-7.74478 -10.39598,-14.19714 v 0 z m 0,-21.60785 c 0,-2.19468 0.63812,-4.30401 1.79899,-6.2841 2.47008,4.2211 7.37491,7.86671 13.82677,10.42717 -1.7566,3.39688 -3.09171,7.00591 -3.9865,10.74418 -5.45583,-2.8604 -11.63926,-7.92036 -11.63926,-14.88725 z M 228.07856,15.97918 268.50632,17.68615 V 74.23088 L 228.07856,46.60229 v -30.62311 0 z"
   clip-rule="evenodd"
   fill-rule="evenodd" />
  </g>
  <rect
   stroke="null"
   id="svg_3"
   height="63.414631"
   width="40.46196"
   y="39.512192"
   x="228.05603"
   fill="#ffffff" />
 </g>
</svg>
