<svg version="1.2" xmlns="http://www.w3.org/2000/svg" viewBox="0 0 307 265" width="307" height="265">
	<title>student-svg</title>
	<style>
		.s0 { fill: none;stroke: #ffffff;stroke-width: 8.4 } 
		.s1 { fill: none;stroke: #ffffff;stroke-width: 9.7 } 
		.s2 { fill: none;stroke: #fffbfb;stroke-width: 6 } 
		.s3 { fill: none;stroke: #ffffff;stroke-width: 5.8 } 
		.s4 { fill: none;stroke: #ffffff;stroke-width: 6.1 } 
	</style>
	<g id="g1">
		<path id="path1" fill-rule="evenodd" class="s0" d="m108.6 109.8l-96.7 36.1 140.1 67 143.7-69.4-98.5-32.6-25.4 10.6q-4.5 1.9-9.2 2.8-4.8 0.9-9.7 0.9-4.9-0.1-9.7-1.1-4.7-1.1-9.2-3.1z"/>
		<path id="path2" class="s1" d="m152.5 122.5c-32.4 0-58.6-26.1-58.6-58.3 0-32.2 26.2-58.2 58.6-58.2 32.5 0 58.7 26 58.7 58.2 0 32.2-26.2 58.3-58.7 58.3z"/>
		<path id="path3" fill-rule="evenodd" class="s0" d="m74.4 179.9l-0.4 51.7q3.2 3.6 6.8 6.8 3.6 3.2 7.6 5.9 4 2.7 8.3 4.9 4.3 2.2 8.9 3.8 2.4 0.9 4.8 1.6 2.5 0.7 5 1.2 2.4 0.5 5 0.9 2.5 0.3 5 0.5l7.7 1.1q5.5 0.8 11.2 1.2 5.6 0.5 11.3 0.6 5.6 0.1 11.3-0.1 5.6-0.2 11.2-0.7 2.9-0.4 5.8-0.9 2.9-0.6 5.7-1.3 2.9-0.7 5.7-1.5 2.8-0.9 5.5-1.9 2.3-0.9 4.6-1.8 2.2-1 4.4-2 2.2-1.1 4.4-2.2 2.1-1.2 4.2-2.4l4-2.3q1.6-0.9 3.2-2 1.5-1 3-2.2 1.5-1.2 2.8-2.4 1.4-1.3 2.7-2.7l-0.5-16.9q-0.1-2.6-0.2-5.2-0.1-2.6-0.1-5.2-0.1-2.6-0.1-5.2-0.1-2.7-0.1-5.3l-0.3-19.4-79 38z"/>
		<path id="path4" fill-rule="evenodd" class="s2" d="m258.9 226.9l-2.2 5.1-1.2 4.2q-0.3 1-0.2 2.1 0 1.1 0.4 2 0.4 1 1.1 1.9 0.7 0.8 1.6 1.3l0.1 0.1q2 0.6 4 0.9 2 0.4 4.1 0.4 2 0.1 4-0.2 2.1-0.2 4-0.7 1-1.3 1.6-2.7 0.6-1.5 0.8-3.1 0.2-1.5 0-3.1-0.2-1.5-0.8-3-0.4-1.4-0.9-2.8-0.5-1.5-1.1-2.8-0.5-1.4-1.1-2.8-0.6-1.4-1.2-2.7l-0.2-0.5-5.6 0.9q-1.2 0.2-2.3 0.6-1.1 0.5-2 1.2-0.9 0.7-1.7 1.7-0.7 0.9-1.2 2z"/>
		<path id="path5" fill-rule="evenodd" class="s3" d="m265.5 159.3l-0.2 45.6q0 0.3 0.1 0.6 0 0.4 0.2 0.6 0.2 0.3 0.5 0.5 0.2 0.2 0.5 0.4l1.9 0.8q0.8 0.4 1.6 0.9 0.7 0.6 1.3 1.2 0.6 0.7 1.1 1.5 0.4 0.8 0.7 1.7 0.1 0.7 0.1 1.3 0 0.7-0.2 1.3-0.1 0.6-0.4 1.2-0.3 0.6-0.7 1.1-0.6 0.7-1.4 1.2-0.7 0.6-1.6 0.9-0.8 0.4-1.8 0.5-0.9 0.1-1.8 0.1h-1q-1.2 0-2.3-0.4-1.2-0.4-2.1-1.2-0.9-0.8-1.4-1.9-0.5-1.1-0.6-2.3l0.3-0.9q0.3-1.2 0.9-2.2 0.6-1.1 1.4-1.9 0.9-0.9 1.9-1.5 1.1-0.7 2.2-1l1.8-0.6z"/>
		<path id="path6" fill-rule="evenodd" class="s0" d="m219.1 155.6l35.1 3 7.6 0.4z"/>
		<path id="path7" fill-rule="evenodd" class="s0" d="m107.3 141.9l89.6 0.9"/>
		<path id="path8" fill-rule="evenodd" class="s0" d="m166.2 45.9l-3-1.6q-1.1-0.5-2.2-0.9-1.1-0.5-2.3-0.7-1.2-0.3-2.3-0.5-1.2-0.1-2.4-0.2h-3.9q-0.9 0-1.7 0.2-0.8 0.1-1.5 0.5-0.7 0.4-1.3 1-0.6 0.6-1.1 1.3l-1.2 1.9q-0.4 0.7-0.7 1.5-0.3 0.8-0.4 1.6-0.1 0.8 0 1.7 0.1 0.8 0.3 1.6 0.5 1.2 1.1 2.2 0.6 1.1 1.3 2 0.8 1 1.8 1.8 0.9 0.7 2 1.3l1 0.7q1 0.6 2.1 1.2 1 0.6 2.1 1.2 1 0.6 2.1 1.1 1.1 0.6 2.2 1.1l2.9 1.4q0.8 0.4 1.5 0.9 0.7 0.5 1.3 1.2 0.6 0.7 1.1 1.5 0.4 0.7 0.7 1.6 0.2 0.8 0.3 1.6 0.1 0.8 0.1 1.7-0.1 0.8-0.2 1.6-0.2 0.8-0.5 1.6-0.3 0.9-0.8 1.7-0.6 0.8-1.3 1.5-0.7 0.6-1.6 1.1-0.9 0.4-1.8 0.6l-3.9 0.8-6.6-0.6q-1.1-0.1-2.3-0.5-1.1-0.3-2.1-0.9-1.1-0.6-1.9-1.4-0.9-0.8-1.6-1.7l-1.9-2.6"/>
		<path id="path9" fill-rule="evenodd" class="s4" d="m154.7 28.6l-0.2 68"/>
	</g>
</svg>