<?xml version="1.0" encoding="UTF-8" standalone="no"?>
<svg
   width="100"
   height="100"
   viewBox="0 0 100 99.999997"
   version="1.1"
   id="svg1"
   sodipodi:docname="ubb.svg"
   inkscape:export-filename="ubb.svg"
   inkscape:export-xdpi="96"
   inkscape:export-ydpi="96"
   inkscape:version="1.3.2 (091e20e, 2023-11-25, custom)"
   xmlns:inkscape="http://www.inkscape.org/namespaces/inkscape"
   xmlns:sodipodi="http://sodipodi.sourceforge.net/DTD/sodipodi-0.dtd"
   xmlns="http://www.w3.org/2000/svg"
   xmlns:svg="http://www.w3.org/2000/svg">
  <defs
     id="defs1" />
  <sodipodi:namedview
     id="namedview1"
     pagecolor="#ffffff"
     bordercolor="#000000"
     borderopacity="0.25"
     inkscape:showpageshadow="2"
     inkscape:pageopacity="0.0"
     inkscape:pagecheckerboard="0"
     inkscape:deskcolor="#d1d1d1"
     showgrid="false"
     inkscape:zoom="7.87"
     inkscape:cx="50"
     inkscape:cy="50"
     inkscape:window-width="1920"
     inkscape:window-height="1001"
     inkscape:window-x="-9"
     inkscape:window-y="-9"
     inkscape:window-maximized="1"
     inkscape:current-layer="svg1" />
  <g
     id="Group_1"
     data-name="Group 1"
     transform="matrix(0.8031632,0,0,0.79800157,-206.96813,-305.57406)">
    <g
       id="g1"
       transform="matrix(0.38328629,0,0,0.40182918,168.32548,239.17137)">
      <path
         id="Path_1"
         data-name="Path 1"
         d="M 0,223.955 C 0,223.682 0.091,223.5 0.455,223.5 h 3.187 c 0.273,0 0.455,0.091 0.455,0.455 v 5.918 c 0,1.639 0.455,2.823 1.366,3.369 a 4.8,4.8 0 0 0 2.823,0.637 h 0.819 v -9.925 c 0,-0.273 0.091,-0.455 0.455,-0.455 h 3.187 c 0.273,0 0.455,0.091 0.455,0.455 v 21.852 c 0,0.273 -0.091,0.455 -0.455,0.455 H 9.56 c -0.273,0 -0.455,-0.091 -0.455,-0.455 v -8.832 H 7.466 A 7.536,7.536 0 0 1 2.458,235.335 7.055,7.055 0 0 1 0,229.6 Z"
         transform="translate(270,372.616)"
         fill="#003966" />
      <path
         id="Path_2"
         data-name="Path 2"
         d="m 28.944,247.3 a 1.436,1.436 0 0 1 -0.364,0.091 c -0.273,0 -0.546,-0.819 -0.911,-2.276 l -1,0.911 a 5.169,5.169 0 0 1 -3.642,1.366 c -3,0 -4.826,-1.912 -4.826,-4.917 a 4.63,4.63 0 0 1 3.278,-4.735 17.014,17.014 0 0 1 5.554,-0.728 v -1.366 c 0,-1.912 -0.637,-2.823 -2.64,-2.823 a 11.269,11.269 0 0 0 -3.733,0.911 0.907,0.907 0 0 1 -0.364,0.091 c -0.091,0 -0.091,0 -0.091,-0.091 l -0.637,-2.094 a 0.688,0.688 0 0 1 -0.091,-0.364 q 0,-0.41 1.912,-0.819 A 18.938,18.938 0 0 1 25.12,230 c 4.006,0 5.554,1.73 5.554,5.19 v 6.556 a 9.844,9.844 0 0 0 0.728,4.006 0.688,0.688 0 0 1 0.091,0.364 0.089,0.089 0 0 1 -0.091,0.091 z m -1.73,-8.1 h -1.366 c -2.64,0.091 -3.915,1.093 -3.915,3 a 2.489,2.489 0 0 0 2.549,2.549 4.064,4.064 0 0 0 2.823,-1.457 v -4.1 z"
         transform="translate(268.371,372.034)"
         fill="#003966" />
      <path
         id="Path_3"
         data-name="Path 3"
         d="m 47.546,245.752 a 0.334,0.334 0 0 1 -0.091,0.273 4.328,4.328 0 0 1 -1.73,0.911 9.466,9.466 0 0 1 -2.64,0.455 c -4.644,0 -7.284,-2.823 -7.284,-8.377 0,-5.645 2.823,-9.014 7.648,-9.014 a 6.619,6.619 0 0 1 4.462,1.639 0.171,0.171 0 0 1 0,0.273 l -1.184,2.094 -0.091,0.091 h -0.091 a 0.089,0.089 0 0 1 -0.091,-0.091 5.29,5.29 0 0 0 -3,-1.184 c -2.367,0 -3.642,2 -3.642,5.918 a 8.437,8.437 0 0 0 0.819,4.279 3.029,3.029 0 0 0 2.914,1.457 3.543,3.543 0 0 0 2.094,-0.637 c 0.182,-0.091 0.364,-0.273 0.637,-0.455 0.182,-0.091 0.273,-0.091 0.364,0.091 z"
         transform="translate(266.796,372.034)"
         fill="#003966" />
      <path
         id="Path_4"
         data-name="Path 4"
         d="m 69.7,246.853 a 0.2,0.2 0 0 1 -0.182,-0.182 V 236.2 c 0,-2.094 -0.546,-3.1 -1.73,-3.1 a 4.971,4.971 0 0 0 -3.278,1.548 v 12.019 a 0.2,0.2 0 0 1 -0.182,0.182 H 60.96 a 0.2,0.2 0 0 1 -0.182,-0.182 V 236.2 c 0,-2.094 -0.546,-3.1 -1.73,-3.1 a 4.971,4.971 0 0 0 -3.278,1.548 v 12.019 a 0.2,0.2 0 0 1 -0.182,0.182 h -3.369 a 0.2,0.2 0 0 1 -0.182,-0.182 v -10.284 a 15.766,15.766 0 0 0 -0.546,-4.917 0.917,0.917 0 0 0 -0.091,-0.273 0.2,0.2 0 0 1 0.182,-0.182 l 2.549,-0.819 q 0.41,-0.137 0.546,0 a 8.467,8.467 0 0 1 0.819,2.458 16.052,16.052 0 0 1 2.458,-1.821 5.549,5.549 0 0 1 2.914,-0.728 3.468,3.468 0 0 1 3.369,2.549 24.243,24.243 0 0 1 2.367,-1.821 6.654,6.654 0 0 1 3,-0.728 c 2.458,0 3.642,1.73 3.642,5.1 v 11.472 a 0.2,0.2 0 0 1 -0.182,0.182 H 69.7 Z"
         transform="translate(265.4,372.025)"
         fill="#003966" />
      <path
         id="Path_5"
         data-name="Path 5"
         d="m 86.5,238.741 c 0,-5.372 2.732,-8.741 7.1,-8.741 4.368,0 7.1,3.369 7.1,8.741 0,5.372 -2.732,8.741 -7.1,8.741 -4.37,-0.091 -7.1,-3.369 -7.1,-8.741 m 4.644,-4.1 a 15.638,15.638 0 0 0 0,8.195 2.744,2.744 0 0 0 5.1,0 10.973,10.973 0 0 0 0.546,-4.1 11.643,11.643 0 0 0 -0.546,-4.1 2.539,2.539 0 0 0 -2.549,-1.73 2.373,2.373 0 0 0 -2.549,1.73"
         transform="translate(262.259,372.034)"
         fill="#003966" />
      <path
         id="Path_6"
         data-name="Path 6"
         d="m 123.8,246.853 c -0.182,0 -0.182,-0.091 -0.182,-0.182 V 236.2 c 0,-2.094 -0.546,-3.1 -1.73,-3.1 a 4.971,4.971 0 0 0 -3.278,1.548 v 12.019 a 0.2,0.2 0 0 1 -0.182,0.182 h -3.368 a 0.2,0.2 0 0 1 -0.182,-0.182 V 236.2 c 0,-2.094 -0.546,-3.1 -1.73,-3.1 a 4.971,4.971 0 0 0 -3.278,1.548 v 12.019 a 0.2,0.2 0 0 1 -0.182,0.182 h -3.369 a 0.2,0.2 0 0 1 -0.182,-0.182 v -10.284 a 15.766,15.766 0 0 0 -0.546,-4.917 0.917,0.917 0 0 0 -0.091,-0.273 0.2,0.2 0 0 1 0.182,-0.182 l 2.549,-0.819 q 0.41,-0.137 0.546,0 a 8.468,8.468 0 0 1 0.819,2.458 16.052,16.052 0 0 1 2.458,-1.821 5.549,5.549 0 0 1 2.914,-0.728 3.468,3.468 0 0 1 3.369,2.549 16.052,16.052 0 0 1 2.458,-1.821 6.654,6.654 0 0 1 3,-0.728 c 2.458,0 3.642,1.73 3.642,5.1 v 11.472 a 0.2,0.2 0 0 1 -0.182,0.182 H 123.8 Z"
         transform="translate(260.559,372.025)"
         fill="#003966" />
      <path
         id="Path_7"
         data-name="Path 7"
         d="m 153.785,246.391 -0.364,0.182 h -0.273 q -0.137,0 -0.273,-0.273 l -8.195,-10.471 h -0.18 v 9.834 c 0,0.273 -0.091,0.455 -0.455,0.455 h -3.187 c -0.273,0 -0.455,-0.091 -0.455,-0.455 V 223.9 c 0,-0.273 0.091,-0.455 0.455,-0.455 h 3.187 c 0.273,0 0.455,0.091 0.455,0.455 v 9.742 h 0.182 l 7.83,-10.471 0.273,-0.273 a 0.334,0.334 0 0 1 0.273,0.091 l 0.273,0.091 2.276,1.184 a 1.127,1.127 0 0 1 0.273,0.182 0.688,0.688 0 0 1 -0.091,0.364 l -7.375,9.651 c 0,0 2.732,3.46 8.195,10.2 0.091,0.091 0.091,0.091 0.091,0.273 0,0.091 -0.091,0.091 -0.273,0.182 z"
         transform="translate(257.436,372.669)"
         fill="#003966" />
      <path
         id="Path_8"
         data-name="Path 8"
         d="m 161.955,246.072 c -0.364,0 -0.455,0 -0.455,-0.455 v -21.762 c 0,-0.273 0.091,-0.455 0.455,-0.455 h 5.281 a 10.449,10.449 0 0 1 5.008,0.911 c 1.73,0.911 2.549,2.458 2.549,4.735 a 4.533,4.533 0 0 1 -1.275,3.46 10.094,10.094 0 0 1 -2.64,1.73 c 3.187,0.911 4.735,2.732 4.735,5.554 q 0,3.688 -2.458,5.19 a 11.855,11.855 0 0 1 -5.736,1.093 z m 3.551,-19.667 v 6.556 h 1.366 c 2.64,0 4.006,-1.184 4.006,-3.46 0,-2.094 -1.184,-3.1 -3.551,-3.1 z m 0,9.56 v 7.011 h 1.457 a 5.965,5.965 0 0 0 3.187,-0.637 3.2,3.2 0 0 0 1.457,-2.914 3.147,3.147 0 0 0 -1.366,-2.914 6.719,6.719 0 0 0 -3.1,-0.546 z"
         transform="translate(255.548,372.625)"
         fill="#003966" />
      <path
         id="Path_9"
         data-name="Path 9"
         d="m 180.8,234.81 c 0,-7.83 2.914,-12.11 8.468,-12.11 a 7.8,7.8 0 0 1 3.551,1 c 1.093,0.546 1.73,1 1.73,1.275 a 0.547,0.547 0 0 1 -0.091,0.364 l -1.275,1.912 -0.182,0.182 c 0,0 -0.364,-0.273 -1.093,-0.728 a 4.365,4.365 0 0 0 -2.367,-0.819 c -3.187,0 -4.462,2.276 -4.462,8.1 a 21.159,21.159 0 0 0 0.819,6.92 3.685,3.685 0 0 0 3.642,2.64 8.386,8.386 0 0 0 3.278,-1.093 0.907,0.907 0 0 1 0.364,-0.091 c 0.091,0 0.182,0.091 0.273,0.182 l 1.093,1.912 a 0.688,0.688 0 0 1 0.091,0.364 c 0,0.273 -0.455,0.637 -1.457,1.093 a 9.133,9.133 0 0 1 -3.915,0.819 c -5.645,-0.182 -8.468,-4.1 -8.468,-11.928"
         transform="translate(253.821,372.687)"
         fill="#003966" />
      <path
         id="Path_10"
         data-name="Path 10"
         d="m 221.41,223.764 a 0.465,0.465 0 0 0 -0.455,-0.364 h -11.2 c -0.273,0 -0.455,0.091 -0.455,0.455 v 21.761 c 0,0.273 0.091,0.455 0.455,0.455 h 3.187 c 0.273,0 0.455,-0.091 0.455,-0.455 v -18.665 h 8.468 c 0.273,0 0.364,-0.091 0.364,-0.182 a 0.688,0.688 0 0 0 -0.091,-0.364 z"
         transform="translate(251.27,372.625)"
         fill="#003966" />
      <path
         id="Path_11"
         data-name="Path 11"
         d="m 228.972,246.653 -0.911,-0.455 v 6.647 c 0,0.182 -0.091,0.273 -0.455,0.364 l -2.823,0.546 c -0.273,0.091 -0.364,0.091 -0.455,0 a 0.532,0.532 0 0 1 -0.091,-0.364 v -17.208 a 15.766,15.766 0 0 0 -0.546,-4.917 0.688,0.688 0 0 1 -0.091,-0.364 c 0,-0.091 0.091,-0.091 0.182,-0.091 l 2.549,-0.819 q 0.41,-0.137 0.546,0 a 6.776,6.776 0 0 1 0.819,1.912 6.265,6.265 0 0 1 4.462,-2 c 3.733,0 5.554,2.823 5.554,8.377 0,6.009 -2,9.014 -5.918,9.014 a 8.583,8.583 0 0 1 -2.823,-0.637 m -0.455,-13.02 q 0,0.137 -0.546,0.546 v 9.469 a 5.139,5.139 0 0 0 2.732,0.728 2.848,2.848 0 0 0 2.64,-1.457 10.706,10.706 0 0 0 0.637,-4.462 9.349,9.349 0 0 0 -0.637,-4.1 2.347,2.347 0 0 0 -2.367,-1.548 3.355,3.355 0 0 0 -2.458,0.819"
         transform="translate(249.991,372.043)"
         fill="#003966" />
      <path
         id="Path_12"
         data-name="Path 12"
         d="m 255.868,231.2 -3.278,12.11 c -0.546,1.821 -1.275,4.37 -2.276,7.466 a 4.628,4.628 0 0 1 -4.735,3 7.792,7.792 0 0 1 -2.732,-0.455 c -0.911,-0.273 -1.457,-0.546 -1.548,-0.911 a 0.7,0.7 0 0 1 0.091,-0.273 l 1,-2.094 a 0.089,0.089 0 0 1 0.091,-0.091 0.282,0.282 0 0 1 0.182,0.091 5.8,5.8 0 0 0 2.64,0.728 2.743,2.743 0 0 0 2.094,-0.819 4.655,4.655 0 0 0 0.911,-1.912 l 0.455,-1.457 h -1.821 c -0.182,0 -0.273,-0.091 -0.364,-0.273 l -5.19,-15.3 a 0.907,0.907 0 0 0 -0.091,-0.364 c 0,-0.091 0.091,-0.182 0.455,-0.182 l 2.823,-0.273 h 0.546 c 0.091,0 0.182,0.182 0.273,0.455 l 2.185,8.195 c 0.728,2.64 1.184,4.644 1.457,6.1 h 0.182 c 0,-0.273 0.455,-2.367 1.366,-6.1 l 1.821,-8.195 c 0.091,-0.273 0.091,-0.455 0.182,-0.455 h 0.455 l 2.64,0.273 c 0.364,0 0.364,0.091 0.364,0.364 -0.091,0.091 -0.091,0.182 -0.182,0.364"
         transform="translate(248.407,372.016)"
         fill="#003966" />
      <path
         id="Path_13"
         data-name="Path 13"
         d="m 270.121,246.662 a 0.2,0.2 0 0 1 -0.182,-0.182 v -10.471 c 0,-2.094 -0.728,-3.1 -2.185,-3.1 a 5.163,5.163 0 0 0 -3.278,1.548 v 12.023 a 0.2,0.2 0 0 1 -0.182,0.182 h -3.369 a 0.2,0.2 0 0 1 -0.182,-0.182 v -10.2 a 15.766,15.766 0 0 0 -0.546,-4.917 c 0,-0.091 -0.091,-0.182 0,-0.273 0,-0.091 0,-0.091 0.091,-0.182 l 2.549,-0.819 q 0.41,-0.137 0.546,0 a 6.616,6.616 0 0 1 0.819,2.549 c 0.273,-0.273 0.637,-0.637 1.184,-1.093 A 6.619,6.619 0 0 1 269.574,230 q 4.1,0 4.1,4.644 v 11.928 a 0.2,0.2 0 0 1 -0.182,0.182 h -3.369 z"
         transform="translate(246.719,372.034)"
         fill="#003966" />
      <path
         id="Path_14"
         data-name="Path 14"
         d="M 134.866,84.222 A 42.111,42.111 0 1 0 92.8,42.066 42.084,42.084 0 0 0 134.866,84.223"
         transform="translate(261.696,392.616)"
         fill="#00acec" />
      <path
         id="Path_15"
         data-name="Path 15"
         d="M 158.023,83.375 A 55.421,55.421 0 0 1 117.687,100.766 55.894,55.894 0 0 1 83.725,89.2 C 37.744,94.028 3.6,100.857 3.6,100.857 v 18.574 H 247.435 V 81.1 c 0,0 -41.793,-0.273 -89.412,2.276"
         transform="translate(269.678,385.359)"
         fill="#00acec" />
      <path
         id="Path_16"
         data-name="Path 16"
         d="m 42.721,140.2 c -24.584,0 -42.521,9.287 -42.521,30.593 0,23.582 18.392,31.777 42.521,31.777 24.038,0 42.521,-8.195 42.521,-31.777 C 85.151,149.487 67.3,140.2 42.721,140.2 m 0,43.978 c -7.1,0 -13.749,-5.19 -13.749,-12.838 0,-7.557 6.465,-12.838 13.749,-12.838 7.284,0 13.749,5.19 13.749,12.838 -0.091,7.648 -6.647,12.838 -13.749,12.838"
         transform="translate(269.982,380.07)"
         fill="#003966" />
      <path
         id="Path_17"
         data-name="Path 17"
         d="m 236.752,166.2 h -16.3 v -8.1 h 43.8 V 141.8 H 191.5 v 60.185 h 54.813 c 16.753,0 21.761,-7.83 21.761,-15.752 -0.091,-12.11 -6.92,-20.031 -31.322,-20.031 m -3.915,23.491 h -12.383 v -11.017 h 12.474 c 5.645,0 7.557,1.821 7.557,5.281 0,3.369 -1.912,5.736 -7.648,5.736"
         transform="translate(252.863,379.927)"
         fill="#003966" />
      <path
         id="Path_18"
         data-name="Path 18"
         d="m 145.344,166.2 h -16.3 v -8.1 h 43.8 V 141.8 H 100 v 60.185 h 54.9 c 16.753,0 21.761,-7.83 21.761,-15.752 -0.091,-12.11 -6.92,-20.031 -31.322,-20.031 m -3.915,23.491 h -12.379 v -11.017 h 12.474 c 5.645,0 7.557,1.821 7.557,5.281 -0.091,3.369 -2,5.736 -7.648,5.736"
         transform="translate(261.051,379.927)"
         fill="#003966" />
    </g>
  </g>
</svg>
