<?xml version="1.0" encoding="UTF-8" standalone="no"?>
<svg
   height="100"
   viewBox="-19.898544 -13.373092 2.6427009 8.1286066"
   width="100"
   version="1.1"
   id="svg3"
   sodipodi:docname="unicredit.svg"
   inkscape:export-filename="unicredit.svg"
   inkscape:export-xdpi="96"
   inkscape:export-ydpi="96"
   inkscape:version="1.3.2 (091e20e, 2023-11-25, custom)"
   xmlns:inkscape="http://www.inkscape.org/namespaces/inkscape"
   xmlns:sodipodi="http://sodipodi.sourceforge.net/DTD/sodipodi-0.dtd"
   xmlns="http://www.w3.org/2000/svg"
   xmlns:svg="http://www.w3.org/2000/svg">
  <defs
     id="defs3" />
  <sodipodi:namedview
     id="namedview3"
     pagecolor="#ffffff"
     bordercolor="#000000"
     borderopacity="0.25"
     inkscape:showpageshadow="2"
     inkscape:pageopacity="0.0"
     inkscape:pagecheckerboard="0"
     inkscape:deskcolor="#d1d1d1"
     showgrid="false"
     inkscape:zoom="5.5649304"
     inkscape:cx="40.881015"
     inkscape:cy="39.263744"
     inkscape:window-width="1920"
     inkscape:window-height="1001"
     inkscape:window-x="-9"
     inkscape:window-y="-9"
     inkscape:window-maximized="1"
     inkscape:current-layer="g4" />
  <g
     id="g4"
     transform="matrix(0.1741342,0,0,0.29921989,-22.608468,-10.80161)">
    <path
       d="m 6.857045,7.3117672 v 5.6000008 c 0,1.234 -1.3928341,2.172 -3.2310663,2.172 -1.8382321,0 -3.22977898,-0.938 -3.22977898,-2.172 V 8.6277677 A 1.6863334,1.31 0 0 1 2.077384,7.3117672 h 0.1184295 v 5.5900008 c 0,0.663 0.7594937,1.07 1.4958164,1.07 0.7092898,0 1.4713581,-0.377 1.4713581,-1.07 V 8.5557677 A 1.6090968,1.25 0 0 1 6.7643611,7.3117672 Z m 3.543875,1.9790005 c 2.454838,0 2.848745,1.0700003 2.848745,1.7140003 v 3.998 h -0.07724 c -0.906243,0 -1.681184,-0.592 -1.681184,-1.296 v -2.682 c 0,-0.377 -0.196953,-0.827 -1.155975,-0.827 -0.4466857,0 -0.708003,0.041 -0.9976404,0.123 v 4.682 H 7.5779204 V 9.7087677 c 0.7479081,-0.255 1.9566616,-0.418 2.8229996,-0.418 m 5.364085,0 v 4.4270003 c 0,0.703 -0.736323,1.285 -1.655439,1.285 h -0.07852 V 9.2907677 Z M 14.896093,7.3117672 c 0.525209,0 0.946149,0.306 0.946149,0.683 0,0.3680005 -0.42094,0.6630005 -0.946149,0.6630005 -0.525209,0 -0.957735,-0.295 -0.957735,-0.6630005 0,-0.377 0.432526,-0.683 0.957735,-0.683 m 5.86741,-0.112 c 0.827719,0 1.60266,0.143 2.245012,0.448 v 1.3470005 c -0.39262,-0.398 -0.957734,-0.673 -1.863978,-0.673 -1.785454,0 -2.88865,1.367 -2.88865,2.7840003 0,1.337 1.155975,2.795 2.88865,2.795 0.762068,0 1.457198,-0.173 1.863978,-0.602 v 1.326 c -0.512336,0.296 -1.313023,0.46 -2.257885,0.46 -2.835872,0 -4.332975,-2.02 -4.332975,-3.968 0,-1.9180003 1.497103,-3.9170008 4.345848,-3.9170008 m 5.355074,2.0910005 c 0.28835,0 0.656512,0.02 0.984767,0.06 v 1.0930003 c -0.60502,-0.336 -1.405707,-0.224 -1.759708,-0.081 v 3.356 c 0,0.703 -0.747908,1.285 -1.654151,1.285 h -0.09268 V 9.7287677 c 0.682253,-0.255 1.37867,-0.438 2.521772,-0.438 m 5.553315,2.1420003 c -0.05149,-1.133 -0.957735,-1.255 -1.444325,-1.255 h -0.06436 c -0.986055,0.02 -1.445613,0.561 -1.445613,1.57 z m 1.524136,0.775 -4.372881,0.469 c 0.144175,0.928 0.747908,1.418 1.851105,1.418 1.221626,0 1.838232,-0.306 2.284917,-0.55 v 1.131 c -0.446685,0.184 -1.274404,0.408 -2.456125,0.408 -2.139455,0 -3.412572,-1.122 -3.412572,-2.917 0,-1.744 1.18172,-2.8760003 3.124222,-2.8760003 1.918043,0 2.981334,0.9900003 2.981334,2.7030003 z m 4.583995,-1.816 a 2.1652006,1.682 0 0 0 -0.60502,-0.06 c -1.443038,0 -1.745548,1.08 -1.745548,1.978 0,1.255 0.539369,1.877 1.628406,1.877 0.18408,0 0.592147,-0.03 0.722162,-0.051 z m 1.719803,-3.0800008 v 7.6200008 c -0.419653,0.07 -1.798327,0.152 -2.376314,0.152 h -0.11843 c -2.139455,-0.02 -3.308303,-0.979 -3.308303,-2.703 0,-1.744 1.221626,-2.8660003 3.11135,-2.8660003 0.368161,0 0.682257,0.03 0.959021,0.082 v -0.99 c 0,-0.7140005 0.735036,-1.2950005 1.654152,-1.2950005 z m 2.553958,1.9790005 v 4.4270003 c 0,0.703 -0.735035,1.285 -1.654151,1.285 h -0.07981 V 9.2907677 Z M 41.186159,7.3117672 c 0.525209,0 0.946149,0.306 0.946149,0.683 0,0.3680005 -0.42094,0.6630005 -0.946149,0.6630005 -0.525209,0 -0.957734,-0.295 -0.957734,-0.6630005 0,-0.377 0.432525,-0.683 0.957734,-0.683 m 3.937782,0 v 1.9790005 h 1.128942 v 1.0910003 h -1.128942 v 3.03 c 0,0.367 0.157048,0.479 0.669384,0.479 0.131302,0 0.328256,-0.03 0.459558,-0.071 v 1.132 c -0.07852,0.02 -0.42094,0.132 -0.880498,0.132 -1.28599,0 -1.99528,-0.49 -1.99528,-1.377 v -3.325 H 42.615037 V 9.2907677 h 0.762068 v -0.694 c 0,-0.7040005 0.735036,-1.2850005 1.641279,-1.2850005 z"
       id="path1"
       style="stroke-width:1.13458" />
    <g
       fill-rule="evenodd"
       id="g3"
       transform="matrix(1.5751698,0,0,1,16.617623,-4.1982116)">
      <path
         d="M 4.76,2.429 4.768,2.417 C 4.837,2.317 4.808,2.243 4.762,2.203 L 4.044,1.76 A 0.187,0.187 0 0 1 3.961,1.605 c 0,-0.102 0.061,-0.18 0.2,-0.218 0.443,-0.122 2.002,-0.186 2.532,-0.186 0.183,0 0.5,0 0.784,0.007 L 7.464,1.196 A 4.446,4.446 0 0 0 1.156,7.417 C 1.716,6.615 3.094,4.634 3.396,4.23 3.744,3.764 4.538,2.727 4.673,2.552 L 4.679,2.544 Z M 1.867,8.103 A 4.446,4.446 0 0 0 8.52,2.52 C 8.673,2.373 8.85,2.14 8.734,1.847 8.698,1.76 8.524,1.562 8.48,1.514 L 8.486,1.531 C 8.595,1.858 8.381,2.062 8.226,2.201 8.143,2.278 7.014,3.342 5.69,4.501 A 61.315,61.315 0 0 1 2.46,7.124 C 1.397,7.92 1.19,8.036 1.19,8.036 A 0.262,0.262 0 0 1 1.08,8.064 0.196,0.196 0 0 1 0.923,7.989 V 7.987 L 0.92,8.021 c 0.114,0.184 0.303,0.398 0.413,0.398 a 0.27,0.27 0 0 0 0.11,-0.027 c 0,0 0.083,-0.047 0.423,-0.29"
         fill="#e2001a"
         id="path2" />
      <path
         d="M 4.766,2.417 C 4.835,2.317 4.806,2.243 4.76,2.203 L 4.042,1.76 A 0.187,0.187 0 0 1 3.959,1.605 c 0,-0.102 0.061,-0.18 0.2,-0.218 0.444,-0.122 2.002,-0.185 2.532,-0.185 0.25,0 0.745,-0.002 1.07,0.02 C 8.127,1.245 8.405,1.321 8.473,1.498 8.609,1.844 8.385,2.058 8.226,2.202 8.141,2.279 7.013,3.343 5.689,4.501 A 61.475,61.475 0 0 1 2.46,7.126 C 1.397,7.922 1.19,8.037 1.19,8.037 A 0.265,0.265 0 0 1 1.08,8.066 0.193,0.193 0 0 1 0.884,7.871 c 0,-0.042 0.012,-0.081 0.034,-0.113 0,0 2.095,-3.017 2.476,-3.527 C 3.775,3.721 4.69,2.527 4.69,2.527 Z"
         fill="#ffffff"
         id="path3" />
    </g>
  </g>
</svg>
